<svg width="105" height="105" viewBox="0 0 105 105" fill="none" xmlns="http://www.w3.org/2000/svg">
<circle cx="54" cy="50" r="50" fill="#706DEB"/>
<g filter="url(#filter0_d)">
<rect x="42.5" y="7" width="20" height="76" rx="4.5" fill="#FFD7CE" stroke="#DF9788"/>
<line x1="42" y1="11" x2="47.5263" y2="11" stroke="#DF9788"/>
<line x1="42" y1="14" x2="47.5263" y2="14" stroke="#DF9788"/>
<line x1="42" y1="17" x2="47.5263" y2="17" stroke="#DF9788"/>
<line x1="42" y1="20" x2="51.9474" y2="20" stroke="#DF9788"/>
<line x1="42" y1="23" x2="47.5263" y2="23" stroke="#DF9788"/>
<line x1="42" y1="26" x2="47.5263" y2="26" stroke="#DF9788"/>
<line x1="42" y1="29" x2="47.5263" y2="29" stroke="#DF9788"/>
<line x1="42" y1="32" x2="51.9474" y2="32" stroke="#DF9788"/>
<line x1="43.1053" y1="35" x2="48.6316" y2="35" stroke="#DF9788"/>
<line x1="43.1053" y1="38" x2="48.6316" y2="38" stroke="#DF9788"/>
<line x1="43.1053" y1="41" x2="48.6316" y2="41" stroke="#DF9788"/>
<line x1="43.1053" y1="44" x2="53.0526" y2="44" stroke="#DF9788"/>
<line x1="43.1053" y1="47" x2="48.6316" y2="47" stroke="#DF9788"/>
<line x1="43.1053" y1="50" x2="48.6316" y2="50" stroke="#DF9788"/>
<line x1="43.1053" y1="53" x2="48.6316" y2="53" stroke="#DF9788"/>
<line x1="43.1053" y1="56" x2="53.0526" y2="56" stroke="#DF9788"/>
<line x1="43.1053" y1="59" x2="48.6316" y2="59" stroke="#DF9788"/>
<line x1="43.1053" y1="62" x2="48.6316" y2="62" stroke="#DF9788"/>
<line x1="43.1053" y1="65" x2="48.6316" y2="65" stroke="#DF9788"/>
<line x1="43.1053" y1="68" x2="53.0526" y2="68" stroke="#DF9788"/>
<line x1="43.1053" y1="71" x2="48.6316" y2="71" stroke="#DF9788"/>
<line x1="43.1053" y1="74" x2="48.6316" y2="74" stroke="#DF9788"/>
<line x1="43.1053" y1="77" x2="48.6316" y2="77" stroke="#DF9788"/>
<line x1="43.1053" y1="80" x2="53.0526" y2="80" stroke="#DF9788"/>
<path d="M22.9267 22.0382C23.3707 20.4039 23.6943 19.215 24.0018 18.4006C24.1554 17.9941 24.2942 17.7109 24.4247 17.5228C24.5545 17.336 24.6478 17.2836 24.6988 17.2675C24.8948 17.2056 25.1052 17.2056 25.3012 17.2675C25.3522 17.2836 25.4455 17.336 25.5753 17.5228C25.7058 17.7109 25.8446 17.9941 25.9982 18.4006C26.3057 19.215 26.6293 20.4039 27.0733 22.0382C27.2558 22.7098 27.3809 23.173 27.4361 23.5309C27.4904 23.8828 27.4632 24.0557 27.4079 24.1738C27.3469 24.3042 27.2585 24.4199 27.1486 24.513C27.0492 24.5972 26.8894 24.6688 26.5356 24.7087C26.1757 24.7492 25.696 24.75 25 24.75C24.304 24.75 23.8243 24.7492 23.4644 24.7087C23.1106 24.6688 22.9508 24.5972 22.8514 24.513C22.7415 24.4199 22.6531 24.3042 22.5921 24.1738C22.5368 24.0557 22.5096 23.8828 22.5639 23.5309C22.6191 23.173 22.7442 22.7098 22.9267 22.0382Z" fill="#CEC1FF" stroke="white"/>
<rect x="21.5" y="23" width="7" height="56" rx="0.5" fill="#CEC1FF" stroke="#FCFCFC"/>
<rect x="23.5" y="79" width="3" height="4" rx="0.5" fill="#CEC1FF" stroke="#FCFCFC"/>
<line x1="21" y1="78" x2="18" y2="78" stroke="#FCFCFC"/>
<line x1="18.5" y1="78.5" x2="18.5" y2="60.5" stroke="#FCFCFC"/>
<line x1="22" y1="26" x2="28" y2="26" stroke="white"/>
<line x1="22" y1="28" x2="28" y2="28" stroke="white"/>
<line x1="22" y1="30" x2="28" y2="30" stroke="white"/>
<line x1="22" y1="32" x2="28" y2="32" stroke="white"/>
<line x1="22" y1="34" x2="28" y2="34" stroke="white"/>
<line x1="22" y1="36" x2="28" y2="36" stroke="white"/>
<path d="M88.5001 82.5C85.5335 82.4999 82.5311 80.3034 80.2474 76.311C78.0311 72.4363 76.5525 66.9585 76.5014 60.5H100.485C100.232 67.8571 98.7481 73.3442 96.5879 76.9952C94.3816 80.7242 91.5001 82.5001 88.5001 82.5Z" fill="#5436C4" stroke="#5436C4"/>
<path d="M88.4998 44.5C92.8604 44.5 95.8348 46.0926 97.7344 48.7699C99.5854 51.3786 100.459 55.0777 100.499 59.5H76.5216C76.7587 54.4556 77.6331 50.7528 79.4297 48.2952C81.2577 45.7947 84.1064 44.5 88.4998 44.5Z" fill="white" stroke="#5436C4"/>
<line x1="88.5" y1="45" x2="88.5" y2="59" stroke="#5436C4"/>
<rect x="87" y="50" width="3" height="6" rx="1.5" fill="#5436C4"/>
<path d="M88.5 44V14C88.5 8.47715 84.0228 4 78.5 4H16C10.4772 4 6 8.47715 6 14V83C6 88.5228 10.4772 93 16 93H85.5" stroke="#DF9788" stroke-width="3"/>
<rect x="82" y="89.5" width="12" height="7" rx="1" fill="#DF9788"/>
<rect x="92" y="90.5" width="6" height="5" rx="1" fill="#DF9788"/>
</g>
<defs>
<filter id="filter0_d" x="0.5" y="2.5" width="104.5" height="102" filterUnits="userSpaceOnUse" color-interpolation-filters="sRGB">
<feFlood flood-opacity="0" result="BackgroundImageFix"/>
<feColorMatrix in="SourceAlpha" type="matrix" values="0 0 0 0 0 0 0 0 0 0 0 0 0 0 0 0 0 0 127 0"/>
<feOffset dy="4"/>
<feGaussianBlur stdDeviation="2"/>
<feColorMatrix type="matrix" values="0 0 0 0 0 0 0 0 0 0 0 0 0 0 0 0 0 0 0.25 0"/>
<feBlend mode="normal" in2="BackgroundImageFix" result="effect1_dropShadow"/>
<feBlend mode="normal" in="SourceGraphic" in2="effect1_dropShadow" result="shape"/>
</filter>
</defs>
</svg>
