<svg width="411" height="731" viewBox="0 0 411 731" fill="none" xmlns="http://www.w3.org/2000/svg">
<g clip-path="url(#clip0)">
<rect width="411" height="731" fill="#B0E6E3"/>
<rect x="-41" width="478" height="731" fill="url(#paint0_linear)"/>
<g filter="url(#filter0_d)">
<rect x="-11" y="-7" width="422" height="63" fill="#89DAD5"/>
</g>
<g filter="url(#filter1_d)">
<rect width="40.2716" height="49.3687" rx="10" transform="matrix(0.946786 -0.321862 0.363091 0.931754 150 120.962)" fill="white"/>
<rect x="0.654938" y="0.304946" width="39.2716" height="48.3687" rx="9.5" transform="matrix(0.946786 -0.321862 0.363091 0.931754 149.924 121.194)" stroke="#AAAAAA"/>
</g>
<g clip-path="url(#clip1)">
<path d="M164.146 129.082L163.672 129.243L163.854 129.709L171.351 148.949L171.533 149.415L172.006 149.254L192.605 142.251L193.079 142.09L192.897 141.624L185.4 122.385L185.218 121.919L184.745 122.08L164.146 129.082Z" stroke="#AAAAAA"/>
<path d="M187.356 139.877L186.288 137.136L187.102 136.859C188.524 136.376 189.299 134.885 188.759 133.499C188.219 132.113 186.599 131.436 185.177 131.919L184.363 132.196L183.295 129.455C182.842 128.293 181.481 127.729 180.299 128.13L177.339 129.137L177.052 128.4C176.512 127.014 174.893 126.337 173.47 126.82C172.048 127.304 171.273 128.795 171.814 130.181L172.101 130.917L169.141 131.924C167.956 132.326 167.314 133.575 167.766 134.734L168.953 137.781L169.135 138.246L169.608 138.086L170.887 137.651C171.928 137.297 173.036 137.808 173.393 138.722C173.749 139.637 173.252 140.694 172.211 141.048L170.923 141.486L170.45 141.647L170.631 142.112L171.818 145.159C172.271 146.32 173.633 146.885 174.815 146.483L178.076 145.375L178.55 145.214L178.368 144.748L177.899 143.545C177.543 142.631 178.041 141.574 179.082 141.22C180.123 140.866 181.231 141.377 181.587 142.292L182.056 143.494L182.238 143.96L182.711 143.799L185.972 142.69C187.154 142.288 187.809 141.038 187.356 139.877Z" fill="url(#paint1_linear)" stroke="#AAAAAA"/>
</g>
<g filter="url(#filter2_d)">
<rect width="40.2716" height="49.3687" rx="10" transform="matrix(0.946786 0.321862 -0.363091 0.931754 222.871 108)" fill="white"/>
<rect x="0.291848" y="0.626808" width="39.2716" height="48.3687" rx="9.5" transform="matrix(0.946786 0.321862 -0.363091 0.931754 223.115 107.949)" stroke="#AAAAAA"/>
</g>
<g clip-path="url(#clip2)">
<path d="M227.407 122.08L226.933 121.919L226.752 122.385L219.295 141.52L219.113 141.986L219.587 142.147L240.074 149.112L240.548 149.273L240.729 148.807L248.186 129.671L248.368 129.205L247.894 129.045L227.407 122.08Z" stroke="#AAAAAA"/>
<path d="M237.029 127.157C232.079 125.474 226.555 127.852 224.731 132.533C222.906 137.214 225.502 142.352 230.452 144.035C235.402 145.718 240.926 143.34 242.75 138.659C244.575 133.978 241.979 128.84 237.029 127.157ZM230.387 140.345L230.162 140.922C227.492 139.371 226.284 136.261 227.385 133.435C227.449 133.271 227.52 133.111 227.599 132.955L229.696 137.156L229.463 137.754C229.074 138.752 229.506 139.815 230.387 140.345ZM234.292 133.075L234.732 131.946L235.966 132.365C237.013 132.721 238.201 132.316 238.768 131.408C240.384 133.093 240.969 135.516 240.096 137.757C239.587 139.065 238.655 140.117 237.494 140.833C237.28 140.221 236.784 139.715 236.094 139.48L235.714 139.351L236.464 137.425C236.744 136.706 236.337 135.951 235.629 135.71L230.981 134.13L231.239 133.467L232.473 133.887C233.18 134.127 234.012 133.793 234.292 133.075Z" fill="url(#paint2_linear)" stroke="#AAAAAA"/>
</g>
<g filter="url(#filter3_d)">
<rect width="40.5651" height="48.9661" rx="10" transform="matrix(0.998235 0.0593825 -0.0680321 0.997683 186.299 118.264)" fill="white"/>
<rect x="0.465102" y="0.528533" width="39.5651" height="47.9661" rx="9.5" transform="matrix(0.998235 0.0593825 -0.0680321 0.997683 186.336 118.238)" stroke="#AAAAAA"/>
</g>
<path d="M204.423 146.063L204.424 146.064C204.9 146.321 205.487 146.343 205.983 146.122L205.984 146.121L211.303 143.768L204.423 146.063ZM204.423 146.063L199.322 143.322L204.423 146.063ZM198.647 140.278L198.569 142.099C198.549 142.57 198.819 143.051 199.321 143.322L198.647 140.278ZM198.647 140.278L204.103 143.212C204.104 143.212 204.104 143.212 204.104 143.212C204.852 143.617 205.765 143.651 206.545 143.303C206.545 143.303 206.545 143.303 206.546 143.303L212.235 140.784L212.157 142.605C212.137 143.076 211.827 143.536 211.303 143.768L198.647 140.278ZM204.663 140.466L204.661 140.465L196.062 135.847C196.062 135.847 196.062 135.847 196.062 135.847C195.874 135.745 195.812 135.592 195.818 135.465C195.823 135.337 195.898 135.189 196.094 135.102C196.094 135.101 196.094 135.101 196.094 135.101L205.058 131.138C205.555 130.924 206.146 130.946 206.624 131.197C206.624 131.197 206.625 131.197 206.625 131.198L216.331 136.406C216.515 136.508 216.586 136.659 216.58 136.789L216.325 142.77C216.317 142.956 216.114 143.196 215.764 143.183C215.414 143.17 215.232 142.916 215.24 142.729L215.476 137.215L215.51 136.415L214.776 136.74L206.223 140.523L206.222 140.524C205.726 140.745 205.139 140.723 204.663 140.466Z" fill="url(#paint3_linear)" stroke="#AAAAAA"/>
<path d="M26.4922 24.7207H20.5254V31H18.6504V16.7812H27.459V18.3242H20.5254V23.1875H26.4922V24.7207ZM31.3848 31H29.5781V16H31.3848V31ZM40.8086 31C40.7044 30.7917 40.6198 30.4206 40.5547 29.8867C39.7148 30.7591 38.7122 31.1953 37.5469 31.1953C36.5052 31.1953 35.6491 30.9023 34.9785 30.3164C34.3145 29.724 33.9824 28.9753 33.9824 28.0703C33.9824 26.9701 34.3991 26.1172 35.2324 25.5117C36.0723 24.8997 37.2507 24.5938 38.7676 24.5938H40.5254V23.7637C40.5254 23.1322 40.3366 22.6309 39.959 22.2598C39.5814 21.8822 39.0247 21.6934 38.2891 21.6934C37.6445 21.6934 37.1042 21.8561 36.668 22.1816C36.2318 22.5072 36.0137 22.901 36.0137 23.3633H34.1973C34.1973 22.8359 34.3828 22.3281 34.7539 21.8398C35.1315 21.3451 35.6393 20.9544 36.2773 20.668C36.9219 20.3815 37.6283 20.2383 38.3965 20.2383C39.6139 20.2383 40.5677 20.5443 41.2578 21.1562C41.9479 21.7617 42.306 22.5983 42.332 23.666V28.5293C42.332 29.4993 42.4557 30.2708 42.7031 30.8438V31H40.8086ZM37.8105 29.623C38.377 29.623 38.9141 29.4766 39.4219 29.1836C39.9297 28.8906 40.2975 28.5098 40.5254 28.041V25.873H39.1094C36.8958 25.873 35.7891 26.5208 35.7891 27.8164C35.7891 28.3828 35.9779 28.8255 36.3555 29.1445C36.7331 29.4635 37.2181 29.623 37.8105 29.623ZM51.3164 28.1973C51.3164 27.709 51.1309 27.3314 50.7598 27.0645C50.3952 26.791 49.7539 26.5566 48.8359 26.3613C47.9245 26.166 47.1986 25.9316 46.6582 25.6582C46.1243 25.3848 45.7272 25.0592 45.4668 24.6816C45.2129 24.304 45.0859 23.8548 45.0859 23.334C45.0859 22.4681 45.4505 21.7357 46.1797 21.1367C46.9154 20.5378 47.8529 20.2383 48.9922 20.2383C50.1901 20.2383 51.1602 20.5475 51.9023 21.166C52.651 21.7845 53.0254 22.5755 53.0254 23.5391H51.209C51.209 23.0443 50.9974 22.6178 50.5742 22.2598C50.1576 21.9017 49.6302 21.7227 48.9922 21.7227C48.3346 21.7227 47.8203 21.8659 47.4492 22.1523C47.0781 22.4388 46.8926 22.8132 46.8926 23.2754C46.8926 23.7116 47.0651 24.0404 47.4102 24.2617C47.7552 24.4831 48.377 24.6947 49.2754 24.8965C50.1803 25.0983 50.9128 25.3392 51.4727 25.6191C52.0326 25.8991 52.446 26.2376 52.7129 26.6348C52.9863 27.0254 53.123 27.5039 53.123 28.0703C53.123 29.0143 52.7454 29.7728 51.9902 30.3457C51.235 30.9121 50.2552 31.1953 49.0508 31.1953C48.2044 31.1953 47.4557 31.0456 46.8047 30.7461C46.1536 30.4466 45.6426 30.0299 45.2715 29.4961C44.9069 28.9557 44.7246 28.373 44.7246 27.748H46.5312C46.5638 28.3535 46.8047 28.8353 47.2539 29.1934C47.7096 29.5449 48.3086 29.7207 49.0508 29.7207C49.7344 29.7207 50.2812 29.584 50.6914 29.3105C51.1081 29.0306 51.3164 28.6595 51.3164 28.1973ZM57.2832 21.7129C58.084 20.7298 59.1257 20.2383 60.4082 20.2383C62.6413 20.2383 63.7676 21.498 63.7871 24.0176V31H61.9805V24.0078C61.974 23.2461 61.7982 22.6829 61.4531 22.3184C61.1146 21.9538 60.584 21.7715 59.8613 21.7715C59.2754 21.7715 58.7611 21.9277 58.3184 22.2402C57.8757 22.5527 57.5306 22.9629 57.2832 23.4707V31H55.4766V16H57.2832V21.7129ZM70.7305 29.7207C71.375 29.7207 71.9382 29.5254 72.4199 29.1348C72.9017 28.7441 73.1686 28.2559 73.2207 27.6699H74.9297C74.8971 28.2754 74.6888 28.8516 74.3047 29.3984C73.9206 29.9453 73.4062 30.3815 72.7617 30.707C72.1237 31.0326 71.4466 31.1953 70.7305 31.1953C69.2917 31.1953 68.1458 30.7168 67.293 29.7598C66.4466 28.7962 66.0234 27.4811 66.0234 25.8145V25.5117C66.0234 24.4831 66.2122 23.5684 66.5898 22.7676C66.9674 21.9668 67.5078 21.3451 68.2109 20.9023C68.9206 20.4596 69.7572 20.2383 70.7207 20.2383C71.9056 20.2383 72.8887 20.5931 73.6699 21.3027C74.4577 22.0124 74.8776 22.9336 74.9297 24.0664H73.2207C73.1686 23.3828 72.9082 22.8229 72.4395 22.3867C71.9772 21.944 71.4043 21.7227 70.7207 21.7227C69.8027 21.7227 69.0898 22.0547 68.582 22.7188C68.0807 23.3763 67.8301 24.3301 67.8301 25.5801V25.9219C67.8301 27.1393 68.0807 28.0768 68.582 28.7344C69.0833 29.3919 69.7995 29.7207 70.7305 29.7207ZM83.4844 31C83.3802 30.7917 83.2956 30.4206 83.2305 29.8867C82.3906 30.7591 81.388 31.1953 80.2227 31.1953C79.181 31.1953 78.3249 30.9023 77.6543 30.3164C76.9902 29.724 76.6582 28.9753 76.6582 28.0703C76.6582 26.9701 77.0749 26.1172 77.9082 25.5117C78.748 24.8997 79.9264 24.5938 81.4434 24.5938H83.2012V23.7637C83.2012 23.1322 83.0124 22.6309 82.6348 22.2598C82.2572 21.8822 81.7005 21.6934 80.9648 21.6934C80.3203 21.6934 79.7799 21.8561 79.3438 22.1816C78.9076 22.5072 78.6895 22.901 78.6895 23.3633H76.873C76.873 22.8359 77.0586 22.3281 77.4297 21.8398C77.8073 21.3451 78.3151 20.9544 78.9531 20.668C79.5977 20.3815 80.304 20.2383 81.0723 20.2383C82.2897 20.2383 83.2435 20.5443 83.9336 21.1562C84.6237 21.7617 84.9818 22.5983 85.0078 23.666V28.5293C85.0078 29.4993 85.1315 30.2708 85.3789 30.8438V31H83.4844ZM80.4863 29.623C81.0527 29.623 81.5898 29.4766 82.0977 29.1836C82.6055 28.8906 82.9733 28.5098 83.2012 28.041V25.873H81.7852C79.5716 25.873 78.4648 26.5208 78.4648 27.8164C78.4648 28.3828 78.6536 28.8255 79.0312 29.1445C79.4089 29.4635 79.8939 29.623 80.4863 29.623ZM92.9473 22.0547C92.6738 22.0091 92.3776 21.9863 92.0586 21.9863C90.8737 21.9863 90.0697 22.4909 89.6465 23.5V31H87.8398V20.4336H89.5977L89.627 21.6543C90.2194 20.7103 91.0592 20.2383 92.1465 20.2383C92.498 20.2383 92.765 20.2839 92.9473 20.375V22.0547ZM93.9824 25.6289C93.9824 24.0078 94.3665 22.7057 95.1348 21.7227C95.903 20.7331 96.9089 20.2383 98.1523 20.2383C99.3893 20.2383 100.369 20.6615 101.092 21.5078V16H102.898V31H101.238L101.15 29.8672C100.428 30.7526 99.4219 31.1953 98.1328 31.1953C96.9089 31.1953 95.9095 30.694 95.1348 29.6914C94.3665 28.6888 93.9824 27.3802 93.9824 25.7656V25.6289ZM95.7891 25.834C95.7891 27.0319 96.0365 27.9694 96.5312 28.6465C97.026 29.3236 97.7096 29.6621 98.582 29.6621C99.7279 29.6621 100.564 29.1478 101.092 28.1191V23.2656C100.551 22.2695 99.7214 21.7715 98.6016 21.7715C97.7161 21.7715 97.026 22.1133 96.5312 22.7969C96.0365 23.4805 95.7891 24.4928 95.7891 25.834ZM111.863 28.1973C111.863 27.709 111.678 27.3314 111.307 27.0645C110.942 26.791 110.301 26.5566 109.383 26.3613C108.471 26.166 107.745 25.9316 107.205 25.6582C106.671 25.3848 106.274 25.0592 106.014 24.6816C105.76 24.304 105.633 23.8548 105.633 23.334C105.633 22.4681 105.997 21.7357 106.727 21.1367C107.462 20.5378 108.4 20.2383 109.539 20.2383C110.737 20.2383 111.707 20.5475 112.449 21.166C113.198 21.7845 113.572 22.5755 113.572 23.5391H111.756C111.756 23.0443 111.544 22.6178 111.121 22.2598C110.704 21.9017 110.177 21.7227 109.539 21.7227C108.882 21.7227 108.367 21.8659 107.996 22.1523C107.625 22.4388 107.439 22.8132 107.439 23.2754C107.439 23.7116 107.612 24.0404 107.957 24.2617C108.302 24.4831 108.924 24.6947 109.822 24.8965C110.727 25.0983 111.46 25.3392 112.02 25.6191C112.579 25.8991 112.993 26.2376 113.26 26.6348C113.533 27.0254 113.67 27.5039 113.67 28.0703C113.67 29.0143 113.292 29.7728 112.537 30.3457C111.782 30.9121 110.802 31.1953 109.598 31.1953C108.751 31.1953 108.003 31.0456 107.352 30.7461C106.701 30.4466 106.189 30.0299 105.818 29.4961C105.454 28.9557 105.271 28.373 105.271 27.748H107.078C107.111 28.3535 107.352 28.8353 107.801 29.1934C108.257 29.5449 108.855 29.7207 109.598 29.7207C110.281 29.7207 110.828 29.584 111.238 29.3105C111.655 29.0306 111.863 28.6595 111.863 28.1973Z" fill="white"/>
<path d="M57.1152 393.66V397H55.9902V388.469H59.1367C60.0703 388.469 60.8008 388.707 61.3281 389.184C61.8594 389.66 62.125 390.291 62.125 391.076C62.125 391.904 61.8652 392.543 61.3457 392.992C60.8301 393.438 60.0898 393.66 59.125 393.66H57.1152ZM57.1152 392.74H59.1367C59.7383 392.74 60.1992 392.6 60.5195 392.318C60.8398 392.033 61 391.623 61 391.088C61 390.58 60.8398 390.174 60.5195 389.869C60.1992 389.564 59.7598 389.406 59.2012 389.395H57.1152V392.74ZM64.5684 397H63.4844V390.66H64.5684V397ZM63.3965 388.979C63.3965 388.803 63.4492 388.654 63.5547 388.533C63.6641 388.412 63.8242 388.352 64.0352 388.352C64.2461 388.352 64.4062 388.412 64.5156 388.533C64.625 388.654 64.6797 388.803 64.6797 388.979C64.6797 389.154 64.625 389.301 64.5156 389.418C64.4062 389.535 64.2461 389.594 64.0352 389.594C63.8242 389.594 63.6641 389.535 63.5547 389.418C63.4492 389.301 63.3965 389.154 63.3965 388.979ZM68.8516 396.232C69.2383 396.232 69.5762 396.115 69.8652 395.881C70.1543 395.646 70.3145 395.354 70.3457 395.002H71.3711C71.3516 395.365 71.2266 395.711 70.9961 396.039C70.7656 396.367 70.457 396.629 70.0703 396.824C69.6875 397.02 69.2812 397.117 68.8516 397.117C67.9883 397.117 67.3008 396.83 66.7891 396.256C66.2812 395.678 66.0273 394.889 66.0273 393.889V393.707C66.0273 393.09 66.1406 392.541 66.3672 392.061C66.5938 391.58 66.918 391.207 67.3398 390.941C67.7656 390.676 68.2676 390.543 68.8457 390.543C69.5566 390.543 70.1465 390.756 70.6152 391.182C71.0879 391.607 71.3398 392.16 71.3711 392.84H70.3457C70.3145 392.43 70.1582 392.094 69.877 391.832C69.5996 391.566 69.2559 391.434 68.8457 391.434C68.2949 391.434 67.8672 391.633 67.5625 392.031C67.2617 392.426 67.1113 392.998 67.1113 393.748V393.953C67.1113 394.684 67.2617 395.246 67.5625 395.641C67.8633 396.035 68.293 396.232 68.8516 396.232ZM74.3594 394.064L73.6797 394.773V397H72.5957V388H73.6797V393.443L74.2598 392.746L76.2344 390.66H77.5527L75.0859 393.309L77.8398 397H76.5684L74.3594 394.064ZM85.5625 397C85.5 396.875 85.4492 396.652 85.4102 396.332C84.9062 396.855 84.3047 397.117 83.6055 397.117C82.9805 397.117 82.4668 396.941 82.0645 396.59C81.666 396.234 81.4668 395.785 81.4668 395.242C81.4668 394.582 81.7168 394.07 82.2168 393.707C82.7207 393.34 83.4277 393.156 84.3379 393.156H85.3926V392.658C85.3926 392.279 85.2793 391.979 85.0527 391.756C84.8262 391.529 84.4922 391.416 84.0508 391.416C83.6641 391.416 83.3398 391.514 83.0781 391.709C82.8164 391.904 82.6855 392.141 82.6855 392.418H81.5957C81.5957 392.102 81.707 391.797 81.9297 391.504C82.1562 391.207 82.4609 390.973 82.8438 390.801C83.2305 390.629 83.6543 390.543 84.1152 390.543C84.8457 390.543 85.418 390.727 85.832 391.094C86.2461 391.457 86.4609 391.959 86.4766 392.6V395.518C86.4766 396.1 86.5508 396.562 86.6992 396.906V397H85.5625ZM83.7637 396.174C84.1035 396.174 84.4258 396.086 84.7305 395.91C85.0352 395.734 85.2559 395.506 85.3926 395.225V393.924H84.543C83.2148 393.924 82.5508 394.312 82.5508 395.09C82.5508 395.43 82.6641 395.695 82.8906 395.887C83.1172 396.078 83.4082 396.174 83.7637 396.174ZM93.6953 396.232C94.082 396.232 94.4199 396.115 94.709 395.881C94.998 395.646 95.1582 395.354 95.1895 395.002H96.2148C96.1953 395.365 96.0703 395.711 95.8398 396.039C95.6094 396.367 95.3008 396.629 94.9141 396.824C94.5312 397.02 94.125 397.117 93.6953 397.117C92.832 397.117 92.1445 396.83 91.6328 396.256C91.125 395.678 90.8711 394.889 90.8711 393.889V393.707C90.8711 393.09 90.9844 392.541 91.2109 392.061C91.4375 391.58 91.7617 391.207 92.1836 390.941C92.6094 390.676 93.1113 390.543 93.6895 390.543C94.4004 390.543 94.9902 390.756 95.459 391.182C95.9316 391.607 96.1836 392.16 96.2148 392.84H95.1895C95.1582 392.43 95.002 392.094 94.7207 391.832C94.4434 391.566 94.0996 391.434 93.6895 391.434C93.1387 391.434 92.7109 391.633 92.4062 392.031C92.1055 392.426 91.9551 392.998 91.9551 393.748V393.953C91.9551 394.684 92.1055 395.246 92.4062 395.641C92.707 396.035 93.1367 396.232 93.6953 396.232ZM97.1465 393.771C97.1465 393.15 97.2676 392.592 97.5098 392.096C97.7559 391.6 98.0957 391.217 98.5293 390.947C98.9668 390.678 99.4648 390.543 100.023 390.543C100.887 390.543 101.584 390.842 102.115 391.439C102.65 392.037 102.918 392.832 102.918 393.824V393.9C102.918 394.518 102.799 395.072 102.561 395.564C102.326 396.053 101.988 396.434 101.547 396.707C101.109 396.98 100.605 397.117 100.035 397.117C99.1758 397.117 98.4785 396.818 97.9434 396.221C97.4121 395.623 97.1465 394.832 97.1465 393.848V393.771ZM98.2363 393.9C98.2363 394.604 98.3984 395.168 98.7227 395.594C99.0508 396.02 99.4883 396.232 100.035 396.232C100.586 396.232 101.023 396.018 101.348 395.588C101.672 395.154 101.834 394.549 101.834 393.771C101.834 393.076 101.668 392.514 101.336 392.084C101.008 391.65 100.57 391.434 100.023 391.434C99.4883 391.434 99.0566 391.646 98.7285 392.072C98.4004 392.498 98.2363 393.107 98.2363 393.9ZM105.455 397H104.371V388H105.455V397ZM106.908 393.771C106.908 393.15 107.029 392.592 107.271 392.096C107.518 391.6 107.857 391.217 108.291 390.947C108.729 390.678 109.227 390.543 109.785 390.543C110.648 390.543 111.346 390.842 111.877 391.439C112.412 392.037 112.68 392.832 112.68 393.824V393.9C112.68 394.518 112.561 395.072 112.322 395.564C112.088 396.053 111.75 396.434 111.309 396.707C110.871 396.98 110.367 397.117 109.797 397.117C108.938 397.117 108.24 396.818 107.705 396.221C107.174 395.623 106.908 394.832 106.908 393.848V393.771ZM107.998 393.9C107.998 394.604 108.16 395.168 108.484 395.594C108.812 396.02 109.25 396.232 109.797 396.232C110.348 396.232 110.785 396.018 111.109 395.588C111.434 395.154 111.596 394.549 111.596 393.771C111.596 393.076 111.43 392.514 111.098 392.084C110.77 391.65 110.332 391.434 109.785 391.434C109.25 391.434 108.818 391.646 108.49 392.072C108.162 392.498 107.998 393.107 107.998 393.9ZM117.953 396.373C117.531 396.869 116.912 397.117 116.096 397.117C115.42 397.117 114.904 396.922 114.549 396.531C114.197 396.137 114.02 395.555 114.016 394.785V390.66H115.1V394.756C115.1 395.717 115.49 396.197 116.271 396.197C117.1 396.197 117.65 395.889 117.924 395.271V390.66H119.008V397H117.977L117.953 396.373ZM123.725 391.633C123.561 391.605 123.383 391.592 123.191 391.592C122.48 391.592 121.998 391.895 121.744 392.5V397H120.66V390.66H121.715L121.732 391.393C122.088 390.826 122.592 390.543 123.244 390.543C123.455 390.543 123.615 390.57 123.725 390.625V391.633ZM124.691 396.432C124.691 396.244 124.746 396.088 124.855 395.963C124.969 395.838 125.137 395.775 125.359 395.775C125.582 395.775 125.75 395.838 125.863 395.963C125.98 396.088 126.039 396.244 126.039 396.432C126.039 396.611 125.98 396.762 125.863 396.883C125.75 397.004 125.582 397.064 125.359 397.064C125.137 397.064 124.969 397.004 124.855 396.883C124.746 396.762 124.691 396.611 124.691 396.432ZM124.697 391.258C124.697 391.07 124.752 390.914 124.861 390.789C124.975 390.664 125.143 390.602 125.365 390.602C125.588 390.602 125.756 390.664 125.869 390.789C125.986 390.914 126.045 391.07 126.045 391.258C126.045 391.438 125.986 391.588 125.869 391.709C125.756 391.83 125.588 391.891 125.365 391.891C125.143 391.891 124.975 391.83 124.861 391.709C124.752 391.588 124.697 391.438 124.697 391.258Z" fill="#767676"/>
<rect x="44.5" y="259.5" width="321" height="44" rx="9.5" fill="white" fill-opacity="0.7" stroke="#AAAAAA"/>
<path d="M59.116 275.624C59.804 275.624 60.424 275.748 60.976 275.996C61.536 276.236 61.984 276.56 62.32 276.968C63.008 277.792 63.352 278.74 63.352 279.812C63.352 280.668 63.128 281.448 62.68 282.152C62.192 282.928 61.516 283.464 60.652 283.76C60.18 283.92 59.668 284 59.116 284H56.164V275.624H59.116ZM58.984 282.98C59.976 282.98 60.772 282.688 61.372 282.104C61.972 281.52 62.272 280.756 62.272 279.812C62.272 278.868 61.972 278.104 61.372 277.52C60.772 276.936 59.976 276.644 58.984 276.644H57.256V282.98H58.984ZM70.324 280.94V281.324H65.692C65.756 281.884 65.964 282.32 66.316 282.632C66.668 282.944 67.2 283.1 67.912 283.1C68.632 283.1 69.296 282.9 69.904 282.5H69.964V283.556C69.292 283.932 68.5 284.12 67.588 284.12C66.684 284.12 65.956 283.844 65.404 283.292C64.86 282.732 64.588 281.98 64.588 281.036C64.588 280.084 64.832 279.3 65.32 278.684C65.808 278.068 66.52 277.76 67.456 277.76C68.392 277.76 69.104 278.068 69.592 278.684C70.08 279.3 70.324 280.052 70.324 280.94ZM65.692 280.436H69.232C69.2 279.86 69.004 279.424 68.644 279.128C68.292 278.832 67.896 278.684 67.456 278.684C67.016 278.684 66.62 278.832 66.268 279.128C65.916 279.424 65.724 279.86 65.692 280.436ZM76.6278 279.38C76.0358 278.98 75.3918 278.78 74.6958 278.78C74.0078 278.78 73.4678 278.98 73.0758 279.38C72.6838 279.772 72.4878 280.292 72.4878 280.94C72.4878 281.588 72.6838 282.112 73.0758 282.512C73.4678 282.904 74.0078 283.1 74.6958 283.1C75.3918 283.1 76.0358 282.9 76.6278 282.5H76.6758V283.532C76.0118 283.924 75.3198 284.12 74.5998 284.12C73.7118 284.12 72.9558 283.832 72.3318 283.256C71.7078 282.68 71.3958 281.908 71.3958 280.94C71.3958 279.972 71.7078 279.2 72.3318 278.624C72.9558 278.048 73.7118 277.76 74.5998 277.76C75.3198 277.76 76.0118 277.956 76.6758 278.348V279.38H76.6278ZM80.9853 280.34L83.7453 284H82.4013L80.2413 281.108H80.2053L79.3173 281.996V284H78.2253V275.24H79.3173V280.604H79.3533L82.0053 277.88H83.4693L80.9853 280.34ZM94.3253 275.624H95.4173V284H94.0733L89.2253 277.1H89.2013V284H88.1093V275.624H89.4533L94.2893 282.512H94.3253V275.624ZM97.6341 278.216C98.3301 277.912 99.0741 277.76 99.8661 277.76C100.666 277.76 101.278 277.992 101.702 278.456C102.126 278.92 102.338 279.476 102.338 280.124V284H101.378L101.246 283.232H101.21C100.634 283.824 99.8941 284.12 98.9901 284.12C98.4461 284.12 97.9821 283.956 97.5981 283.628C97.2221 283.3 97.0341 282.852 97.0341 282.284C97.0341 281.716 97.2661 281.256 97.7301 280.904C98.2021 280.552 98.8901 280.376 99.7941 280.376H101.246V280.28C101.246 279.752 101.114 279.372 100.85 279.14C100.594 278.908 100.146 278.792 99.5061 278.792C98.8661 278.792 98.2661 278.928 97.7061 279.2H97.6341V278.216ZM101.246 282.26V281.252H99.9381C98.7301 281.252 98.1261 281.572 98.1261 282.212C98.1261 282.844 98.5501 283.16 99.3981 283.16C99.7501 283.16 100.09 283.076 100.418 282.908C100.746 282.732 101.022 282.516 101.246 282.26ZM111.358 277.76C112.014 277.76 112.51 277.992 112.846 278.456C113.19 278.92 113.362 279.456 113.362 280.064V284H112.27V280.28C112.27 279.76 112.174 279.38 111.982 279.14C111.798 278.892 111.486 278.768 111.046 278.768C110.358 278.768 109.782 279.152 109.318 279.92V284H108.226V280.28C108.226 279.76 108.134 279.38 107.95 279.14C107.766 278.892 107.45 278.768 107.002 278.768C106.314 278.768 105.738 279.152 105.274 279.92V284H104.182V277.88H105.142L105.274 278.648V278.828H105.298C105.81 278.116 106.482 277.76 107.314 277.76C107.762 277.76 108.142 277.876 108.454 278.108C108.774 278.34 109.002 278.628 109.138 278.972H109.174C109.662 278.164 110.39 277.76 111.358 277.76ZM120.586 280.94V281.324H115.954C116.018 281.884 116.226 282.32 116.578 282.632C116.93 282.944 117.462 283.1 118.174 283.1C118.894 283.1 119.558 282.9 120.166 282.5H120.226V283.556C119.554 283.932 118.762 284.12 117.85 284.12C116.946 284.12 116.218 283.844 115.666 283.292C115.122 282.732 114.85 281.98 114.85 281.036C114.85 280.084 115.094 279.3 115.582 278.684C116.07 278.068 116.782 277.76 117.718 277.76C118.654 277.76 119.366 278.068 119.854 278.684C120.342 279.3 120.586 280.052 120.586 280.94ZM115.954 280.436H119.494C119.462 279.86 119.266 279.424 118.906 279.128C118.554 278.832 118.158 278.684 117.718 278.684C117.278 278.684 116.882 278.832 116.53 279.128C116.178 279.424 115.986 279.86 115.954 280.436Z" fill="#767676"/>
<rect x="44.5" y="320.5" width="321" height="44" rx="9.5" fill="#EDF9F9" stroke="#AAAAAA"/>
<path d="M56.836 337.704C57.596 336.904 58.608 336.504 59.872 336.504C61.136 336.504 62.148 336.904 62.908 337.704C63.668 338.504 64.06 339.54 64.084 340.812C64.06 342.084 63.668 343.12 62.908 343.92C62.148 344.72 61.136 345.12 59.872 345.12C58.608 345.12 57.596 344.72 56.836 343.92C56.076 343.12 55.684 342.084 55.66 340.812C55.684 339.54 56.076 338.504 56.836 337.704ZM56.752 340.812C56.752 341.764 57.028 342.552 57.58 343.176C58.14 343.792 58.9 344.1 59.86 344.1C60.828 344.1 61.592 343.792 62.152 343.176C62.712 342.552 62.992 341.764 62.992 340.812C62.992 339.86 62.712 339.076 62.152 338.46C61.592 337.836 60.828 337.524 59.86 337.524C58.9 337.524 58.14 337.836 57.58 338.46C57.028 339.076 56.752 339.86 56.752 340.812ZM70.8466 344.256C70.2706 344.832 69.5946 345.12 68.8186 345.12C68.0426 345.12 67.3706 344.824 66.8026 344.232H66.7666V347.76H65.6746V338.88H66.6346L66.7666 339.648H66.8026C67.3706 339.056 68.0426 338.76 68.8186 338.76C69.5946 338.76 70.2706 339.048 70.8466 339.624C71.4306 340.2 71.7226 340.972 71.7226 341.94C71.7226 342.908 71.4306 343.68 70.8466 344.256ZM68.6626 339.78C67.9426 339.78 67.3106 340.08 66.7666 340.68V343.2C67.3106 343.8 67.9426 344.1 68.6626 344.1C69.2546 344.1 69.7306 343.912 70.0906 343.536C70.4506 343.16 70.6306 342.628 70.6306 341.94C70.6306 341.252 70.4506 340.72 70.0906 340.344C69.7306 339.968 69.2546 339.78 68.6626 339.78ZM76.4729 339.816H74.7329V343.44C74.7329 343.776 74.8249 343.984 75.0089 344.064C75.1609 344.128 75.3569 344.16 75.5969 344.16C75.8369 344.16 76.1009 344.096 76.3889 343.968H76.4729V344.856C76.1369 345.032 75.7769 345.12 75.3929 345.12C74.2249 345.12 73.6409 344.592 73.6409 343.536V339.816H72.5009V339.744L74.7329 337.56V338.88H76.4729V339.816ZM77.8983 345V338.88H78.9903V345H77.8983ZM79.0383 336.408V337.584H77.8623V336.408H79.0383ZM80.5604 341.94C80.5604 340.988 80.8404 340.22 81.4004 339.636C81.9604 339.052 82.7004 338.76 83.6204 338.76C84.5484 338.76 85.2924 339.052 85.8524 339.636C86.4204 340.22 86.7044 340.988 86.7044 341.94C86.7044 342.892 86.4204 343.66 85.8524 344.244C85.2924 344.828 84.5484 345.12 83.6204 345.12C82.7004 345.12 81.9604 344.828 81.4004 344.244C80.8404 343.66 80.5604 342.892 80.5604 341.94ZM82.2404 343.584C82.6404 343.944 83.1044 344.124 83.6324 344.124C84.1604 344.124 84.6204 343.944 85.0124 343.584C85.4124 343.216 85.6124 342.668 85.6124 341.94C85.6124 341.204 85.4124 340.656 85.0124 340.296C84.6204 339.936 84.1604 339.756 83.6324 339.756C83.1044 339.756 82.6404 339.936 82.2404 340.296C81.8484 340.656 81.6524 341.204 81.6524 341.94C81.6524 342.668 81.8484 343.216 82.2404 343.584ZM91.5572 338.76C92.2212 338.76 92.7452 338.984 93.1292 339.432C93.5132 339.88 93.7052 340.44 93.7052 341.112V345H92.6132V341.232C92.6132 340.256 92.1732 339.768 91.2932 339.768C90.5972 339.768 89.9412 340.152 89.3252 340.92V345H88.2332V338.88H89.1932L89.3252 339.648V339.828H89.3492C89.9972 339.116 90.7332 338.76 91.5572 338.76ZM95.6537 339.216C96.3497 338.912 97.0937 338.76 97.8857 338.76C98.6857 338.76 99.2977 338.992 99.7217 339.456C100.146 339.92 100.358 340.476 100.358 341.124V345H99.3977L99.2657 344.232H99.2297C98.6537 344.824 97.9137 345.12 97.0097 345.12C96.4657 345.12 96.0017 344.956 95.6177 344.628C95.2417 344.3 95.0537 343.852 95.0537 343.284C95.0537 342.716 95.2857 342.256 95.7497 341.904C96.2217 341.552 96.9097 341.376 97.8137 341.376H99.2657V341.28C99.2657 340.752 99.1337 340.372 98.8697 340.14C98.6137 339.908 98.1657 339.792 97.5257 339.792C96.8857 339.792 96.2857 339.928 95.7257 340.2H95.6537V339.216ZM99.2657 343.26V342.252H97.9577C96.7497 342.252 96.1457 342.572 96.1457 343.212C96.1457 343.844 96.5697 344.16 97.4177 344.16C97.7697 344.16 98.1097 344.076 98.4377 343.908C98.7657 343.732 99.0417 343.516 99.2657 343.26ZM103.39 336.24V345H102.298V336.24H103.39ZM111.663 336.624C112.351 336.624 112.971 336.748 113.523 336.996C114.083 337.236 114.531 337.56 114.867 337.968C115.555 338.792 115.899 339.74 115.899 340.812C115.899 341.668 115.675 342.448 115.227 343.152C114.739 343.928 114.063 344.464 113.199 344.76C112.727 344.92 112.215 345 111.663 345H108.711V336.624H111.663ZM111.531 343.98C112.523 343.98 113.319 343.688 113.919 343.104C114.519 342.52 114.819 341.756 114.819 340.812C114.819 339.868 114.519 339.104 113.919 338.52C113.319 337.936 112.523 337.644 111.531 337.644H109.803V343.98H111.531ZM122.871 341.94V342.324H118.239C118.303 342.884 118.511 343.32 118.863 343.632C119.215 343.944 119.747 344.1 120.459 344.1C121.179 344.1 121.843 343.9 122.451 343.5H122.511V344.556C121.839 344.932 121.047 345.12 120.135 345.12C119.231 345.12 118.503 344.844 117.951 344.292C117.407 343.732 117.135 342.98 117.135 342.036C117.135 341.084 117.379 340.3 117.867 339.684C118.355 339.068 119.067 338.76 120.003 338.76C120.939 338.76 121.651 339.068 122.139 339.684C122.627 340.3 122.871 341.052 122.871 341.94ZM118.239 341.436H121.779C121.747 340.86 121.551 340.424 121.191 340.128C120.839 339.832 120.443 339.684 120.003 339.684C119.563 339.684 119.167 339.832 118.815 340.128C118.463 340.424 118.271 340.86 118.239 341.436ZM126.559 339.756C126.047 339.756 125.667 339.836 125.419 339.996C125.179 340.148 125.059 340.344 125.059 340.584C125.059 340.816 125.183 340.996 125.431 341.124C125.679 341.252 125.979 341.356 126.331 341.436C126.691 341.508 127.047 341.6 127.399 341.712C127.751 341.824 128.051 342.016 128.299 342.288C128.547 342.56 128.671 342.932 128.671 343.404C128.671 343.876 128.467 344.28 128.059 344.616C127.659 344.952 127.059 345.12 126.259 345.12C125.467 345.12 124.743 344.94 124.087 344.58V343.536H124.147C124.795 343.92 125.507 344.112 126.283 344.112C127.171 344.112 127.615 343.828 127.615 343.26C127.615 343.076 127.491 342.928 127.243 342.816C126.995 342.696 126.695 342.596 126.343 342.516C125.991 342.436 125.639 342.34 125.287 342.228C124.935 342.116 124.635 341.928 124.387 341.664C124.139 341.4 124.015 341.064 124.015 340.656C124.015 340.096 124.215 339.64 124.615 339.288C125.023 338.936 125.575 338.76 126.271 338.76C126.967 338.76 127.615 338.872 128.215 339.096V340.092H128.131C127.595 339.868 127.071 339.756 126.559 339.756ZM134.94 340.38C134.348 339.98 133.704 339.78 133.008 339.78C132.32 339.78 131.78 339.98 131.388 340.38C130.996 340.772 130.8 341.292 130.8 341.94C130.8 342.588 130.996 343.112 131.388 343.512C131.78 343.904 132.32 344.1 133.008 344.1C133.704 344.1 134.348 343.9 134.94 343.5H134.988V344.532C134.324 344.924 133.632 345.12 132.912 345.12C132.024 345.12 131.268 344.832 130.644 344.256C130.02 343.68 129.708 342.908 129.708 341.94C129.708 340.972 130.02 340.2 130.644 339.624C131.268 339.048 132.024 338.76 132.912 338.76C133.632 338.76 134.324 338.956 134.988 339.348V340.38H134.94ZM139.91 338.76H140.006V339.804H139.91C139.438 339.804 138.998 339.896 138.59 340.08C138.182 340.264 137.862 340.52 137.63 340.848V345H136.538V338.88H137.498L137.63 339.648V339.828H137.654C138.23 339.116 138.982 338.76 139.91 338.76ZM141.226 345V338.88H142.318V345H141.226ZM142.366 336.408V337.584H141.19V336.408H142.366ZM149.433 344.256C148.857 344.832 148.181 345.12 147.405 345.12C146.629 345.12 145.957 344.824 145.389 344.232H145.353V347.76H144.261V338.88H145.221L145.353 339.648H145.389C145.957 339.056 146.629 338.76 147.405 338.76C148.181 338.76 148.857 339.048 149.433 339.624C150.017 340.2 150.309 340.972 150.309 341.94C150.309 342.908 150.017 343.68 149.433 344.256ZM147.249 339.78C146.529 339.78 145.897 340.08 145.353 340.68V343.2C145.897 343.8 146.529 344.1 147.249 344.1C147.841 344.1 148.317 343.912 148.677 343.536C149.037 343.16 149.217 342.628 149.217 341.94C149.217 341.252 149.037 340.72 148.677 340.344C148.317 339.968 147.841 339.78 147.249 339.78ZM155.059 339.816H153.319V343.44C153.319 343.776 153.411 343.984 153.595 344.064C153.747 344.128 153.943 344.16 154.183 344.16C154.423 344.16 154.687 344.096 154.975 343.968H155.059V344.856C154.723 345.032 154.363 345.12 153.979 345.12C152.811 345.12 152.227 344.592 152.227 343.536V339.816H151.087V339.744L153.319 337.56V338.88H155.059V339.816ZM156.484 345V338.88H157.576V345H156.484ZM157.624 336.408V337.584H156.448V336.408H157.624ZM159.146 341.94C159.146 340.988 159.426 340.22 159.986 339.636C160.546 339.052 161.286 338.76 162.206 338.76C163.134 338.76 163.878 339.052 164.438 339.636C165.006 340.22 165.29 340.988 165.29 341.94C165.29 342.892 165.006 343.66 164.438 344.244C163.878 344.828 163.134 345.12 162.206 345.12C161.286 345.12 160.546 344.828 159.986 344.244C159.426 343.66 159.146 342.892 159.146 341.94ZM160.826 343.584C161.226 343.944 161.69 344.124 162.218 344.124C162.746 344.124 163.206 343.944 163.598 343.584C163.998 343.216 164.198 342.668 164.198 341.94C164.198 341.204 163.998 340.656 163.598 340.296C163.206 339.936 162.746 339.756 162.218 339.756C161.69 339.756 161.226 339.936 160.826 340.296C160.434 340.656 160.238 341.204 160.238 341.94C160.238 342.668 160.434 343.216 160.826 343.584ZM170.143 338.76C170.807 338.76 171.331 338.984 171.715 339.432C172.099 339.88 172.291 340.44 172.291 341.112V345H171.199V341.232C171.199 340.256 170.759 339.768 169.879 339.768C169.183 339.768 168.527 340.152 167.911 340.92V345H166.819V338.88H167.779L167.911 339.648V339.828H167.935C168.583 339.116 169.319 338.76 170.143 338.76Z" fill="#767676"/>
<circle cx="102" cy="432" r="15.5" stroke="#FCE4EC" stroke-width="5"/>
<circle cx="257" cy="432" r="15.5" stroke="#C8E6C9" stroke-width="5"/>
<circle cx="153" cy="432" r="15.5" stroke="#F3E5F5" stroke-width="5"/>
<circle cx="205" cy="432" r="15.5" stroke="#FFCC80" stroke-width="5"/>
<circle cx="309" cy="432" r="15.5" stroke="#FFFF8D" stroke-width="5"/>
<g filter="url(#filter4_d)">
<rect x="137" y="595" width="136" height="45" rx="10" fill="#EDF9F9"/>
</g>
<path d="M171.116 622L170.216 619.852H166.148L165.248 622H164.06L167.612 613.624H168.752L172.304 622H171.116ZM166.58 618.796V618.856H169.784V618.796L168.2 614.968H168.176L166.58 618.796ZM176.483 613.624C177.171 613.624 177.791 613.748 178.343 613.996C178.903 614.236 179.351 614.56 179.687 614.968C180.375 615.792 180.719 616.74 180.719 617.812C180.719 618.668 180.495 619.448 180.047 620.152C179.559 620.928 178.883 621.464 178.019 621.76C177.547 621.92 177.035 622 176.483 622H173.531V613.624H176.483ZM176.351 620.98C177.343 620.98 178.139 620.688 178.739 620.104C179.339 619.52 179.639 618.756 179.639 617.812C179.639 616.868 179.339 616.104 178.739 615.52C178.139 614.936 177.343 614.644 176.351 614.644H174.623V620.98H176.351ZM185.483 613.624C186.171 613.624 186.791 613.748 187.343 613.996C187.903 614.236 188.351 614.56 188.687 614.968C189.375 615.792 189.719 616.74 189.719 617.812C189.719 618.668 189.495 619.448 189.047 620.152C188.559 620.928 187.883 621.464 187.019 621.76C186.547 621.92 186.035 622 185.483 622H182.531V613.624H185.483ZM185.351 620.98C186.343 620.98 187.139 620.688 187.739 620.104C188.339 619.52 188.639 618.756 188.639 617.812C188.639 616.868 188.339 616.104 187.739 615.52C187.139 614.936 186.343 614.644 185.351 614.644H183.623V620.98H185.351ZM200.588 613.624V614.644H197.696V622H196.604V614.644H193.712V613.624H200.588ZM202.656 614.704C203.416 613.904 204.428 613.504 205.692 613.504C206.956 613.504 207.968 613.904 208.728 614.704C209.488 615.504 209.88 616.54 209.904 617.812C209.88 619.084 209.488 620.12 208.728 620.92C207.968 621.72 206.956 622.12 205.692 622.12C204.428 622.12 203.416 621.72 202.656 620.92C201.896 620.12 201.504 619.084 201.48 617.812C201.504 616.54 201.896 615.504 202.656 614.704ZM202.572 617.812C202.572 618.764 202.848 619.552 203.4 620.176C203.96 620.792 204.72 621.1 205.68 621.1C206.648 621.1 207.412 620.792 207.972 620.176C208.532 619.552 208.812 618.764 208.812 617.812C208.812 616.86 208.532 616.076 207.972 615.46C207.412 614.836 206.648 614.524 205.68 614.524C204.72 614.524 203.96 614.836 203.4 615.46C202.848 616.076 202.572 616.86 202.572 617.812ZM217.78 613.624C218.468 613.624 219.088 613.748 219.64 613.996C220.2 614.236 220.648 614.56 220.984 614.968C221.672 615.792 222.016 616.74 222.016 617.812C222.016 618.668 221.792 619.448 221.344 620.152C220.856 620.928 220.18 621.464 219.316 621.76C218.844 621.92 218.332 622 217.78 622H214.828V613.624H217.78ZM217.648 620.98C218.64 620.98 219.436 620.688 220.036 620.104C220.636 619.52 220.936 618.756 220.936 617.812C220.936 616.868 220.636 616.104 220.036 615.52C219.436 614.936 218.64 614.644 217.648 614.644H215.92V620.98H217.648ZM229.636 614.644H224.92V617.296H229.204V618.316H224.92V620.98H229.636V622H223.828V613.624H229.636V614.644ZM237.972 615.364C237.148 614.82 236.24 614.548 235.248 614.548C234.256 614.548 233.48 614.852 232.92 615.46C232.36 616.068 232.08 616.852 232.08 617.812C232.08 618.772 232.36 619.556 232.92 620.164C233.48 620.772 234.256 621.076 235.248 621.076C236.24 621.076 237.148 620.804 237.972 620.26H238.032V621.34C237.168 621.86 236.22 622.12 235.188 622.12C233.964 622.12 232.956 621.732 232.164 620.956C231.38 620.172 230.988 619.124 230.988 617.812C230.988 616.5 231.38 615.456 232.164 614.68C232.956 613.896 233.964 613.504 235.188 613.504C236.22 613.504 237.168 613.764 238.032 614.284V615.364H237.972ZM243.039 617.152L246.771 622H245.439L242.343 617.92H242.283L240.951 619.3V622H239.859V613.624H240.951V617.908H240.987L245.031 613.624H246.459L243.039 617.152Z" fill="#767676"/>
<g filter="url(#filter5_d)">
<path d="M113.379 221.65H99.9761L96.9658 230H92.6152L104.832 198.008H108.523L120.762 230H116.434L113.379 221.65ZM101.25 218.179H112.127L106.678 203.215L101.25 218.179ZM123.443 217.915C123.443 214.268 124.307 211.338 126.036 209.126C127.764 206.899 130.027 205.786 132.825 205.786C135.608 205.786 137.813 206.738 139.439 208.643V196.25H143.504V230H139.769L139.571 227.451C137.945 229.443 135.682 230.439 132.781 230.439C130.027 230.439 127.779 229.312 126.036 227.056C124.307 224.8 123.443 221.855 123.443 218.223V217.915ZM127.508 218.376C127.508 221.072 128.064 223.181 129.178 224.705C130.291 226.228 131.829 226.99 133.792 226.99C136.37 226.99 138.252 225.833 139.439 223.518V212.598C138.223 210.356 136.355 209.236 133.836 209.236C131.844 209.236 130.291 210.005 129.178 211.543C128.064 213.081 127.508 215.359 127.508 218.376ZM148.843 217.915C148.843 214.268 149.708 211.338 151.436 209.126C153.165 206.899 155.428 205.786 158.226 205.786C161.009 205.786 163.213 206.738 164.839 208.643V196.25H168.904V230H165.169L164.971 227.451C163.345 229.443 161.082 230.439 158.182 230.439C155.428 230.439 153.179 229.312 151.436 227.056C149.708 224.8 148.843 221.855 148.843 218.223V217.915ZM152.908 218.376C152.908 221.072 153.465 223.181 154.578 224.705C155.691 226.228 157.229 226.99 159.192 226.99C161.771 226.99 163.653 225.833 164.839 223.518V212.598C163.624 210.356 161.756 209.236 159.236 209.236C157.244 209.236 155.691 210.005 154.578 211.543C153.465 213.081 152.908 215.359 152.908 218.376ZM201.072 230C200.838 229.531 200.647 228.696 200.501 227.495C198.611 229.458 196.355 230.439 193.733 230.439C191.39 230.439 189.463 229.78 187.955 228.462C186.46 227.129 185.713 225.444 185.713 223.408C185.713 220.933 186.651 219.014 188.526 217.651C190.416 216.274 193.067 215.586 196.48 215.586H200.435V213.718C200.435 212.297 200.01 211.169 199.161 210.334C198.311 209.485 197.059 209.06 195.403 209.06C193.953 209.06 192.737 209.426 191.756 210.159C190.774 210.891 190.284 211.777 190.284 212.817H186.197C186.197 211.631 186.614 210.488 187.449 209.39C188.299 208.276 189.441 207.397 190.877 206.753C192.327 206.108 193.917 205.786 195.645 205.786C198.384 205.786 200.53 206.475 202.083 207.852C203.636 209.214 204.441 211.096 204.5 213.499V224.441C204.5 226.624 204.778 228.359 205.335 229.648V230H201.072ZM194.327 226.902C195.601 226.902 196.81 226.572 197.952 225.913C199.095 225.254 199.922 224.397 200.435 223.342V218.464H197.249C192.269 218.464 189.778 219.922 189.778 222.837C189.778 224.111 190.203 225.107 191.053 225.825C191.902 226.543 192.994 226.902 194.327 226.902ZM222.671 230V198.008H231.702C234.485 198.008 236.946 198.623 239.085 199.854C241.224 201.084 242.872 202.834 244.029 205.105C245.201 207.375 245.794 209.983 245.809 212.927V214.971C245.809 217.988 245.223 220.632 244.051 222.903C242.894 225.173 241.231 226.917 239.063 228.132C236.91 229.348 234.397 229.971 231.526 230H222.671ZM226.89 201.479V226.55H231.329C234.581 226.55 237.107 225.54 238.909 223.518C240.726 221.497 241.634 218.618 241.634 214.883V213.015C241.634 209.382 240.777 206.562 239.063 204.556C237.364 202.534 234.947 201.509 231.812 201.479H226.89ZM261.431 230.439C258.208 230.439 255.586 229.385 253.565 227.275C251.543 225.151 250.533 222.317 250.533 218.772V218.025C250.533 215.667 250.979 213.564 251.873 211.719C252.781 209.858 254.041 208.408 255.652 207.368C257.278 206.313 259.036 205.786 260.926 205.786C264.017 205.786 266.419 206.804 268.133 208.84C269.847 210.876 270.704 213.792 270.704 217.585V219.277H254.598C254.656 221.621 255.337 223.518 256.641 224.968C257.959 226.404 259.629 227.122 261.651 227.122C263.086 227.122 264.302 226.829 265.298 226.243C266.294 225.657 267.166 224.88 267.913 223.914L270.396 225.847C268.404 228.909 265.416 230.439 261.431 230.439ZM260.926 209.126C259.285 209.126 257.908 209.727 256.795 210.928C255.682 212.114 254.993 213.784 254.729 215.938H266.639V215.63C266.521 213.564 265.965 211.968 264.969 210.84C263.973 209.697 262.625 209.126 260.926 209.126ZM284.964 227.122C286.414 227.122 287.681 226.682 288.765 225.803C289.849 224.924 290.45 223.826 290.567 222.507H294.412C294.339 223.87 293.87 225.166 293.006 226.396C292.142 227.627 290.984 228.608 289.534 229.341C288.099 230.073 286.575 230.439 284.964 230.439C281.727 230.439 279.148 229.363 277.229 227.209C275.325 225.042 274.373 222.083 274.373 218.333V217.651C274.373 215.337 274.798 213.279 275.647 211.477C276.497 209.675 277.713 208.276 279.295 207.28C280.892 206.284 282.774 205.786 284.942 205.786C287.608 205.786 289.82 206.584 291.578 208.181C293.35 209.778 294.295 211.851 294.412 214.399H290.567C290.45 212.861 289.864 211.602 288.809 210.62C287.769 209.624 286.48 209.126 284.942 209.126C282.876 209.126 281.272 209.873 280.13 211.367C279.002 212.847 278.438 214.993 278.438 217.805V218.574C278.438 221.313 279.002 223.423 280.13 224.902C281.258 226.382 282.869 227.122 284.964 227.122ZM305.618 218.992L303.069 221.65V230H299.004V196.25H303.069V216.663L305.245 214.048L312.649 206.226H317.593L308.343 216.157L318.67 230H313.902L305.618 218.992Z" fill="#AAAAAA"/>
</g>
</g>
<defs>
<filter id="filter0_d" x="-15" y="-9" width="430" height="71" filterUnits="userSpaceOnUse" color-interpolation-filters="sRGB">
<feFlood flood-opacity="0" result="BackgroundImageFix"/>
<feColorMatrix in="SourceAlpha" type="matrix" values="0 0 0 0 0 0 0 0 0 0 0 0 0 0 0 0 0 0 127 0"/>
<feOffset dy="2"/>
<feGaussianBlur stdDeviation="2"/>
<feColorMatrix type="matrix" values="0 0 0 0 0 0 0 0 0 0 0 0 0 0 0 0 0 0 0.25 0"/>
<feBlend mode="normal" in2="BackgroundImageFix" result="effect1_dropShadow"/>
<feBlend mode="normal" in="SourceGraphic" in2="effect1_dropShadow" result="shape"/>
</filter>
<filter id="filter1_d" x="148.956" y="110.676" width="58.1423" height="61.61" filterUnits="userSpaceOnUse" color-interpolation-filters="sRGB">
<feFlood flood-opacity="0" result="BackgroundImageFix"/>
<feColorMatrix in="SourceAlpha" type="matrix" values="0 0 0 0 0 0 0 0 0 0 0 0 0 0 0 0 0 0 127 0"/>
<feOffset dy="4"/>
<feGaussianBlur stdDeviation="2"/>
<feColorMatrix type="matrix" values="0 0 0 0 0 0 0 0 0 0 0 0 0 0 0 0 0 0 0.25 0"/>
<feBlend mode="normal" in2="BackgroundImageFix" result="effect1_dropShadow"/>
<feBlend mode="normal" in="SourceGraphic" in2="effect1_dropShadow" result="shape"/>
</filter>
<filter id="filter2_d" x="203.902" y="110.676" width="58.1423" height="61.6101" filterUnits="userSpaceOnUse" color-interpolation-filters="sRGB">
<feFlood flood-opacity="0" result="BackgroundImageFix"/>
<feColorMatrix in="SourceAlpha" type="matrix" values="0 0 0 0 0 0 0 0 0 0 0 0 0 0 0 0 0 0 127 0"/>
<feOffset dy="4"/>
<feGaussianBlur stdDeviation="2"/>
<feColorMatrix type="matrix" values="0 0 0 0 0 0 0 0 0 0 0 0 0 0 0 0 0 0 0.25 0"/>
<feBlend mode="normal" in2="BackgroundImageFix" result="effect1_dropShadow"/>
<feBlend mode="normal" in="SourceGraphic" in2="effect1_dropShadow" result="shape"/>
</filter>
<filter id="filter3_d" x="179.624" y="118.84" width="50.5113" height="58.1098" filterUnits="userSpaceOnUse" color-interpolation-filters="sRGB">
<feFlood flood-opacity="0" result="BackgroundImageFix"/>
<feColorMatrix in="SourceAlpha" type="matrix" values="0 0 0 0 0 0 0 0 0 0 0 0 0 0 0 0 0 0 127 0"/>
<feOffset dy="4"/>
<feGaussianBlur stdDeviation="2"/>
<feColorMatrix type="matrix" values="0 0 0 0 0 0 0 0 0 0 0 0 0 0 0 0 0 0 0.25 0"/>
<feBlend mode="normal" in2="BackgroundImageFix" result="effect1_dropShadow"/>
<feBlend mode="normal" in="SourceGraphic" in2="effect1_dropShadow" result="shape"/>
</filter>
<filter id="filter4_d" x="133" y="593" width="144" height="53" filterUnits="userSpaceOnUse" color-interpolation-filters="sRGB">
<feFlood flood-opacity="0" result="BackgroundImageFix"/>
<feColorMatrix in="SourceAlpha" type="matrix" values="0 0 0 0 0 0 0 0 0 0 0 0 0 0 0 0 0 0 127 0"/>
<feOffset dy="2"/>
<feGaussianBlur stdDeviation="2"/>
<feColorMatrix type="matrix" values="0 0 0 0 0 0 0 0 0 0 0 0 0 0 0 0 0 0 0.25 0"/>
<feBlend mode="normal" in2="BackgroundImageFix" result="effect1_dropShadow"/>
<feBlend mode="normal" in="SourceGraphic" in2="effect1_dropShadow" result="shape"/>
</filter>
<filter id="filter5_d" x="88.6152" y="194.25" width="234.055" height="42.1895" filterUnits="userSpaceOnUse" color-interpolation-filters="sRGB">
<feFlood flood-opacity="0" result="BackgroundImageFix"/>
<feColorMatrix in="SourceAlpha" type="matrix" values="0 0 0 0 0 0 0 0 0 0 0 0 0 0 0 0 0 0 127 0"/>
<feOffset dy="2"/>
<feGaussianBlur stdDeviation="2"/>
<feColorMatrix type="matrix" values="0 0 0 0 0 0 0 0 0 0 0 0 0 0 0 0 0 0 0.25 0"/>
<feBlend mode="normal" in2="BackgroundImageFix" result="effect1_dropShadow"/>
<feBlend mode="normal" in="SourceGraphic" in2="effect1_dropShadow" result="shape"/>
</filter>
<linearGradient id="paint0_linear" x1="198" y1="0" x2="198" y2="731" gradientUnits="userSpaceOnUse">
<stop stop-color="white" stop-opacity="0.65"/>
<stop offset="1" stop-color="#89DAD5"/>
</linearGradient>
<linearGradient id="paint1_linear" x1="175.368" y1="126.703" x2="181.178" y2="143.793" gradientUnits="userSpaceOnUse">
<stop stop-color="#89DAD5"/>
<stop offset="1" stop-color="#89DAD5" stop-opacity="0"/>
</linearGradient>
<linearGradient id="paint2_linear" x1="236.848" y1="127.623" x2="231.344" y2="143.811" gradientUnits="userSpaceOnUse">
<stop stop-color="#89DAD5"/>
<stop offset="1" stop-color="#89DAD5" stop-opacity="0"/>
</linearGradient>
<linearGradient id="paint3_linear" x1="206.439" y1="130.515" x2="205.832" y2="146.796" gradientUnits="userSpaceOnUse">
<stop stop-color="#89DAD5"/>
<stop offset="1" stop-color="#89DAD5" stop-opacity="0"/>
</linearGradient>
<clipPath id="clip0">
<rect width="411" height="731" fill="white"/>
</clipPath>
<clipPath id="clip1">
<rect width="21.7567" height="20.6488" fill="white" transform="matrix(0.946786 -0.321862 0.363091 0.931754 164.327 129.548)"/>
</clipPath>
<clipPath id="clip2">
<rect width="21.6392" height="20.5373" fill="white" transform="matrix(0.946786 0.321862 -0.363091 0.931754 227.225 122.546)"/>
</clipPath>
</defs>
</svg>
