<svg width="72" height="80" viewBox="0 0 72 80" fill="none" xmlns="http://www.w3.org/2000/svg">
<path d="M54.827 2.90874C53.4291 1.26148 53.9295 1.76316 55.3838 3.34493C61.3403 9.82404 59.1125 24.7715 52.5817 30.6755C49.252 33.6856 45.2666 37.2633 40.273 41.4209C35.9732 45.0009 29.5432 43.9695 26.4283 39.3275C23.3131 34.685 24.8071 28.3686 29.5744 25.4341C40.7861 18.5326 58.192 6.8746 54.827 2.90874Z" fill="url(#paint0_linear)"/>
<path d="M21.4496 4.58807H21.4495C15.6089 4.58807 10.8741 9.3081 10.8741 15.1305V53.0834C10.8741 58.9059 15.6089 63.6259 21.4495 63.6259H21.4496C27.2902 63.6259 32.025 58.9059 32.025 53.0834V15.1305C32.025 9.3081 27.2902 4.58807 21.4496 4.58807Z" fill="url(#paint1_linear)"/>
<mask id="mask0" mask-type="alpha" maskUnits="userSpaceOnUse" x="7" y="24" width="64" height="38">
<path d="M69.1508 56.4054C71.133 54.8267 69.9773 55.7268 67.6151 57.6038C61.3234 62.6046 47.2071 62.7157 40.9467 57.6767L21.1661 41.7547C17.6611 38.9335 12.4122 40.3904 10.8741 44.6113C7.66968 42.1551 5.41497 38.0128 9.01717 30.7738C9.72828 29.3448 10.8745 28.1778 12.2385 27.3437C13.0025 26.8766 13.7524 26.4395 14.4853 26.0266C21.0489 22.3287 32.0155 24.1713 36.8006 29.9792C49.0778 44.881 64.4886 60.1181 69.1508 56.4054Z" fill="#C4C4C4"/>
</mask>
<g mask="url(#mask0)">
<path d="M29.1264 -15.489L-11.4309 24.9421C-15.6948 29.1927 -15.6948 36.0843 -11.4309 40.3349L32.5481 84.1771C36.812 88.4277 43.7251 88.4277 47.989 84.1771L88.5464 43.746C92.8103 39.4954 92.8103 32.6038 88.5464 28.3532L44.5673 -15.489C40.3034 -19.7396 33.3903 -19.7396 29.1264 -15.489Z" fill="white"/>
<path d="M31.9844 3.87224L7.67619 28.1047C3.41231 32.3554 3.41231 39.2469 7.67619 43.4975L36.6626 72.3937C40.9264 76.6443 47.8396 76.6443 52.1034 72.3937L76.4116 48.1612C80.6755 43.9106 80.6755 37.019 76.4116 32.7684L47.4252 3.87224C43.1614 -0.378362 36.2482 -0.378362 31.9844 3.87224Z" fill="url(#paint2_linear)"/>
</g>
<defs>
<linearGradient id="paint0_linear" x1="63.655" y1="14.5012" x2="26.4996" y2="39.4338" gradientUnits="userSpaceOnUse">
<stop stop-color="#EAE4FF"/>
<stop offset="1" stop-color="#CFC2FF"/>
</linearGradient>
<linearGradient id="paint1_linear" x1="21.4496" y1="4.58807" x2="21.4496" y2="63.6261" gradientUnits="userSpaceOnUse">
<stop stop-color="#EEEAFF"/>
<stop offset="1" stop-color="#C6B7FF"/>
</linearGradient>
<linearGradient id="paint2_linear" x1="19.8303" y1="15.9885" x2="64.1191" y2="60.4157" gradientUnits="userSpaceOnUse">
<stop stop-color="#CEC1FF"/>
<stop offset="1" stop-color="#ECE6FF"/>
</linearGradient>
</defs>
</svg>
