<svg width="85" height="80" viewBox="0 0 85 80" fill="none" xmlns="http://www.w3.org/2000/svg">
<g filter="url(#filter0_d)">
<path fill-rule="evenodd" clip-rule="evenodd" d="M63.7115 57.5538V59.5385C64.7897 59.5385 65.7227 59.1457 66.5105 58.3601C67.2984 57.5745 67.6923 56.6442 67.6923 55.5692V3.96923C67.6923 2.85288 67.2984 1.91226 66.5105 1.14736C65.7227 0.382452 64.7897 0 63.7115 0V1.98462C63.7115 2.52212 63.5146 2.98726 63.1206 3.38005C62.7267 3.77284 62.2602 3.96923 61.7212 3.96923H57.7404C57.2013 3.96923 56.7348 3.77284 56.3409 3.38005C55.947 2.98726 55.75 2.52212 55.75 1.98462V0L15.9423 0V1.98462C15.9423 2.52212 15.7453 2.98726 15.3514 3.38005C14.9575 3.77284 14.491 3.96923 13.9519 3.96923H9.97115C9.43209 3.96923 8.9656 3.77284 8.57166 3.38005C8.17773 2.98726 7.98077 2.52212 7.98077 1.98462V0C6.86118 0 5.91782 0.382452 5.15069 1.14736C4.38356 1.91226 4 2.85288 4 3.96923L4 55.5692C4 56.6442 4.38356 57.5745 5.15069 58.3601C5.91782 59.1457 6.86118 59.5385 7.98077 59.5385V57.5538C7.98077 57.0163 8.17773 56.5512 8.57166 56.1584C8.9656 55.7656 9.43209 55.5692 9.97115 55.5692H13.9519C14.491 55.5692 14.9575 55.7656 15.3514 56.1584C15.7453 56.5512 15.9423 57.0163 15.9423 57.5538V59.5385H55.75V57.5538C55.75 57.0163 55.947 56.5512 56.3409 56.1584C56.7348 55.7656 57.2013 55.5692 57.7404 55.5692H61.7212C62.2602 55.5692 62.7267 55.7656 63.1206 56.1584C63.5146 56.5512 63.7115 57.0163 63.7115 57.5538ZM15.3514 8.52764C15.7453 8.92043 15.9423 9.38558 15.9423 9.92308V13.8923C15.9423 14.4298 15.7453 14.8949 15.3514 15.2877C14.9575 15.6805 14.491 15.8769 13.9519 15.8769H9.97115C9.43209 15.8769 8.9656 15.6805 8.57166 15.2877C8.17773 14.8949 7.98077 14.4298 7.98077 13.8923V9.92308C7.98077 9.38558 8.17773 8.92043 8.57166 8.52764C8.9656 8.13486 9.43209 7.93846 9.97115 7.93846H13.9519C14.491 7.93846 14.9575 8.13486 15.3514 8.52764ZM15.3514 20.4353C15.7453 20.8281 15.9423 21.2933 15.9423 21.8308V25.8C15.9423 26.3375 15.7453 26.8026 15.3514 27.1954C14.9575 27.5882 14.491 27.7846 13.9519 27.7846H9.97115C9.43209 27.7846 8.9656 27.5882 8.57166 27.1954C8.17773 26.8026 7.98077 26.3375 7.98077 25.8V21.8308C7.98077 21.2933 8.17773 20.8281 8.57166 20.4353C8.9656 20.0425 9.43209 19.8462 9.97115 19.8462H13.9519C14.491 19.8462 14.9575 20.0425 15.3514 20.4353ZM15.3514 32.343C15.7453 32.7358 15.9423 33.201 15.9423 33.7385V37.7077C15.9423 38.2452 15.7453 38.7103 15.3514 39.1031C14.9575 39.4959 14.491 39.6923 13.9519 39.6923H9.97115C9.43209 39.6923 8.9656 39.4959 8.57166 39.1031C8.17773 38.7103 7.98077 38.2452 7.98077 37.7077V33.7385C7.98077 33.201 8.17773 32.7358 8.57166 32.343C8.9656 31.9502 9.43209 31.7538 9.97115 31.7538H13.9519C14.491 31.7538 14.9575 31.9502 15.3514 32.343ZM15.3514 44.2507C15.7453 44.6435 15.9423 45.1087 15.9423 45.6462V49.6154C15.9423 50.1529 15.7453 50.618 15.3514 51.0108C14.9575 51.4036 14.491 51.6 13.9519 51.6H9.97115C9.43209 51.6 8.9656 51.4036 8.57166 51.0108C8.17773 50.618 7.98077 50.1529 7.98077 49.6154L7.98077 45.6462C7.98077 45.1087 8.17773 44.6435 8.57166 44.2507C8.9656 43.8579 9.43209 43.6615 9.97115 43.6615H13.9519C14.491 43.6615 14.9575 43.8579 15.3514 44.2507ZM63.1206 8.52764C63.5146 8.92043 63.7115 9.38558 63.7115 9.92308V13.8923C63.7115 14.4298 63.5146 14.8949 63.1206 15.2877C62.7267 15.6805 62.2602 15.8769 61.7212 15.8769H57.7404C57.2013 15.8769 56.7348 15.6805 56.3409 15.2877C55.947 14.8949 55.75 14.4298 55.75 13.8923V9.92308C55.75 9.38558 55.947 8.92043 56.3409 8.52764C56.7348 8.13486 57.2013 7.93846 57.7404 7.93846H61.7212C62.2602 7.93846 62.7267 8.13486 63.1206 8.52764ZM63.1206 20.4353C63.5146 20.8281 63.7115 21.2933 63.7115 21.8308V25.8C63.7115 26.3375 63.5146 26.8026 63.1206 27.1954C62.7267 27.5882 62.2602 27.7846 61.7212 27.7846H57.7404C57.2013 27.7846 56.7348 27.5882 56.3409 27.1954C55.947 26.8026 55.75 26.3375 55.75 25.8V21.8308C55.75 21.2933 55.947 20.8281 56.3409 20.4353C56.7348 20.0425 57.2013 19.8462 57.7404 19.8462H61.7212C62.2602 19.8462 62.7267 20.0425 63.1206 20.4353ZM63.1206 32.343C63.5146 32.7358 63.7115 33.201 63.7115 33.7385V37.7077C63.7115 38.01 63.6492 38.2894 63.5246 38.5459C63.9827 39.9217 64.2308 41.3934 64.2308 42.9231C64.2308 44.2297 64.0498 45.494 63.7115 46.6923V49.6154C63.7115 50.1529 63.5146 50.618 63.1206 51.0108C62.7267 51.4036 62.2602 51.6 61.7212 51.6H61.1754C58.6374 54.7522 54.7466 56.7692 50.3846 56.7692C42.7376 56.7692 36.5385 50.5701 36.5385 42.9231C36.5385 35.2761 42.7376 29.0769 50.3846 29.0769C53.4467 29.0769 56.2766 30.0709 58.5694 31.7538H61.7212C62.2602 31.7538 62.7267 31.9502 63.1206 32.343Z" fill="url(#paint0_linear)"/>
<path d="M56.3409 32.343C56.7348 31.9502 57.2013 31.7538 57.7404 31.7538H58.5694C56.2766 30.0709 53.4467 29.0769 50.3846 29.0769C42.7376 29.0769 36.5385 35.2761 36.5385 42.9231C36.5385 50.5701 42.7376 56.7692 50.3846 56.7692C54.7466 56.7692 58.6374 54.7522 61.1754 51.6H57.7404C57.2013 51.6 56.7348 51.4036 56.3409 51.0108C55.947 50.618 55.75 50.1529 55.75 49.6154V45.6462C55.75 45.1087 55.947 44.6435 56.3409 44.2507C56.7348 43.8579 57.2013 43.6615 57.7404 43.6615H61.7212C62.2602 43.6615 62.7267 43.8579 63.1206 44.2507C63.5146 44.6435 63.7115 45.1087 63.7115 45.6462V46.6923C64.0498 45.494 64.2308 44.2297 64.2308 42.9231C64.2308 41.3934 63.9827 39.9217 63.5246 38.5459C63.4277 38.7455 63.293 38.9312 63.1206 39.1031C62.7267 39.4959 62.2602 39.6923 61.7212 39.6923H57.7404C57.2013 39.6923 56.7348 39.4959 56.3409 39.1031C55.947 38.7103 55.75 38.2452 55.75 37.7077V33.7385C55.75 33.201 55.947 32.7358 56.3409 32.343Z" fill="url(#paint1_linear)"/>
</g>
<circle cx="50.3845" cy="42.2307" r="13.1538" fill="#181818" fill-opacity="0.6"/>
<g filter="url(#filter1_d)">
<path d="M30.3076 42.7227C30.3076 54.0866 39.449 63.2927 50.7225 63.2927C54.4365 63.2986 58.081 62.2786 61.2598 60.3436L71.1579 70.3165L71.1923 70.2818C72.2035 71.3463 73.639 72 75.2613 72C78.3956 72.0007 80.8467 69.4848 80.8461 66.3299C80.8454 64.7184 80.2055 63.2773 79.1644 62.2488L79.1893 62.2238L68.9761 51.9339C70.4004 49.0756 71.1406 45.921 71.1375 42.7227C71.1375 31.3581 61.9973 22.1539 50.7225 22.1539C39.449 22.1539 30.3076 31.3587 30.3076 42.7227ZM63.1099 42.598C63.1099 49.7008 57.3976 55.4545 50.3506 55.4545C43.3049 55.4545 37.5913 49.7008 37.5913 42.598C37.5913 35.4951 43.3043 29.7427 50.3506 29.7427C57.3976 29.7421 63.1099 35.4951 63.1099 42.598Z" fill="url(#paint2_linear)"/>
<path d="M41.2922 41.6634C40.9724 41.3435 40.8903 40.8538 41.0995 40.4527C42.8453 37.1074 44.5163 35.4819 47.9114 33.6526C48.313 33.4362 48.8086 33.5146 49.1312 33.8372C49.6714 34.3774 49.4703 35.295 48.7734 35.6082C45.8484 36.9227 44.3522 38.4515 43.0724 41.3041C42.7578 42.0052 41.8356 42.2068 41.2922 41.6634Z" fill="url(#paint3_linear)"/>
</g>
<defs>
<filter id="filter0_d" x="0" y="0" width="71.6923" height="67.5385" filterUnits="userSpaceOnUse" color-interpolation-filters="sRGB">
<feFlood flood-opacity="0" result="BackgroundImageFix"/>
<feColorMatrix in="SourceAlpha" type="matrix" values="0 0 0 0 0 0 0 0 0 0 0 0 0 0 0 0 0 0 127 0"/>
<feOffset dy="4"/>
<feGaussianBlur stdDeviation="2"/>
<feColorMatrix type="matrix" values="0 0 0 0 0 0 0 0 0 0 0 0 0 0 0 0 0 0 0.25 0"/>
<feBlend mode="normal" in2="BackgroundImageFix" result="effect1_dropShadow"/>
<feBlend mode="normal" in="SourceGraphic" in2="effect1_dropShadow" result="shape"/>
</filter>
<filter id="filter1_d" x="26.3076" y="22.1539" width="58.5385" height="57.8462" filterUnits="userSpaceOnUse" color-interpolation-filters="sRGB">
<feFlood flood-opacity="0" result="BackgroundImageFix"/>
<feColorMatrix in="SourceAlpha" type="matrix" values="0 0 0 0 0 0 0 0 0 0 0 0 0 0 0 0 0 0 127 0"/>
<feOffset dy="4"/>
<feGaussianBlur stdDeviation="2"/>
<feColorMatrix type="matrix" values="0 0 0 0 0 0 0 0 0 0 0 0 0 0 0 0 0 0 0.25 0"/>
<feBlend mode="normal" in2="BackgroundImageFix" result="effect1_dropShadow"/>
<feBlend mode="normal" in="SourceGraphic" in2="effect1_dropShadow" result="shape"/>
</filter>
<linearGradient id="paint0_linear" x1="35.8462" y1="0" x2="35.8462" y2="59.5385" gradientUnits="userSpaceOnUse">
<stop stop-color="#B00101"/>
<stop offset="1" stop-color="#820101"/>
</linearGradient>
<linearGradient id="paint1_linear" x1="35.8462" y1="0" x2="35.8462" y2="59.5385" gradientUnits="userSpaceOnUse">
<stop stop-color="#B00101"/>
<stop offset="1" stop-color="#820101"/>
</linearGradient>
<linearGradient id="paint2_linear" x1="36.1922" y1="28.7308" x2="78.0768" y2="69.9231" gradientUnits="userSpaceOnUse">
<stop stop-color="#E40000"/>
<stop offset="1" stop-color="#910000"/>
</linearGradient>
<linearGradient id="paint3_linear" x1="36.1922" y1="28.7308" x2="78.0768" y2="69.9231" gradientUnits="userSpaceOnUse">
<stop stop-color="#E40000"/>
<stop offset="1" stop-color="#910000"/>
</linearGradient>
</defs>
</svg>
