<svg width="414" height="896" viewBox="0 0 414 896" fill="none" xmlns="http://www.w3.org/2000/svg">
<rect width="414" height="896" fill="white"/>
<rect width="414" height="896" fill="url(#paint0_linear)"/>
<path d="M58.6836 97.541H48.5586V108H43.2852V82.4062H59.9492V86.6777H48.5586V93.2871H58.6836V97.541ZM68.0352 108H62.9375V88.9805H68.0352V108ZM62.6387 84.0586C62.6387 83.2969 62.8906 82.6699 63.3945 82.1777C63.9102 81.6855 64.6074 81.4395 65.4863 81.4395C66.3535 81.4395 67.0449 81.6855 67.5605 82.1777C68.0762 82.6699 68.334 83.2969 68.334 84.0586C68.334 84.832 68.0703 85.4648 67.543 85.957C67.0273 86.4492 66.3418 86.6953 65.4863 86.6953C64.6309 86.6953 63.9395 86.4492 63.4121 85.957C62.8965 85.4648 62.6387 84.832 62.6387 84.0586ZM77.5977 108H72.5V81H77.5977V108ZM87.8809 84.3047V88.9805H91.1328V92.707H87.8809V102.199C87.8809 102.902 88.0156 103.406 88.2852 103.711C88.5547 104.016 89.0703 104.168 89.832 104.168C90.3945 104.168 90.8926 104.127 91.3262 104.045V107.895C90.3301 108.199 89.3047 108.352 88.25 108.352C84.6875 108.352 82.8711 106.553 82.8008 102.955V92.707H80.0234V88.9805H82.8008V84.3047H87.8809ZM102.717 108.352C99.9277 108.352 97.6543 107.496 95.8965 105.785C94.1504 104.074 93.2773 101.795 93.2773 98.9473V98.4551C93.2773 96.5449 93.6465 94.8398 94.3848 93.3398C95.123 91.8281 96.166 90.668 97.5137 89.8594C98.873 89.0391 100.42 88.6289 102.154 88.6289C104.756 88.6289 106.801 89.4492 108.289 91.0898C109.789 92.7305 110.539 95.0566 110.539 98.0684V100.143H98.4277C98.5918 101.385 99.084 102.381 99.9043 103.131C100.736 103.881 101.785 104.256 103.051 104.256C105.008 104.256 106.537 103.547 107.639 102.129L110.135 104.924C109.373 106.002 108.342 106.846 107.041 107.455C105.74 108.053 104.299 108.352 102.717 108.352ZM102.137 92.7422C101.129 92.7422 100.309 93.082 99.6758 93.7617C99.0547 94.4414 98.6562 95.4141 98.4805 96.6797H105.547V96.2754C105.523 95.1504 105.219 94.2832 104.633 93.6738C104.047 93.0527 103.215 92.7422 102.137 92.7422ZM124.127 93.7441C123.436 93.6504 122.826 93.6035 122.299 93.6035C120.377 93.6035 119.117 94.2539 118.52 95.5547V108H113.439V88.9805H118.238L118.379 91.248C119.398 89.502 120.811 88.6289 122.615 88.6289C123.178 88.6289 123.705 88.7051 124.197 88.8574L124.127 93.7441Z" fill="white"/>
<path d="M40.5 41L36 36.5M36 36.5L40.5 32M36 36.5H52" stroke="#F2F2F2" stroke-width="1.5" stroke-linecap="round" stroke-linejoin="round"/>
<path d="M47.665 155.203L51.8486 165.645L56.0322 155.203H58.2207V168H56.5332V163.017L56.6914 157.638L52.4902 168H51.1982L47.0059 157.664L47.1729 163.017V168H45.4854V155.203H47.665ZM66.8164 167.06C66.1836 167.804 65.2549 168.176 64.0303 168.176C63.0166 168.176 62.2432 167.883 61.71 167.297C61.1826 166.705 60.916 165.832 60.9102 164.678V158.49H62.5361V164.634C62.5361 166.075 63.1221 166.796 64.2939 166.796C65.5361 166.796 66.3623 166.333 66.7725 165.407V158.49H68.3984V168H66.8516L66.8164 167.06ZM76.4141 165.478C76.4141 165.038 76.2471 164.698 75.9131 164.458C75.585 164.212 75.0078 164.001 74.1816 163.825C73.3613 163.649 72.708 163.438 72.2217 163.192C71.7412 162.946 71.3838 162.653 71.1494 162.313C70.9209 161.974 70.8066 161.569 70.8066 161.101C70.8066 160.321 71.1348 159.662 71.791 159.123C72.4531 158.584 73.2969 158.314 74.3223 158.314C75.4004 158.314 76.2734 158.593 76.9414 159.149C77.6152 159.706 77.9521 160.418 77.9521 161.285H76.3174C76.3174 160.84 76.127 160.456 75.7461 160.134C75.3711 159.812 74.8965 159.65 74.3223 159.65C73.7305 159.65 73.2676 159.779 72.9336 160.037C72.5996 160.295 72.4326 160.632 72.4326 161.048C72.4326 161.44 72.5879 161.736 72.8984 161.936C73.209 162.135 73.7686 162.325 74.5771 162.507C75.3916 162.688 76.0508 162.905 76.5547 163.157C77.0586 163.409 77.4307 163.714 77.6709 164.071C77.917 164.423 78.04 164.854 78.04 165.363C78.04 166.213 77.7002 166.896 77.0205 167.411C76.3408 167.921 75.459 168.176 74.375 168.176C73.6133 168.176 72.9395 168.041 72.3535 167.771C71.7676 167.502 71.3076 167.127 70.9736 166.646C70.6455 166.16 70.4814 165.636 70.4814 165.073H72.1074C72.1367 165.618 72.3535 166.052 72.7578 166.374C73.168 166.69 73.707 166.849 74.375 166.849C74.9902 166.849 75.4824 166.726 75.8516 166.479C76.2266 166.228 76.4141 165.894 76.4141 165.478ZM83.9727 166.849C84.5527 166.849 85.0596 166.673 85.4932 166.321C85.9268 165.97 86.167 165.53 86.2139 165.003H87.752C87.7227 165.548 87.5352 166.066 87.1895 166.559C86.8438 167.051 86.3809 167.443 85.8008 167.736C85.2266 168.029 84.6172 168.176 83.9727 168.176C82.6777 168.176 81.6465 167.745 80.8789 166.884C80.1172 166.017 79.7363 164.833 79.7363 163.333V163.061C79.7363 162.135 79.9062 161.312 80.2461 160.591C80.5859 159.87 81.0723 159.311 81.7051 158.912C82.3438 158.514 83.0967 158.314 83.9639 158.314C85.0303 158.314 85.915 158.634 86.6182 159.272C87.3271 159.911 87.7051 160.74 87.752 161.76H86.2139C86.167 161.145 85.9326 160.641 85.5107 160.248C85.0947 159.85 84.5791 159.65 83.9639 159.65C83.1377 159.65 82.4961 159.949 82.0391 160.547C81.5879 161.139 81.3623 161.997 81.3623 163.122V163.43C81.3623 164.525 81.5879 165.369 82.0391 165.961C82.4902 166.553 83.1348 166.849 83.9727 166.849ZM91.3467 168H89.7207V154.5H91.3467V168ZM97.9033 168.176C96.6143 168.176 95.5654 167.754 94.7568 166.91C93.9482 166.061 93.5439 164.927 93.5439 163.509V163.21C93.5439 162.267 93.7227 161.426 94.0801 160.688C94.4434 159.943 94.9473 159.363 95.5918 158.947C96.2422 158.525 96.9453 158.314 97.7012 158.314C98.9375 158.314 99.8984 158.722 100.584 159.536C101.27 160.351 101.612 161.517 101.612 163.034V163.711H95.1699C95.1934 164.648 95.4658 165.407 95.9873 165.987C96.5146 166.562 97.1826 166.849 97.9912 166.849C98.5654 166.849 99.0518 166.731 99.4502 166.497C99.8486 166.263 100.197 165.952 100.496 165.565L101.489 166.339C100.692 167.563 99.4971 168.176 97.9033 168.176ZM97.7012 159.65C97.0449 159.65 96.4941 159.891 96.0488 160.371C95.6035 160.846 95.3281 161.514 95.2227 162.375H99.9863V162.252C99.9395 161.426 99.7168 160.787 99.3184 160.336C98.9199 159.879 98.3809 159.65 97.7012 159.65ZM117.67 166.321C117.236 166.942 116.63 167.408 115.851 167.719C115.077 168.023 114.175 168.176 113.144 168.176C112.101 168.176 111.175 167.933 110.366 167.446C109.558 166.954 108.931 166.257 108.485 165.354C108.046 164.452 107.82 163.406 107.809 162.217V161.101C107.809 159.173 108.257 157.679 109.153 156.618C110.056 155.558 111.321 155.027 112.95 155.027C114.286 155.027 115.361 155.37 116.176 156.056C116.99 156.735 117.488 157.702 117.67 158.956H115.982C115.666 157.263 114.658 156.416 112.959 156.416C111.828 156.416 110.97 156.814 110.384 157.611C109.804 158.402 109.511 159.551 109.505 161.057V162.103C109.505 163.538 109.833 164.681 110.489 165.53C111.146 166.374 112.033 166.796 113.152 166.796C113.785 166.796 114.339 166.726 114.813 166.585C115.288 166.444 115.681 166.207 115.991 165.873V162.999H113.029V161.628H117.67V166.321ZM124.833 159.949C124.587 159.908 124.32 159.888 124.033 159.888C122.967 159.888 122.243 160.342 121.862 161.25V168H120.236V158.49H121.818L121.845 159.589C122.378 158.739 123.134 158.314 124.112 158.314C124.429 158.314 124.669 158.355 124.833 158.438V159.949ZM125.729 163.157C125.729 162.226 125.911 161.388 126.274 160.644C126.644 159.899 127.153 159.325 127.804 158.921C128.46 158.517 129.207 158.314 130.045 158.314C131.34 158.314 132.386 158.763 133.183 159.659C133.985 160.556 134.387 161.748 134.387 163.236V163.351C134.387 164.276 134.208 165.108 133.851 165.847C133.499 166.579 132.992 167.15 132.33 167.561C131.674 167.971 130.918 168.176 130.062 168.176C128.773 168.176 127.728 167.728 126.925 166.831C126.128 165.935 125.729 164.748 125.729 163.271V163.157ZM127.364 163.351C127.364 164.405 127.607 165.252 128.094 165.891C128.586 166.529 129.242 166.849 130.062 166.849C130.889 166.849 131.545 166.526 132.031 165.882C132.518 165.231 132.761 164.323 132.761 163.157C132.761 162.114 132.512 161.271 132.014 160.626C131.521 159.976 130.865 159.65 130.045 159.65C129.242 159.65 128.595 159.97 128.103 160.608C127.61 161.247 127.364 162.161 127.364 163.351ZM142.297 167.06C141.664 167.804 140.735 168.176 139.511 168.176C138.497 168.176 137.724 167.883 137.19 167.297C136.663 166.705 136.396 165.832 136.391 164.678V158.49H138.017V164.634C138.017 166.075 138.603 166.796 139.774 166.796C141.017 166.796 141.843 166.333 142.253 165.407V158.49H143.879V168H142.332L142.297 167.06ZM154.391 163.351C154.391 164.798 154.06 165.964 153.397 166.849C152.735 167.733 151.839 168.176 150.708 168.176C149.554 168.176 148.646 167.81 147.983 167.077V171.656H146.357V158.49H147.843L147.922 159.545C148.584 158.725 149.504 158.314 150.682 158.314C151.824 158.314 152.727 158.745 153.389 159.606C154.057 160.468 154.391 161.666 154.391 163.201V163.351ZM152.765 163.166C152.765 162.094 152.536 161.247 152.079 160.626C151.622 160.005 150.995 159.694 150.198 159.694C149.214 159.694 148.476 160.131 147.983 161.004V165.548C148.47 166.415 149.214 166.849 150.216 166.849C150.995 166.849 151.613 166.541 152.07 165.926C152.533 165.305 152.765 164.385 152.765 163.166Z" fill="white"/>
<rect x="270" y="206" width="100" height="57" rx="10" fill="white"/>
<rect x="270" y="276" width="100" height="57" rx="10" fill="white" fill-opacity="0.5"/>
<rect x="44" y="206" width="100" height="57" rx="10" fill="white"/>
<rect x="157" y="206" width="100" height="57" rx="10" fill="white" fill-opacity="0.5"/>
<rect x="44" y="276" width="100" height="57" rx="10" fill="white" fill-opacity="0.5"/>
<rect x="157" y="276" width="100" height="57" rx="10" fill="white" fill-opacity="0.5"/>
<rect x="270" y="345" width="100" height="57" rx="10" fill="white" fill-opacity="0.5"/>
<rect x="270" y="415" width="100" height="57" rx="10" fill="white" fill-opacity="0.5"/>
<rect x="44" y="345" width="100" height="57" rx="10" fill="white" fill-opacity="0.5"/>
<rect x="157" y="345" width="100" height="57" rx="10" fill="white" fill-opacity="0.5"/>
<rect x="44" y="415" width="100" height="57" rx="10" fill="white" fill-opacity="0.5"/>
<rect x="157" y="415" width="100" height="57" rx="10" fill="white" fill-opacity="0.5"/>
<rect x="44" y="485" width="100" height="57" rx="10" fill="white" fill-opacity="0.5"/>
<rect x="157" y="485" width="100" height="57" rx="10" fill="white" fill-opacity="0.5"/>
<path d="M86.9863 237.66H81.625L80.4209 241H78.6807L83.5674 228.203H85.0439L89.9395 241H88.208L86.9863 237.66ZM82.1348 236.271H86.4854L84.3057 230.286L82.1348 236.271ZM99.458 236.351C99.458 237.804 99.124 238.973 98.4561 239.857C97.7881 240.736 96.8916 241.176 95.7666 241.176C94.5654 241.176 93.6367 240.751 92.9805 239.901L92.9014 241H91.4072V227.5H93.0332V232.536C93.6895 231.722 94.5947 231.314 95.749 231.314C96.9033 231.314 97.8086 231.751 98.4648 232.624C99.127 233.497 99.458 234.692 99.458 236.21V236.351ZM97.832 236.166C97.832 235.059 97.6182 234.203 97.1904 233.6C96.7627 232.996 96.1475 232.694 95.3447 232.694C94.2725 232.694 93.502 233.192 93.0332 234.188V238.302C93.5312 239.298 94.3076 239.796 95.3623 239.796C96.1416 239.796 96.748 239.494 97.1816 238.891C97.6152 238.287 97.832 237.379 97.832 236.166ZM107.052 238.478C107.052 238.038 106.885 237.698 106.551 237.458C106.223 237.212 105.646 237.001 104.819 236.825C103.999 236.649 103.346 236.438 102.859 236.192C102.379 235.946 102.021 235.653 101.787 235.313C101.559 234.974 101.444 234.569 101.444 234.101C101.444 233.321 101.772 232.662 102.429 232.123C103.091 231.584 103.935 231.314 104.96 231.314C106.038 231.314 106.911 231.593 107.579 232.149C108.253 232.706 108.59 233.418 108.59 234.285H106.955C106.955 233.84 106.765 233.456 106.384 233.134C106.009 232.812 105.534 232.65 104.96 232.65C104.368 232.65 103.905 232.779 103.571 233.037C103.237 233.295 103.07 233.632 103.07 234.048C103.07 234.44 103.226 234.736 103.536 234.936C103.847 235.135 104.406 235.325 105.215 235.507C106.029 235.688 106.688 235.905 107.192 236.157C107.696 236.409 108.068 236.714 108.309 237.071C108.555 237.423 108.678 237.854 108.678 238.363C108.678 239.213 108.338 239.896 107.658 240.411C106.979 240.921 106.097 241.176 105.013 241.176C104.251 241.176 103.577 241.041 102.991 240.771C102.405 240.502 101.945 240.127 101.611 239.646C101.283 239.16 101.119 238.636 101.119 238.073H102.745C102.774 238.618 102.991 239.052 103.396 239.374C103.806 239.69 104.345 239.849 105.013 239.849C105.628 239.849 106.12 239.726 106.489 239.479C106.864 239.228 107.052 238.894 107.052 238.478Z" fill="#FF9A93"/>
<path d="M188.71 241V228.203H192.894C194.282 228.203 195.325 228.49 196.022 229.064C196.726 229.639 197.077 230.488 197.077 231.613C197.077 232.211 196.907 232.741 196.567 233.204C196.228 233.661 195.765 234.016 195.179 234.268C195.87 234.461 196.415 234.83 196.813 235.375C197.218 235.914 197.42 236.559 197.42 237.309C197.42 238.457 197.048 239.359 196.304 240.016C195.56 240.672 194.508 241 193.148 241H188.71ZM190.397 235.015V239.62H193.184C193.969 239.62 194.587 239.418 195.038 239.014C195.495 238.604 195.724 238.041 195.724 237.326C195.724 235.785 194.886 235.015 193.21 235.015H190.397ZM190.397 233.661H192.946C193.685 233.661 194.273 233.477 194.713 233.107C195.158 232.738 195.381 232.237 195.381 231.604C195.381 230.901 195.176 230.392 194.766 230.075C194.355 229.753 193.731 229.592 192.894 229.592H190.397V233.661ZM205.541 241C205.447 240.812 205.371 240.479 205.312 239.998C204.557 240.783 203.654 241.176 202.605 241.176C201.668 241.176 200.897 240.912 200.294 240.385C199.696 239.852 199.397 239.178 199.397 238.363C199.397 237.373 199.772 236.605 200.522 236.061C201.278 235.51 202.339 235.234 203.704 235.234H205.286V234.487C205.286 233.919 205.116 233.468 204.776 233.134C204.437 232.794 203.936 232.624 203.273 232.624C202.693 232.624 202.207 232.771 201.814 233.063C201.422 233.356 201.226 233.711 201.226 234.127H199.591C199.591 233.652 199.758 233.195 200.092 232.756C200.432 232.311 200.889 231.959 201.463 231.701C202.043 231.443 202.679 231.314 203.37 231.314C204.466 231.314 205.324 231.59 205.945 232.141C206.566 232.686 206.889 233.438 206.912 234.399V238.776C206.912 239.649 207.023 240.344 207.246 240.859V241H205.541ZM202.843 239.761C203.353 239.761 203.836 239.629 204.293 239.365C204.75 239.102 205.081 238.759 205.286 238.337V236.386H204.012C202.02 236.386 201.023 236.969 201.023 238.135C201.023 238.645 201.193 239.043 201.533 239.33C201.873 239.617 202.31 239.761 202.843 239.761ZM213.275 239.849C213.855 239.849 214.362 239.673 214.796 239.321C215.229 238.97 215.47 238.53 215.517 238.003H217.055C217.025 238.548 216.838 239.066 216.492 239.559C216.146 240.051 215.684 240.443 215.104 240.736C214.529 241.029 213.92 241.176 213.275 241.176C211.98 241.176 210.949 240.745 210.182 239.884C209.42 239.017 209.039 237.833 209.039 236.333V236.061C209.039 235.135 209.209 234.312 209.549 233.591C209.889 232.87 210.375 232.311 211.008 231.912C211.646 231.514 212.399 231.314 213.267 231.314C214.333 231.314 215.218 231.634 215.921 232.272C216.63 232.911 217.008 233.74 217.055 234.76H215.517C215.47 234.145 215.235 233.641 214.813 233.248C214.397 232.85 213.882 232.65 213.267 232.65C212.44 232.65 211.799 232.949 211.342 233.547C210.891 234.139 210.665 234.997 210.665 236.122V236.43C210.665 237.525 210.891 238.369 211.342 238.961C211.793 239.553 212.438 239.849 213.275 239.849ZM221.537 236.597L220.518 237.66V241H218.892V227.5H220.518V235.665L221.388 234.619L224.35 231.49H226.327L222.627 235.463L226.758 241H224.851L221.537 236.597Z" fill="white"/>
<path d="M294.512 241V228.203H298.695C300.084 228.203 301.127 228.49 301.824 229.064C302.527 229.639 302.879 230.488 302.879 231.613C302.879 232.211 302.709 232.741 302.369 233.204C302.029 233.661 301.566 234.016 300.98 234.268C301.672 234.461 302.217 234.83 302.615 235.375C303.02 235.914 303.222 236.559 303.222 237.309C303.222 238.457 302.85 239.359 302.105 240.016C301.361 240.672 300.31 241 298.95 241H294.512ZM296.199 235.015V239.62H298.985C299.771 239.62 300.389 239.418 300.84 239.014C301.297 238.604 301.525 238.041 301.525 237.326C301.525 235.785 300.688 235.015 299.012 235.015H296.199ZM296.199 233.661H298.748C299.486 233.661 300.075 233.477 300.515 233.107C300.96 232.738 301.183 232.237 301.183 231.604C301.183 230.901 300.978 230.392 300.567 230.075C300.157 229.753 299.533 229.592 298.695 229.592H296.199V233.661ZM307.238 241H305.612V231.49H307.238V241ZM305.48 228.968C305.48 228.704 305.56 228.481 305.718 228.3C305.882 228.118 306.122 228.027 306.438 228.027C306.755 228.027 306.995 228.118 307.159 228.3C307.323 228.481 307.405 228.704 307.405 228.968C307.405 229.231 307.323 229.451 307.159 229.627C306.995 229.803 306.755 229.891 306.438 229.891C306.122 229.891 305.882 229.803 305.718 229.627C305.56 229.451 305.48 229.231 305.48 228.968ZM313.663 239.849C314.243 239.849 314.75 239.673 315.184 239.321C315.617 238.97 315.857 238.53 315.904 238.003H317.442C317.413 238.548 317.226 239.066 316.88 239.559C316.534 240.051 316.071 240.443 315.491 240.736C314.917 241.029 314.308 241.176 313.663 241.176C312.368 241.176 311.337 240.745 310.569 239.884C309.808 239.017 309.427 237.833 309.427 236.333V236.061C309.427 235.135 309.597 234.312 309.937 233.591C310.276 232.87 310.763 232.311 311.396 231.912C312.034 231.514 312.787 231.314 313.654 231.314C314.721 231.314 315.605 231.634 316.309 232.272C317.018 232.911 317.396 233.74 317.442 234.76H315.904C315.857 234.145 315.623 233.641 315.201 233.248C314.785 232.85 314.27 232.65 313.654 232.65C312.828 232.65 312.187 232.949 311.729 233.547C311.278 234.139 311.053 234.997 311.053 236.122V236.43C311.053 237.525 311.278 238.369 311.729 238.961C312.181 239.553 312.825 239.849 313.663 239.849ZM323.217 241.176C321.928 241.176 320.879 240.754 320.07 239.91C319.262 239.061 318.857 237.927 318.857 236.509V236.21C318.857 235.267 319.036 234.426 319.394 233.688C319.757 232.943 320.261 232.363 320.905 231.947C321.556 231.525 322.259 231.314 323.015 231.314C324.251 231.314 325.212 231.722 325.897 232.536C326.583 233.351 326.926 234.517 326.926 236.034V236.711H320.483C320.507 237.648 320.779 238.407 321.301 238.987C321.828 239.562 322.496 239.849 323.305 239.849C323.879 239.849 324.365 239.731 324.764 239.497C325.162 239.263 325.511 238.952 325.81 238.565L326.803 239.339C326.006 240.563 324.811 241.176 323.217 241.176ZM323.015 232.65C322.358 232.65 321.808 232.891 321.362 233.371C320.917 233.846 320.642 234.514 320.536 235.375H325.3V235.252C325.253 234.426 325.03 233.787 324.632 233.336C324.233 232.879 323.694 232.65 323.015 232.65ZM336.849 236.351C336.849 237.798 336.518 238.964 335.855 239.849C335.193 240.733 334.297 241.176 333.166 241.176C332.012 241.176 331.104 240.81 330.441 240.077V244.656H328.815V231.49H330.301L330.38 232.545C331.042 231.725 331.962 231.314 333.14 231.314C334.282 231.314 335.185 231.745 335.847 232.606C336.515 233.468 336.849 234.666 336.849 236.201V236.351ZM335.223 236.166C335.223 235.094 334.994 234.247 334.537 233.626C334.08 233.005 333.453 232.694 332.656 232.694C331.672 232.694 330.934 233.131 330.441 234.004V238.548C330.928 239.415 331.672 239.849 332.674 239.849C333.453 239.849 334.071 239.541 334.528 238.926C334.991 238.305 335.223 237.385 335.223 236.166ZM344.46 238.478C344.46 238.038 344.293 237.698 343.959 237.458C343.631 237.212 343.054 237.001 342.228 236.825C341.407 236.649 340.754 236.438 340.268 236.192C339.787 235.946 339.43 235.653 339.195 235.313C338.967 234.974 338.853 234.569 338.853 234.101C338.853 233.321 339.181 232.662 339.837 232.123C340.499 231.584 341.343 231.314 342.368 231.314C343.446 231.314 344.319 231.593 344.987 232.149C345.661 232.706 345.998 233.418 345.998 234.285H344.363C344.363 233.84 344.173 233.456 343.792 233.134C343.417 232.812 342.942 232.65 342.368 232.65C341.776 232.65 341.313 232.779 340.979 233.037C340.646 233.295 340.479 233.632 340.479 234.048C340.479 234.44 340.634 234.736 340.944 234.936C341.255 235.135 341.814 235.325 342.623 235.507C343.438 235.688 344.097 235.905 344.601 236.157C345.104 236.409 345.477 236.714 345.717 237.071C345.963 237.423 346.086 237.854 346.086 238.363C346.086 239.213 345.746 239.896 345.066 240.411C344.387 240.921 343.505 241.176 342.421 241.176C341.659 241.176 340.985 241.041 340.399 240.771C339.813 240.502 339.354 240.127 339.02 239.646C338.691 239.16 338.527 238.636 338.527 238.073H340.153C340.183 238.618 340.399 239.052 340.804 239.374C341.214 239.69 341.753 239.849 342.421 239.849C343.036 239.849 343.528 239.726 343.897 239.479C344.272 239.228 344.46 238.894 344.46 238.478Z" fill="#FF9A93"/>
<path d="M78.2412 306.939C78.083 308.293 77.582 309.339 76.7383 310.077C75.9004 310.81 74.7842 311.176 73.3896 311.176C71.8779 311.176 70.665 310.634 69.751 309.55C68.8428 308.466 68.3887 307.016 68.3887 305.199V303.969C68.3887 302.779 68.5996 301.733 69.0215 300.831C69.4492 299.929 70.0527 299.237 70.832 298.757C71.6113 298.271 72.5137 298.027 73.5391 298.027C74.8984 298.027 75.9883 298.408 76.8086 299.17C77.6289 299.926 78.1064 300.975 78.2412 302.316H76.5449C76.3984 301.297 76.0791 300.559 75.5869 300.102C75.1006 299.645 74.418 299.416 73.5391 299.416C72.4609 299.416 71.6143 299.814 70.999 300.611C70.3896 301.408 70.085 302.542 70.085 304.013V305.252C70.085 306.641 70.375 307.745 70.9551 308.565C71.5352 309.386 72.3467 309.796 73.3896 309.796C74.3271 309.796 75.0449 309.585 75.543 309.163C76.0469 308.735 76.3809 307.994 76.5449 306.939H78.2412ZM86.1689 311C86.0752 310.812 85.999 310.479 85.9404 309.998C85.1846 310.783 84.2822 311.176 83.2334 311.176C82.2959 311.176 81.5254 310.912 80.9219 310.385C80.3242 309.852 80.0254 309.178 80.0254 308.363C80.0254 307.373 80.4004 306.605 81.1504 306.061C81.9062 305.51 82.9668 305.234 84.332 305.234H85.9141V304.487C85.9141 303.919 85.7441 303.468 85.4043 303.134C85.0645 302.794 84.5635 302.624 83.9014 302.624C83.3213 302.624 82.835 302.771 82.4424 303.063C82.0498 303.356 81.8535 303.711 81.8535 304.127H80.2188C80.2188 303.652 80.3857 303.195 80.7197 302.756C81.0596 302.311 81.5166 301.959 82.0908 301.701C82.6709 301.443 83.3066 301.314 83.998 301.314C85.0938 301.314 85.9521 301.59 86.5732 302.141C87.1943 302.686 87.5166 303.438 87.54 304.399V308.776C87.54 309.649 87.6514 310.344 87.874 310.859V311H86.1689ZM83.4707 309.761C83.9805 309.761 84.4639 309.629 84.9209 309.365C85.3779 309.102 85.709 308.759 85.9141 308.337V306.386H84.6396C82.6475 306.386 81.6514 306.969 81.6514 308.135C81.6514 308.645 81.8213 309.043 82.1611 309.33C82.501 309.617 82.9375 309.761 83.4707 309.761ZM91.8555 311H90.2295V297.5H91.8555V311ZM97.6035 308.794L99.959 301.49H101.62L98.21 311H96.9707L93.5254 301.49H95.1865L97.6035 308.794ZM107.008 311.176C105.719 311.176 104.67 310.754 103.861 309.91C103.053 309.061 102.648 307.927 102.648 306.509V306.21C102.648 305.267 102.827 304.426 103.185 303.688C103.548 302.943 104.052 302.363 104.696 301.947C105.347 301.525 106.05 301.314 106.806 301.314C108.042 301.314 109.003 301.722 109.688 302.536C110.374 303.351 110.717 304.517 110.717 306.034V306.711H104.274C104.298 307.648 104.57 308.407 105.092 308.987C105.619 309.562 106.287 309.849 107.096 309.849C107.67 309.849 108.156 309.731 108.555 309.497C108.953 309.263 109.302 308.952 109.601 308.565L110.594 309.339C109.797 310.563 108.602 311.176 107.008 311.176ZM106.806 302.65C106.149 302.65 105.599 302.891 105.153 303.371C104.708 303.846 104.433 304.514 104.327 305.375H109.091V305.252C109.044 304.426 108.821 303.787 108.423 303.336C108.024 302.879 107.485 302.65 106.806 302.65ZM118.144 308.478C118.144 308.038 117.977 307.698 117.643 307.458C117.314 307.212 116.737 307.001 115.911 306.825C115.091 306.649 114.438 306.438 113.951 306.192C113.471 305.946 113.113 305.653 112.879 305.313C112.65 304.974 112.536 304.569 112.536 304.101C112.536 303.321 112.864 302.662 113.521 302.123C114.183 301.584 115.026 301.314 116.052 301.314C117.13 301.314 118.003 301.593 118.671 302.149C119.345 302.706 119.682 303.418 119.682 304.285H118.047C118.047 303.84 117.856 303.456 117.476 303.134C117.101 302.812 116.626 302.65 116.052 302.65C115.46 302.65 114.997 302.779 114.663 303.037C114.329 303.295 114.162 303.632 114.162 304.048C114.162 304.44 114.317 304.736 114.628 304.936C114.938 305.135 115.498 305.325 116.307 305.507C117.121 305.688 117.78 305.905 118.284 306.157C118.788 306.409 119.16 306.714 119.4 307.071C119.646 307.423 119.77 307.854 119.77 308.363C119.77 309.213 119.43 309.896 118.75 310.411C118.07 310.921 117.188 311.176 116.104 311.176C115.343 311.176 114.669 311.041 114.083 310.771C113.497 310.502 113.037 310.127 112.703 309.646C112.375 309.16 112.211 308.636 112.211 308.073H113.837C113.866 308.618 114.083 309.052 114.487 309.374C114.897 309.69 115.437 309.849 116.104 309.849C116.72 309.849 117.212 309.726 117.581 309.479C117.956 309.228 118.144 308.894 118.144 308.478Z" fill="white"/>
<path d="M195.222 306.939C195.063 308.293 194.562 309.339 193.719 310.077C192.881 310.81 191.765 311.176 190.37 311.176C188.858 311.176 187.646 310.634 186.731 309.55C185.823 308.466 185.369 307.016 185.369 305.199V303.969C185.369 302.779 185.58 301.733 186.002 300.831C186.43 299.929 187.033 299.237 187.812 298.757C188.592 298.271 189.494 298.027 190.52 298.027C191.879 298.027 192.969 298.408 193.789 299.17C194.609 299.926 195.087 300.975 195.222 302.316H193.525C193.379 301.297 193.06 300.559 192.567 300.102C192.081 299.645 191.398 299.416 190.52 299.416C189.441 299.416 188.595 299.814 187.979 300.611C187.37 301.408 187.065 302.542 187.065 304.013V305.252C187.065 306.641 187.355 307.745 187.936 308.565C188.516 309.386 189.327 309.796 190.37 309.796C191.308 309.796 192.025 309.585 192.523 309.163C193.027 308.735 193.361 307.994 193.525 306.939H195.222ZM198.904 302.642C199.625 301.757 200.562 301.314 201.717 301.314C203.727 301.314 204.74 302.448 204.758 304.716V311H203.132V304.707C203.126 304.021 202.968 303.515 202.657 303.187C202.353 302.858 201.875 302.694 201.225 302.694C200.697 302.694 200.234 302.835 199.836 303.116C199.438 303.397 199.127 303.767 198.904 304.224V311H197.278V297.5H198.904V302.642ZM211.139 311.176C209.85 311.176 208.801 310.754 207.992 309.91C207.184 309.061 206.779 307.927 206.779 306.509V306.21C206.779 305.267 206.958 304.426 207.315 303.688C207.679 302.943 208.183 302.363 208.827 301.947C209.478 301.525 210.181 301.314 210.937 301.314C212.173 301.314 213.134 301.722 213.819 302.536C214.505 303.351 214.848 304.517 214.848 306.034V306.711H208.405C208.429 307.648 208.701 308.407 209.223 308.987C209.75 309.562 210.418 309.849 211.227 309.849C211.801 309.849 212.287 309.731 212.686 309.497C213.084 309.263 213.433 308.952 213.731 308.565L214.725 309.339C213.928 310.563 212.732 311.176 211.139 311.176ZM210.937 302.65C210.28 302.65 209.729 302.891 209.284 303.371C208.839 303.846 208.563 304.514 208.458 305.375H213.222V305.252C213.175 304.426 212.952 303.787 212.554 303.336C212.155 302.879 211.616 302.65 210.937 302.65ZM222.274 308.478C222.274 308.038 222.107 307.698 221.773 307.458C221.445 307.212 220.868 307.001 220.042 306.825C219.222 306.649 218.568 306.438 218.082 306.192C217.602 305.946 217.244 305.653 217.01 305.313C216.781 304.974 216.667 304.569 216.667 304.101C216.667 303.321 216.995 302.662 217.651 302.123C218.313 301.584 219.157 301.314 220.183 301.314C221.261 301.314 222.134 301.593 222.802 302.149C223.476 302.706 223.812 303.418 223.812 304.285H222.178C222.178 303.84 221.987 303.456 221.606 303.134C221.231 302.812 220.757 302.65 220.183 302.65C219.591 302.65 219.128 302.779 218.794 303.037C218.46 303.295 218.293 303.632 218.293 304.048C218.293 304.44 218.448 304.736 218.759 304.936C219.069 305.135 219.629 305.325 220.438 305.507C221.252 305.688 221.911 305.905 222.415 306.157C222.919 306.409 223.291 306.714 223.531 307.071C223.777 307.423 223.9 307.854 223.9 308.363C223.9 309.213 223.561 309.896 222.881 310.411C222.201 310.921 221.319 311.176 220.235 311.176C219.474 311.176 218.8 311.041 218.214 310.771C217.628 310.502 217.168 310.127 216.834 309.646C216.506 309.16 216.342 308.636 216.342 308.073H217.968C217.997 308.618 218.214 309.052 218.618 309.374C219.028 309.69 219.567 309.849 220.235 309.849C220.851 309.849 221.343 309.726 221.712 309.479C222.087 309.228 222.274 308.894 222.274 308.478ZM228.225 299.188V301.49H230V302.747H228.225V308.645C228.225 309.025 228.304 309.312 228.462 309.506C228.62 309.693 228.89 309.787 229.271 309.787C229.458 309.787 229.716 309.752 230.044 309.682V311C229.616 311.117 229.2 311.176 228.796 311.176C228.069 311.176 227.521 310.956 227.152 310.517C226.783 310.077 226.599 309.453 226.599 308.645V302.747H224.867V301.49H226.599V299.188H228.225Z" fill="white"/>
<path d="M290.819 305.349H285.449V311H283.762V298.203H291.689V299.592H285.449V303.969H290.819V305.349ZM292.832 306.157C292.832 305.226 293.014 304.388 293.377 303.644C293.746 302.899 294.256 302.325 294.906 301.921C295.562 301.517 296.31 301.314 297.147 301.314C298.442 301.314 299.488 301.763 300.285 302.659C301.088 303.556 301.489 304.748 301.489 306.236V306.351C301.489 307.276 301.311 308.108 300.953 308.847C300.602 309.579 300.095 310.15 299.433 310.561C298.776 310.971 298.021 311.176 297.165 311.176C295.876 311.176 294.83 310.728 294.027 309.831C293.23 308.935 292.832 307.748 292.832 306.271V306.157ZM294.467 306.351C294.467 307.405 294.71 308.252 295.196 308.891C295.688 309.529 296.345 309.849 297.165 309.849C297.991 309.849 298.647 309.526 299.134 308.882C299.62 308.231 299.863 307.323 299.863 306.157C299.863 305.114 299.614 304.271 299.116 303.626C298.624 302.976 297.968 302.65 297.147 302.65C296.345 302.65 295.697 302.97 295.205 303.608C294.713 304.247 294.467 305.161 294.467 306.351ZM308.125 302.949C307.879 302.908 307.612 302.888 307.325 302.888C306.259 302.888 305.535 303.342 305.154 304.25V311H303.528V301.49H305.11L305.137 302.589C305.67 301.739 306.426 301.314 307.404 301.314C307.721 301.314 307.961 301.355 308.125 301.438V302.949ZM313.398 311.176C312.109 311.176 311.061 310.754 310.252 309.91C309.443 309.061 309.039 307.927 309.039 306.509V306.21C309.039 305.267 309.218 304.426 309.575 303.688C309.938 302.943 310.442 302.363 311.087 301.947C311.737 301.525 312.44 301.314 313.196 301.314C314.433 301.314 315.394 301.722 316.079 302.536C316.765 303.351 317.107 304.517 317.107 306.034V306.711H310.665C310.688 307.648 310.961 308.407 311.482 308.987C312.01 309.562 312.678 309.849 313.486 309.849C314.061 309.849 314.547 309.731 314.945 309.497C315.344 309.263 315.692 308.952 315.991 308.565L316.984 309.339C316.188 310.563 314.992 311.176 313.398 311.176ZM313.196 302.65C312.54 302.65 311.989 302.891 311.544 303.371C311.099 303.846 310.823 304.514 310.718 305.375H315.481V305.252C315.435 304.426 315.212 303.787 314.813 303.336C314.415 302.879 313.876 302.65 313.196 302.65ZM324.868 311C324.774 310.812 324.698 310.479 324.64 309.998C323.884 310.783 322.981 311.176 321.933 311.176C320.995 311.176 320.225 310.912 319.621 310.385C319.023 309.852 318.725 309.178 318.725 308.363C318.725 307.373 319.1 306.605 319.85 306.061C320.605 305.51 321.666 305.234 323.031 305.234H324.613V304.487C324.613 303.919 324.443 303.468 324.104 303.134C323.764 302.794 323.263 302.624 322.601 302.624C322.021 302.624 321.534 302.771 321.142 303.063C320.749 303.356 320.553 303.711 320.553 304.127H318.918C318.918 303.652 319.085 303.195 319.419 302.756C319.759 302.311 320.216 301.959 320.79 301.701C321.37 301.443 322.006 301.314 322.697 301.314C323.793 301.314 324.651 301.59 325.272 302.141C325.894 302.686 326.216 303.438 326.239 304.399V308.776C326.239 309.649 326.351 310.344 326.573 310.859V311H324.868ZM322.17 309.761C322.68 309.761 323.163 309.629 323.62 309.365C324.077 309.102 324.408 308.759 324.613 308.337V306.386H323.339C321.347 306.386 320.351 306.969 320.351 308.135C320.351 308.645 320.521 309.043 320.86 309.33C321.2 309.617 321.637 309.761 322.17 309.761ZM333.385 302.949C333.139 302.908 332.872 302.888 332.585 302.888C331.519 302.888 330.795 303.342 330.414 304.25V311H328.788V301.49H330.37L330.396 302.589C330.93 301.739 331.686 301.314 332.664 301.314C332.98 301.314 333.221 301.355 333.385 301.438V302.949ZM336.417 301.49L336.461 302.545C337.158 301.725 338.099 301.314 339.282 301.314C340.612 301.314 341.518 301.824 341.998 302.844C342.314 302.387 342.725 302.018 343.229 301.736C343.738 301.455 344.339 301.314 345.03 301.314C347.116 301.314 348.177 302.419 348.212 304.628V311H346.586V304.725C346.586 304.045 346.431 303.538 346.12 303.204C345.81 302.864 345.288 302.694 344.556 302.694C343.952 302.694 343.451 302.876 343.053 303.239C342.654 303.597 342.423 304.08 342.358 304.689V311H340.724V304.769C340.724 303.386 340.047 302.694 338.693 302.694C337.627 302.694 336.897 303.148 336.505 304.057V311H334.879V301.49H336.417ZM356.21 308.478C356.21 308.038 356.043 307.698 355.709 307.458C355.381 307.212 354.804 307.001 353.978 306.825C353.157 306.649 352.504 306.438 352.018 306.192C351.537 305.946 351.18 305.653 350.945 305.313C350.717 304.974 350.603 304.569 350.603 304.101C350.603 303.321 350.931 302.662 351.587 302.123C352.249 301.584 353.093 301.314 354.118 301.314C355.196 301.314 356.069 301.593 356.737 302.149C357.411 302.706 357.748 303.418 357.748 304.285H356.113C356.113 303.84 355.923 303.456 355.542 303.134C355.167 302.812 354.692 302.65 354.118 302.65C353.526 302.65 353.063 302.779 352.729 303.037C352.396 303.295 352.229 303.632 352.229 304.048C352.229 304.44 352.384 304.736 352.694 304.936C353.005 305.135 353.564 305.325 354.373 305.507C355.188 305.688 355.847 305.905 356.351 306.157C356.854 306.409 357.227 306.714 357.467 307.071C357.713 307.423 357.836 307.854 357.836 308.363C357.836 309.213 357.496 309.896 356.816 310.411C356.137 310.921 355.255 311.176 354.171 311.176C353.409 311.176 352.735 311.041 352.149 310.771C351.563 310.502 351.104 310.127 350.77 309.646C350.441 309.16 350.277 308.636 350.277 308.073H351.903C351.933 308.618 352.149 309.052 352.554 309.374C352.964 309.69 353.503 309.849 354.171 309.849C354.786 309.849 355.278 309.726 355.647 309.479C356.022 309.228 356.21 308.894 356.21 308.478Z" fill="white"/>
<path d="M78.2871 378.321C77.8535 378.942 77.2471 379.408 76.4678 379.719C75.6943 380.023 74.792 380.176 73.7607 380.176C72.7178 380.176 71.792 379.933 70.9834 379.446C70.1748 378.954 69.5479 378.257 69.1025 377.354C68.6631 376.452 68.4375 375.406 68.4258 374.217V373.101C68.4258 371.173 68.874 369.679 69.7705 368.618C70.6729 367.558 71.9385 367.027 73.5674 367.027C74.9033 367.027 75.9785 367.37 76.793 368.056C77.6074 368.735 78.1055 369.702 78.2871 370.956H76.5996C76.2832 369.263 75.2754 368.416 73.5762 368.416C72.4453 368.416 71.5869 368.814 71.001 369.611C70.4209 370.402 70.1279 371.551 70.1221 373.057V374.103C70.1221 375.538 70.4502 376.681 71.1064 377.53C71.7627 378.374 72.6504 378.796 73.7695 378.796C74.4023 378.796 74.9561 378.726 75.4307 378.585C75.9053 378.444 76.2979 378.207 76.6084 377.873V374.999H73.6465V373.628H78.2871V378.321ZM82.6201 380H80.9941V366.5H82.6201V380ZM91.1016 379.06C90.4688 379.804 89.54 380.176 88.3154 380.176C87.3018 380.176 86.5283 379.883 85.9951 379.297C85.4678 378.705 85.2012 377.832 85.1953 376.678V370.49H86.8213V376.634C86.8213 378.075 87.4072 378.796 88.5791 378.796C89.8213 378.796 90.6475 378.333 91.0576 377.407V370.49H92.6836V380H91.1367L91.1016 379.06ZM97.3682 368.188V370.49H99.1436V371.747H97.3682V377.645C97.3682 378.025 97.4473 378.312 97.6055 378.506C97.7637 378.693 98.0332 378.787 98.4141 378.787C98.6016 378.787 98.8594 378.752 99.1875 378.682V380C98.7598 380.117 98.3438 380.176 97.9395 380.176C97.2129 380.176 96.665 379.956 96.2959 379.517C95.9268 379.077 95.7422 378.453 95.7422 377.645V371.747H94.0107V370.49H95.7422V368.188H97.3682ZM104.997 380.176C103.708 380.176 102.659 379.754 101.851 378.91C101.042 378.061 100.638 376.927 100.638 375.509V375.21C100.638 374.267 100.816 373.426 101.174 372.688C101.537 371.943 102.041 371.363 102.686 370.947C103.336 370.525 104.039 370.314 104.795 370.314C106.031 370.314 106.992 370.722 107.678 371.536C108.363 372.351 108.706 373.517 108.706 375.034V375.711H102.264C102.287 376.648 102.56 377.407 103.081 377.987C103.608 378.562 104.276 378.849 105.085 378.849C105.659 378.849 106.146 378.731 106.544 378.497C106.942 378.263 107.291 377.952 107.59 377.565L108.583 378.339C107.786 379.563 106.591 380.176 104.997 380.176ZM104.795 371.65C104.139 371.65 103.588 371.891 103.143 372.371C102.697 372.846 102.422 373.514 102.316 374.375H107.08V374.252C107.033 373.426 106.811 372.787 106.412 372.336C106.014 371.879 105.475 371.65 104.795 371.65ZM116.133 377.478C116.133 377.038 115.966 376.698 115.632 376.458C115.304 376.212 114.727 376.001 113.9 375.825C113.08 375.649 112.427 375.438 111.94 375.192C111.46 374.946 111.103 374.653 110.868 374.313C110.64 373.974 110.525 373.569 110.525 373.101C110.525 372.321 110.854 371.662 111.51 371.123C112.172 370.584 113.016 370.314 114.041 370.314C115.119 370.314 115.992 370.593 116.66 371.149C117.334 371.706 117.671 372.418 117.671 373.285H116.036C116.036 372.84 115.846 372.456 115.465 372.134C115.09 371.812 114.615 371.65 114.041 371.65C113.449 371.65 112.986 371.779 112.652 372.037C112.318 372.295 112.151 372.632 112.151 373.048C112.151 373.44 112.307 373.736 112.617 373.936C112.928 374.135 113.487 374.325 114.296 374.507C115.11 374.688 115.77 374.905 116.273 375.157C116.777 375.409 117.149 375.714 117.39 376.071C117.636 376.423 117.759 376.854 117.759 377.363C117.759 378.213 117.419 378.896 116.739 379.411C116.06 379.921 115.178 380.176 114.094 380.176C113.332 380.176 112.658 380.041 112.072 379.771C111.486 379.502 111.026 379.127 110.692 378.646C110.364 378.16 110.2 377.636 110.2 377.073H111.826C111.855 377.618 112.072 378.052 112.477 378.374C112.887 378.69 113.426 378.849 114.094 378.849C114.709 378.849 115.201 378.726 115.57 378.479C115.945 378.228 116.133 377.894 116.133 377.478Z" fill="white"/>
<path d="M170.633 381H168.937V375.085H162.485V381H160.798V368.203H162.485V373.705H168.937V368.203H170.633V381ZM179.246 381C179.152 380.812 179.076 380.479 179.018 379.998C178.262 380.783 177.359 381.176 176.311 381.176C175.373 381.176 174.603 380.912 173.999 380.385C173.401 379.852 173.103 379.178 173.103 378.363C173.103 377.373 173.478 376.605 174.228 376.061C174.983 375.51 176.044 375.234 177.409 375.234H178.991V374.487C178.991 373.919 178.821 373.468 178.481 373.134C178.142 372.794 177.641 372.624 176.979 372.624C176.398 372.624 175.912 372.771 175.52 373.063C175.127 373.356 174.931 373.711 174.931 374.127H173.296C173.296 373.652 173.463 373.195 173.797 372.756C174.137 372.311 174.594 371.959 175.168 371.701C175.748 371.443 176.384 371.314 177.075 371.314C178.171 371.314 179.029 371.59 179.65 372.141C180.271 372.686 180.594 373.438 180.617 374.399V378.776C180.617 379.649 180.729 380.344 180.951 380.859V381H179.246ZM176.548 379.761C177.058 379.761 177.541 379.629 177.998 379.365C178.455 379.102 178.786 378.759 178.991 378.337V376.386H177.717C175.725 376.386 174.729 376.969 174.729 378.135C174.729 378.645 174.898 379.043 175.238 379.33C175.578 379.617 176.015 379.761 176.548 379.761ZM184.695 371.49L184.739 372.545C185.437 371.725 186.377 371.314 187.561 371.314C188.891 371.314 189.796 371.824 190.276 372.844C190.593 372.387 191.003 372.018 191.507 371.736C192.017 371.455 192.617 371.314 193.309 371.314C195.395 371.314 196.455 372.419 196.49 374.628V381H194.864V374.725C194.864 374.045 194.709 373.538 194.398 373.204C194.088 372.864 193.566 372.694 192.834 372.694C192.23 372.694 191.729 372.876 191.331 373.239C190.933 373.597 190.701 374.08 190.637 374.689V381H189.002V374.769C189.002 373.386 188.325 372.694 186.972 372.694C185.905 372.694 185.176 373.148 184.783 374.057V381H183.157V371.49H184.695ZM204.488 378.478C204.488 378.038 204.321 377.698 203.987 377.458C203.659 377.212 203.082 377.001 202.256 376.825C201.436 376.649 200.782 376.438 200.296 376.192C199.815 375.946 199.458 375.653 199.224 375.313C198.995 374.974 198.881 374.569 198.881 374.101C198.881 373.321 199.209 372.662 199.865 372.123C200.527 371.584 201.371 371.314 202.396 371.314C203.475 371.314 204.348 371.593 205.016 372.149C205.689 372.706 206.026 373.418 206.026 374.285H204.392C204.392 373.84 204.201 373.456 203.82 373.134C203.445 372.812 202.971 372.65 202.396 372.65C201.805 372.65 201.342 372.779 201.008 373.037C200.674 373.295 200.507 373.632 200.507 374.048C200.507 374.44 200.662 374.736 200.973 374.936C201.283 375.135 201.843 375.325 202.651 375.507C203.466 375.688 204.125 375.905 204.629 376.157C205.133 376.409 205.505 376.714 205.745 377.071C205.991 377.423 206.114 377.854 206.114 378.363C206.114 379.213 205.774 379.896 205.095 380.411C204.415 380.921 203.533 381.176 202.449 381.176C201.688 381.176 201.014 381.041 200.428 380.771C199.842 380.502 199.382 380.127 199.048 379.646C198.72 379.16 198.556 378.636 198.556 378.073H200.182C200.211 378.618 200.428 379.052 200.832 379.374C201.242 379.69 201.781 379.849 202.449 379.849C203.064 379.849 203.557 379.726 203.926 379.479C204.301 379.228 204.488 378.894 204.488 378.478ZM210.438 369.188V371.49H212.214V372.747H210.438V378.645C210.438 379.025 210.518 379.312 210.676 379.506C210.834 379.693 211.104 379.787 211.484 379.787C211.672 379.787 211.93 379.752 212.258 379.682V381C211.83 381.117 211.414 381.176 211.01 381.176C210.283 381.176 209.735 380.956 209.366 380.517C208.997 380.077 208.812 379.453 208.812 378.645V372.747H207.081V371.49H208.812V369.188H210.438ZM218.718 372.949C218.472 372.908 218.205 372.888 217.918 372.888C216.852 372.888 216.128 373.342 215.747 374.25V381H214.121V371.49H215.703L215.729 372.589C216.263 371.739 217.019 371.314 217.997 371.314C218.313 371.314 218.554 371.355 218.718 371.438V372.949ZM221.987 381H220.361V371.49H221.987V381ZM220.229 368.968C220.229 368.704 220.309 368.481 220.467 368.3C220.631 368.118 220.871 368.027 221.188 368.027C221.504 368.027 221.744 368.118 221.908 368.3C222.072 368.481 222.154 368.704 222.154 368.968C222.154 369.231 222.072 369.451 221.908 369.627C221.744 369.803 221.504 369.891 221.188 369.891C220.871 369.891 220.631 369.803 220.467 369.627C220.309 369.451 220.229 369.231 220.229 368.968ZM226.136 371.49L226.188 372.686C226.915 371.771 227.864 371.314 229.036 371.314C231.046 371.314 232.06 372.448 232.077 374.716V381H230.451V374.707C230.445 374.021 230.287 373.515 229.977 373.187C229.672 372.858 229.194 372.694 228.544 372.694C228.017 372.694 227.554 372.835 227.155 373.116C226.757 373.397 226.446 373.767 226.224 374.224V381H224.598V371.49H226.136ZM234.143 376.166C234.143 374.684 234.485 373.506 235.171 372.633C235.856 371.754 236.765 371.314 237.896 371.314C239.056 371.314 239.961 371.725 240.611 372.545L240.69 371.49H242.176V380.771C242.176 382.002 241.81 382.972 241.077 383.681C240.351 384.39 239.372 384.744 238.142 384.744C237.456 384.744 236.785 384.598 236.129 384.305C235.473 384.012 234.972 383.61 234.626 383.101L235.47 382.125C236.167 382.986 237.02 383.417 238.027 383.417C238.818 383.417 239.434 383.194 239.873 382.749C240.318 382.304 240.541 381.677 240.541 380.868V380.051C239.891 380.801 239.003 381.176 237.878 381.176C236.765 381.176 235.862 380.728 235.171 379.831C234.485 378.935 234.143 377.713 234.143 376.166ZM235.777 376.351C235.777 377.423 235.997 378.267 236.437 378.882C236.876 379.491 237.491 379.796 238.282 379.796C239.308 379.796 240.061 379.33 240.541 378.398V374.057C240.043 373.148 239.296 372.694 238.3 372.694C237.509 372.694 236.891 373.002 236.445 373.617C236 374.232 235.777 375.144 235.777 376.351ZM250.174 378.478C250.174 378.038 250.007 377.698 249.673 377.458C249.345 377.212 248.768 377.001 247.941 376.825C247.121 376.649 246.468 376.438 245.981 376.192C245.501 375.946 245.144 375.653 244.909 375.313C244.681 374.974 244.566 374.569 244.566 374.101C244.566 373.321 244.895 372.662 245.551 372.123C246.213 371.584 247.057 371.314 248.082 371.314C249.16 371.314 250.033 371.593 250.701 372.149C251.375 372.706 251.712 373.418 251.712 374.285H250.077C250.077 373.84 249.887 373.456 249.506 373.134C249.131 372.812 248.656 372.65 248.082 372.65C247.49 372.65 247.027 372.779 246.693 373.037C246.359 373.295 246.192 373.632 246.192 374.048C246.192 374.44 246.348 374.736 246.658 374.936C246.969 375.135 247.528 375.325 248.337 375.507C249.151 375.688 249.811 375.905 250.314 376.157C250.818 376.409 251.19 376.714 251.431 377.071C251.677 377.423 251.8 377.854 251.8 378.363C251.8 379.213 251.46 379.896 250.78 380.411C250.101 380.921 249.219 381.176 248.135 381.176C247.373 381.176 246.699 381.041 246.113 380.771C245.527 380.502 245.067 380.127 244.733 379.646C244.405 379.16 244.241 378.636 244.241 378.073H245.867C245.896 378.618 246.113 379.052 246.518 379.374C246.928 379.69 247.467 379.849 248.135 379.849C248.75 379.849 249.242 379.726 249.611 379.479C249.986 379.228 250.174 378.894 250.174 378.478Z" fill="white"/>
<path d="M275.608 379.62H281.673V381H273.912V368.203H275.608V379.62ZM282.912 376.157C282.912 375.226 283.094 374.388 283.457 373.644C283.826 372.899 284.336 372.325 284.986 371.921C285.643 371.517 286.39 371.314 287.228 371.314C288.522 371.314 289.568 371.763 290.365 372.659C291.168 373.556 291.569 374.748 291.569 376.236V376.351C291.569 377.276 291.391 378.108 291.033 378.847C290.682 379.579 290.175 380.15 289.513 380.561C288.856 380.971 288.101 381.176 287.245 381.176C285.956 381.176 284.91 380.728 284.107 379.831C283.311 378.935 282.912 377.748 282.912 376.271V376.157ZM284.547 376.351C284.547 377.405 284.79 378.252 285.276 378.891C285.769 379.529 286.425 379.849 287.245 379.849C288.071 379.849 288.728 379.526 289.214 378.882C289.7 378.231 289.943 377.323 289.943 376.157C289.943 375.114 289.694 374.271 289.196 373.626C288.704 372.976 288.048 372.65 287.228 372.65C286.425 372.65 285.777 372.97 285.285 373.608C284.793 374.247 284.547 375.161 284.547 376.351ZM302.028 378.759L303.856 371.49H305.482L302.714 381H301.396L299.084 373.793L296.834 381H295.516L292.756 371.49H294.373L296.245 378.609L298.46 371.49H299.77L302.028 378.759ZM311.09 381.176C309.801 381.176 308.752 380.754 307.943 379.91C307.135 379.061 306.73 377.927 306.73 376.509V376.21C306.73 375.267 306.909 374.426 307.267 373.688C307.63 372.943 308.134 372.363 308.778 371.947C309.429 371.525 310.132 371.314 310.888 371.314C312.124 371.314 313.085 371.722 313.771 372.536C314.456 373.351 314.799 374.517 314.799 376.034V376.711H308.356C308.38 377.648 308.652 378.407 309.174 378.987C309.701 379.562 310.369 379.849 311.178 379.849C311.752 379.849 312.238 379.731 312.637 379.497C313.035 379.263 313.384 378.952 313.683 378.565L314.676 379.339C313.879 380.563 312.684 381.176 311.09 381.176ZM310.888 372.65C310.231 372.65 309.681 372.891 309.235 373.371C308.79 373.846 308.515 374.514 308.409 375.375H313.173V375.252C313.126 374.426 312.903 373.787 312.505 373.336C312.106 372.879 311.567 372.65 310.888 372.65ZM321.285 372.949C321.039 372.908 320.772 372.888 320.485 372.888C319.419 372.888 318.695 373.342 318.314 374.25V381H316.688V371.49H318.271L318.297 372.589C318.83 371.739 319.586 371.314 320.564 371.314C320.881 371.314 321.121 371.355 321.285 371.438V372.949ZM327.508 381V368.203H331.691C333.08 368.203 334.123 368.49 334.82 369.064C335.523 369.639 335.875 370.488 335.875 371.613C335.875 372.211 335.705 372.741 335.365 373.204C335.025 373.661 334.562 374.016 333.977 374.268C334.668 374.461 335.213 374.83 335.611 375.375C336.016 375.914 336.218 376.559 336.218 377.309C336.218 378.457 335.846 379.359 335.102 380.016C334.357 380.672 333.306 381 331.946 381H327.508ZM329.195 375.015V379.62H331.981C332.767 379.62 333.385 379.418 333.836 379.014C334.293 378.604 334.521 378.041 334.521 377.326C334.521 375.785 333.684 375.015 332.008 375.015H329.195ZM329.195 373.661H331.744C332.482 373.661 333.071 373.477 333.511 373.107C333.956 372.738 334.179 372.237 334.179 371.604C334.179 370.901 333.974 370.392 333.563 370.075C333.153 369.753 332.529 369.592 331.691 369.592H329.195V373.661ZM344.339 381C344.245 380.812 344.169 380.479 344.11 379.998C343.354 380.783 342.452 381.176 341.403 381.176C340.466 381.176 339.695 380.912 339.092 380.385C338.494 379.852 338.195 379.178 338.195 378.363C338.195 377.373 338.57 376.605 339.32 376.061C340.076 375.51 341.137 375.234 342.502 375.234H344.084V374.487C344.084 373.919 343.914 373.468 343.574 373.134C343.234 372.794 342.733 372.624 342.071 372.624C341.491 372.624 341.005 372.771 340.612 373.063C340.22 373.356 340.023 373.711 340.023 374.127H338.389C338.389 373.652 338.556 373.195 338.89 372.756C339.229 372.311 339.687 371.959 340.261 371.701C340.841 371.443 341.477 371.314 342.168 371.314C343.264 371.314 344.122 371.59 344.743 372.141C345.364 372.686 345.687 373.438 345.71 374.399V378.776C345.71 379.649 345.821 380.344 346.044 380.859V381H344.339ZM341.641 379.761C342.15 379.761 342.634 379.629 343.091 379.365C343.548 379.102 343.879 378.759 344.084 378.337V376.386H342.81C340.817 376.386 339.821 376.969 339.821 378.135C339.821 378.645 339.991 379.043 340.331 379.33C340.671 379.617 341.107 379.761 341.641 379.761ZM352.073 379.849C352.653 379.849 353.16 379.673 353.594 379.321C354.027 378.97 354.268 378.53 354.314 378.003H355.853C355.823 378.548 355.636 379.066 355.29 379.559C354.944 380.051 354.481 380.443 353.901 380.736C353.327 381.029 352.718 381.176 352.073 381.176C350.778 381.176 349.747 380.745 348.979 379.884C348.218 379.017 347.837 377.833 347.837 376.333V376.061C347.837 375.135 348.007 374.312 348.347 373.591C348.687 372.87 349.173 372.311 349.806 371.912C350.444 371.514 351.197 371.314 352.064 371.314C353.131 371.314 354.016 371.634 354.719 372.272C355.428 372.911 355.806 373.74 355.853 374.76H354.314C354.268 374.145 354.033 373.641 353.611 373.248C353.195 372.85 352.68 372.65 352.064 372.65C351.238 372.65 350.597 372.949 350.14 373.547C349.688 374.139 349.463 374.997 349.463 376.122V376.43C349.463 377.525 349.688 378.369 350.14 378.961C350.591 379.553 351.235 379.849 352.073 379.849ZM360.335 376.597L359.315 377.66V381H357.689V367.5H359.315V375.665L360.186 374.619L363.147 371.49H365.125L361.425 375.463L365.556 381H363.648L360.335 376.597Z" fill="white"/>
<path d="M58.7139 444.015C58.7139 445.251 58.5176 446.317 58.125 447.214C57.7324 448.104 57.1816 448.802 56.4727 449.306L58.7578 451.099L57.6064 452.162L54.9082 450.018C54.4863 450.123 54.041 450.176 53.5723 450.176C52.5645 450.176 51.6709 449.93 50.8916 449.438C50.1123 448.939 49.5059 448.233 49.0723 447.319C48.6445 446.399 48.4248 445.336 48.4131 444.129V443.206C48.4131 441.976 48.627 440.889 49.0547 439.945C49.4824 439.002 50.0859 438.281 50.8652 437.783C51.6504 437.279 52.5469 437.027 53.5547 437.027C54.5859 437.027 55.4912 437.276 56.2705 437.774C57.0557 438.272 57.6592 438.99 58.0811 439.928C58.5029 440.859 58.7139 441.949 58.7139 443.197V444.015ZM57.0264 443.188C57.0264 441.683 56.7246 440.522 56.1211 439.708C55.5234 438.888 54.668 438.478 53.5547 438.478C52.4941 438.478 51.6562 438.885 51.041 439.699C50.4316 440.508 50.1182 441.633 50.1006 443.074V444.015C50.1006 445.479 50.4053 446.634 51.0146 447.478C51.6299 448.321 52.4824 448.743 53.5723 448.743C54.6621 448.743 55.5059 448.348 56.1035 447.557C56.7012 446.76 57.0088 445.62 57.0264 444.138V443.188ZM66.9316 449.06C66.2988 449.804 65.3701 450.176 64.1455 450.176C63.1318 450.176 62.3584 449.883 61.8252 449.297C61.2979 448.705 61.0312 447.832 61.0254 446.678V440.49H62.6514V446.634C62.6514 448.075 63.2373 448.796 64.4092 448.796C65.6514 448.796 66.4775 448.333 66.8877 447.407V440.49H68.5137V450H66.9668L66.9316 449.06ZM76.8633 450C76.7695 449.812 76.6934 449.479 76.6348 448.998C75.8789 449.783 74.9766 450.176 73.9277 450.176C72.9902 450.176 72.2197 449.912 71.6162 449.385C71.0186 448.852 70.7197 448.178 70.7197 447.363C70.7197 446.373 71.0947 445.605 71.8447 445.061C72.6006 444.51 73.6611 444.234 75.0264 444.234H76.6084V443.487C76.6084 442.919 76.4385 442.468 76.0986 442.134C75.7588 441.794 75.2578 441.624 74.5957 441.624C74.0156 441.624 73.5293 441.771 73.1367 442.063C72.7441 442.356 72.5479 442.711 72.5479 443.127H70.9131C70.9131 442.652 71.0801 442.195 71.4141 441.756C71.7539 441.311 72.2109 440.959 72.7852 440.701C73.3652 440.443 74.001 440.314 74.6924 440.314C75.7881 440.314 76.6465 440.59 77.2676 441.141C77.8887 441.686 78.2109 442.438 78.2344 443.399V447.776C78.2344 448.649 78.3457 449.344 78.5684 449.859V450H76.8633ZM74.165 448.761C74.6748 448.761 75.1582 448.629 75.6152 448.365C76.0723 448.102 76.4033 447.759 76.6084 447.337V445.386H75.334C73.3418 445.386 72.3457 445.969 72.3457 447.135C72.3457 447.645 72.5156 448.043 72.8555 448.33C73.1953 448.617 73.6318 448.761 74.165 448.761ZM80.3877 445.166C80.3877 443.707 80.7334 442.535 81.4248 441.65C82.1162 440.76 83.0215 440.314 84.1406 440.314C85.2539 440.314 86.1357 440.695 86.7861 441.457V436.5H88.4121V450H86.918L86.8389 448.98C86.1885 449.777 85.2832 450.176 84.123 450.176C83.0215 450.176 82.1221 449.725 81.4248 448.822C80.7334 447.92 80.3877 446.742 80.3877 445.289V445.166ZM82.0137 445.351C82.0137 446.429 82.2363 447.272 82.6816 447.882C83.127 448.491 83.7422 448.796 84.5273 448.796C85.5586 448.796 86.3115 448.333 86.7861 447.407V443.039C86.2998 442.143 85.5527 441.694 84.5449 441.694C83.748 441.694 83.127 442.002 82.6816 442.617C82.2363 443.232 82.0137 444.144 82.0137 445.351ZM95.54 441.949C95.2939 441.908 95.0273 441.888 94.7402 441.888C93.6738 441.888 92.9502 442.342 92.5693 443.25V450H90.9434V440.49H92.5254L92.5518 441.589C93.085 440.739 93.8408 440.314 94.8193 440.314C95.1357 440.314 95.376 440.355 95.54 440.438V441.949ZM98.8096 450H97.1836V440.49H98.8096V450ZM97.0518 437.968C97.0518 437.704 97.1309 437.481 97.2891 437.3C97.4531 437.118 97.6934 437.027 98.0098 437.027C98.3262 437.027 98.5664 437.118 98.7305 437.3C98.8945 437.481 98.9766 437.704 98.9766 437.968C98.9766 438.231 98.8945 438.451 98.7305 438.627C98.5664 438.803 98.3262 438.891 98.0098 438.891C97.6934 438.891 97.4531 438.803 97.2891 438.627C97.1309 438.451 97.0518 438.231 97.0518 437.968ZM105.234 448.849C105.814 448.849 106.321 448.673 106.755 448.321C107.188 447.97 107.429 447.53 107.476 447.003H109.014C108.984 447.548 108.797 448.066 108.451 448.559C108.105 449.051 107.643 449.443 107.062 449.736C106.488 450.029 105.879 450.176 105.234 450.176C103.939 450.176 102.908 449.745 102.141 448.884C101.379 448.017 100.998 446.833 100.998 445.333V445.061C100.998 444.135 101.168 443.312 101.508 442.591C101.848 441.87 102.334 441.311 102.967 440.912C103.605 440.514 104.358 440.314 105.226 440.314C106.292 440.314 107.177 440.634 107.88 441.272C108.589 441.911 108.967 442.74 109.014 443.76H107.476C107.429 443.145 107.194 442.641 106.772 442.248C106.356 441.85 105.841 441.65 105.226 441.65C104.399 441.65 103.758 441.949 103.301 442.547C102.85 443.139 102.624 443.997 102.624 445.122V445.43C102.624 446.525 102.85 447.369 103.301 447.961C103.752 448.553 104.396 448.849 105.234 448.849ZM114.788 450.176C113.499 450.176 112.45 449.754 111.642 448.91C110.833 448.061 110.429 446.927 110.429 445.509V445.21C110.429 444.267 110.607 443.426 110.965 442.688C111.328 441.943 111.832 441.363 112.477 440.947C113.127 440.525 113.83 440.314 114.586 440.314C115.822 440.314 116.783 440.722 117.469 441.536C118.154 442.351 118.497 443.517 118.497 445.034V445.711H112.055C112.078 446.648 112.351 447.407 112.872 447.987C113.399 448.562 114.067 448.849 114.876 448.849C115.45 448.849 115.937 448.731 116.335 448.497C116.733 448.263 117.082 447.952 117.381 447.565L118.374 448.339C117.577 449.563 116.382 450.176 114.788 450.176ZM114.586 441.65C113.93 441.65 113.379 441.891 112.934 442.371C112.488 442.846 112.213 443.514 112.107 444.375H116.871V444.252C116.824 443.426 116.602 442.787 116.203 442.336C115.805 441.879 115.266 441.65 114.586 441.65ZM128.42 445.351C128.42 446.798 128.089 447.964 127.427 448.849C126.765 449.733 125.868 450.176 124.737 450.176C123.583 450.176 122.675 449.81 122.013 449.077V453.656H120.387V440.49H121.872L121.951 441.545C122.613 440.725 123.533 440.314 124.711 440.314C125.854 440.314 126.756 440.745 127.418 441.606C128.086 442.468 128.42 443.666 128.42 445.201V445.351ZM126.794 445.166C126.794 444.094 126.565 443.247 126.108 442.626C125.651 442.005 125.024 441.694 124.228 441.694C123.243 441.694 122.505 442.131 122.013 443.004V447.548C122.499 448.415 123.243 448.849 124.245 448.849C125.024 448.849 125.643 448.541 126.1 447.926C126.562 447.305 126.794 446.385 126.794 445.166ZM136.031 447.478C136.031 447.038 135.864 446.698 135.53 446.458C135.202 446.212 134.625 446.001 133.799 445.825C132.979 445.649 132.325 445.438 131.839 445.192C131.358 444.946 131.001 444.653 130.767 444.313C130.538 443.974 130.424 443.569 130.424 443.101C130.424 442.321 130.752 441.662 131.408 441.123C132.07 440.584 132.914 440.314 133.939 440.314C135.018 440.314 135.891 440.593 136.559 441.149C137.232 441.706 137.569 442.418 137.569 443.285H135.935C135.935 442.84 135.744 442.456 135.363 442.134C134.988 441.812 134.514 441.65 133.939 441.65C133.348 441.65 132.885 441.779 132.551 442.037C132.217 442.295 132.05 442.632 132.05 443.048C132.05 443.44 132.205 443.736 132.516 443.936C132.826 444.135 133.386 444.325 134.194 444.507C135.009 444.688 135.668 444.905 136.172 445.157C136.676 445.409 137.048 445.714 137.288 446.071C137.534 446.423 137.657 446.854 137.657 447.363C137.657 448.213 137.317 448.896 136.638 449.411C135.958 449.921 135.076 450.176 133.992 450.176C133.23 450.176 132.557 450.041 131.971 449.771C131.385 449.502 130.925 449.127 130.591 448.646C130.263 448.16 130.099 447.636 130.099 447.073H131.725C131.754 447.618 131.971 448.052 132.375 448.374C132.785 448.69 133.324 448.849 133.992 448.849C134.607 448.849 135.1 448.726 135.469 448.479C135.844 448.228 136.031 447.894 136.031 447.478Z" fill="white"/>
<path d="M171.625 445.296C170.178 444.88 169.123 444.37 168.461 443.767C167.805 443.157 167.477 442.407 167.477 441.517C167.477 440.509 167.878 439.677 168.681 439.021C169.489 438.358 170.538 438.027 171.827 438.027C172.706 438.027 173.488 438.197 174.174 438.537C174.865 438.877 175.398 439.346 175.773 439.943C176.154 440.541 176.345 441.194 176.345 441.903H174.648C174.648 441.13 174.402 440.523 173.91 440.084C173.418 439.639 172.724 439.416 171.827 439.416C170.995 439.416 170.345 439.601 169.876 439.97C169.413 440.333 169.182 440.84 169.182 441.49C169.182 442.012 169.401 442.454 169.841 442.817C170.286 443.175 171.039 443.503 172.1 443.802C173.166 444.101 173.998 444.432 174.596 444.795C175.199 445.152 175.645 445.571 175.932 446.052C176.225 446.532 176.371 447.098 176.371 447.748C176.371 448.785 175.967 449.617 175.158 450.244C174.35 450.865 173.269 451.176 171.915 451.176C171.036 451.176 170.216 451.009 169.454 450.675C168.692 450.335 168.104 449.872 167.688 449.286C167.277 448.7 167.072 448.035 167.072 447.291H168.769C168.769 448.064 169.053 448.677 169.621 449.128C170.195 449.573 170.96 449.796 171.915 449.796C172.806 449.796 173.488 449.614 173.963 449.251C174.438 448.888 174.675 448.393 174.675 447.766C174.675 447.139 174.455 446.655 174.016 446.315C173.576 445.97 172.779 445.63 171.625 445.296ZM179.913 442.642C180.634 441.757 181.571 441.314 182.726 441.314C184.735 441.314 185.749 442.448 185.767 444.716V451H184.141V444.707C184.135 444.021 183.977 443.515 183.666 443.187C183.361 442.858 182.884 442.694 182.233 442.694C181.706 442.694 181.243 442.835 180.845 443.116C180.446 443.397 180.136 443.767 179.913 444.224V451H178.287V437.5H179.913V442.642ZM187.771 446.157C187.771 445.226 187.952 444.388 188.315 443.644C188.685 442.899 189.194 442.325 189.845 441.921C190.501 441.517 191.248 441.314 192.086 441.314C193.381 441.314 194.427 441.763 195.224 442.659C196.026 443.556 196.428 444.748 196.428 446.236V446.351C196.428 447.276 196.249 448.108 195.892 448.847C195.54 449.579 195.033 450.15 194.371 450.561C193.715 450.971 192.959 451.176 192.104 451.176C190.814 451.176 189.769 450.728 188.966 449.831C188.169 448.935 187.771 447.748 187.771 446.271V446.157ZM189.405 446.351C189.405 447.405 189.648 448.252 190.135 448.891C190.627 449.529 191.283 449.849 192.104 449.849C192.93 449.849 193.586 449.526 194.072 448.882C194.559 448.231 194.802 447.323 194.802 446.157C194.802 445.114 194.553 444.271 194.055 443.626C193.562 442.976 192.906 442.65 192.086 442.65C191.283 442.65 190.636 442.97 190.144 443.608C189.651 444.247 189.405 445.161 189.405 446.351ZM204.338 450.06C203.705 450.804 202.776 451.176 201.552 451.176C200.538 451.176 199.765 450.883 199.231 450.297C198.704 449.705 198.438 448.832 198.432 447.678V441.49H200.058V447.634C200.058 449.075 200.644 449.796 201.815 449.796C203.058 449.796 203.884 449.333 204.294 448.407V441.49H205.92V451H204.373L204.338 450.06ZM210.165 451H208.539V437.5H210.165V451ZM212.38 446.166C212.38 444.707 212.726 443.535 213.417 442.65C214.108 441.76 215.014 441.314 216.133 441.314C217.246 441.314 218.128 441.695 218.778 442.457V437.5H220.404V451H218.91L218.831 449.98C218.181 450.777 217.275 451.176 216.115 451.176C215.014 451.176 214.114 450.725 213.417 449.822C212.726 448.92 212.38 447.742 212.38 446.289V446.166ZM214.006 446.351C214.006 447.429 214.229 448.272 214.674 448.882C215.119 449.491 215.734 449.796 216.52 449.796C217.551 449.796 218.304 449.333 218.778 448.407V444.039C218.292 443.143 217.545 442.694 216.537 442.694C215.74 442.694 215.119 443.002 214.674 443.617C214.229 444.232 214.006 445.144 214.006 446.351ZM226.882 451.176C225.593 451.176 224.544 450.754 223.735 449.91C222.927 449.061 222.522 447.927 222.522 446.509V446.21C222.522 445.267 222.701 444.426 223.059 443.688C223.422 442.943 223.926 442.363 224.57 441.947C225.221 441.525 225.924 441.314 226.68 441.314C227.916 441.314 228.877 441.722 229.562 442.536C230.248 443.351 230.591 444.517 230.591 446.034V446.711H224.148C224.172 447.648 224.444 448.407 224.966 448.987C225.493 449.562 226.161 449.849 226.97 449.849C227.544 449.849 228.03 449.731 228.429 449.497C228.827 449.263 229.176 448.952 229.475 448.565L230.468 449.339C229.671 450.563 228.476 451.176 226.882 451.176ZM226.68 442.65C226.023 442.65 225.473 442.891 225.027 443.371C224.582 443.846 224.307 444.514 224.201 445.375H228.965V445.252C228.918 444.426 228.695 443.787 228.297 443.336C227.898 442.879 227.359 442.65 226.68 442.65ZM237.077 442.949C236.831 442.908 236.564 442.888 236.277 442.888C235.211 442.888 234.487 443.342 234.106 444.25V451H232.48V441.49H234.062L234.089 442.589C234.622 441.739 235.378 441.314 236.356 441.314C236.673 441.314 236.913 441.355 237.077 441.438V442.949ZM244.117 448.478C244.117 448.038 243.95 447.698 243.616 447.458C243.288 447.212 242.711 447.001 241.885 446.825C241.064 446.649 240.411 446.438 239.925 446.192C239.444 445.946 239.087 445.653 238.853 445.313C238.624 444.974 238.51 444.569 238.51 444.101C238.51 443.321 238.838 442.662 239.494 442.123C240.156 441.584 241 441.314 242.025 441.314C243.104 441.314 243.977 441.593 244.645 442.149C245.318 442.706 245.655 443.418 245.655 444.285H244.021C244.021 443.84 243.83 443.456 243.449 443.134C243.074 442.812 242.6 442.65 242.025 442.65C241.434 442.65 240.971 442.779 240.637 443.037C240.303 443.295 240.136 443.632 240.136 444.048C240.136 444.44 240.291 444.736 240.602 444.936C240.912 445.135 241.472 445.325 242.28 445.507C243.095 445.688 243.754 445.905 244.258 446.157C244.762 446.409 245.134 446.714 245.374 447.071C245.62 447.423 245.743 447.854 245.743 448.363C245.743 449.213 245.403 449.896 244.724 450.411C244.044 450.921 243.162 451.176 242.078 451.176C241.316 451.176 240.643 451.041 240.057 450.771C239.471 450.502 239.011 450.127 238.677 449.646C238.349 449.16 238.185 448.636 238.185 448.073H239.811C239.84 448.618 240.057 449.052 240.461 449.374C240.871 449.69 241.41 449.849 242.078 449.849C242.693 449.849 243.186 449.726 243.555 449.479C243.93 449.228 244.117 448.894 244.117 448.478Z" fill="white"/>
<path d="M307.327 439.592H303.214V451H301.535V439.592H297.431V438.203H307.327V439.592ZM312.899 442.949C312.653 442.908 312.387 442.888 312.1 442.888C311.033 442.888 310.31 443.342 309.929 444.25V451H308.303V441.49H309.885L309.911 442.589C310.444 441.739 311.2 441.314 312.179 441.314C312.495 441.314 312.735 441.355 312.899 441.438V442.949ZM319.922 451C319.828 450.812 319.752 450.479 319.693 449.998C318.938 450.783 318.035 451.176 316.986 451.176C316.049 451.176 315.278 450.912 314.675 450.385C314.077 449.852 313.778 449.178 313.778 448.363C313.778 447.373 314.153 446.605 314.903 446.061C315.659 445.51 316.72 445.234 318.085 445.234H319.667V444.487C319.667 443.919 319.497 443.468 319.157 443.134C318.817 442.794 318.316 442.624 317.654 442.624C317.074 442.624 316.588 442.771 316.195 443.063C315.803 443.356 315.606 443.711 315.606 444.127H313.972C313.972 443.652 314.139 443.195 314.473 442.756C314.812 442.311 315.27 441.959 315.844 441.701C316.424 441.443 317.06 441.314 317.751 441.314C318.847 441.314 319.705 441.59 320.326 442.141C320.947 442.686 321.27 443.438 321.293 444.399V448.776C321.293 449.649 321.404 450.344 321.627 450.859V451H319.922ZM317.224 449.761C317.733 449.761 318.217 449.629 318.674 449.365C319.131 449.102 319.462 448.759 319.667 448.337V446.386H318.393C316.4 446.386 315.404 446.969 315.404 448.135C315.404 448.645 315.574 449.043 315.914 449.33C316.254 449.617 316.69 449.761 317.224 449.761ZM331.875 446.351C331.875 447.798 331.544 448.964 330.882 449.849C330.22 450.733 329.323 451.176 328.192 451.176C327.038 451.176 326.13 450.81 325.468 450.077V454.656H323.842V441.49H325.327L325.406 442.545C326.068 441.725 326.988 441.314 328.166 441.314C329.309 441.314 330.211 441.745 330.873 442.606C331.541 443.468 331.875 444.666 331.875 446.201V446.351ZM330.249 446.166C330.249 445.094 330.021 444.247 329.563 443.626C329.106 443.005 328.479 442.694 327.683 442.694C326.698 442.694 325.96 443.131 325.468 444.004V448.548C325.954 449.415 326.698 449.849 327.7 449.849C328.479 449.849 329.098 449.541 329.555 448.926C330.018 448.305 330.249 447.385 330.249 446.166ZM339.486 448.478C339.486 448.038 339.319 447.698 338.985 447.458C338.657 447.212 338.08 447.001 337.254 446.825C336.434 446.649 335.78 446.438 335.294 446.192C334.813 445.946 334.456 445.653 334.222 445.313C333.993 444.974 333.879 444.569 333.879 444.101C333.879 443.321 334.207 442.662 334.863 442.123C335.525 441.584 336.369 441.314 337.395 441.314C338.473 441.314 339.346 441.593 340.014 442.149C340.688 442.706 341.024 443.418 341.024 444.285H339.39C339.39 443.84 339.199 443.456 338.818 443.134C338.443 442.812 337.969 442.65 337.395 442.65C336.803 442.65 336.34 442.779 336.006 443.037C335.672 443.295 335.505 443.632 335.505 444.048C335.505 444.44 335.66 444.736 335.971 444.936C336.281 445.135 336.841 445.325 337.649 445.507C338.464 445.688 339.123 445.905 339.627 446.157C340.131 446.409 340.503 446.714 340.743 447.071C340.989 447.423 341.112 447.854 341.112 448.363C341.112 449.213 340.772 449.896 340.093 450.411C339.413 450.921 338.531 451.176 337.447 451.176C336.686 451.176 336.012 451.041 335.426 450.771C334.84 450.502 334.38 450.127 334.046 449.646C333.718 449.16 333.554 448.636 333.554 448.073H335.18C335.209 448.618 335.426 449.052 335.83 449.374C336.24 449.69 336.779 449.849 337.447 449.849C338.062 449.849 338.555 449.726 338.924 449.479C339.299 449.228 339.486 448.894 339.486 448.478Z" fill="white"/>
<path d="M74.375 509.592H70.2617V521H68.583V509.592H64.4785V508.203H74.375V509.592ZM79.9473 512.949C79.7012 512.908 79.4346 512.888 79.1475 512.888C78.0811 512.888 77.3574 513.342 76.9766 514.25V521H75.3506V511.49H76.9326L76.959 512.589C77.4922 511.739 78.248 511.314 79.2266 511.314C79.543 511.314 79.7832 511.355 79.9473 511.438V512.949ZM83.2168 521H81.5908V511.49H83.2168V521ZM81.459 508.968C81.459 508.704 81.5381 508.481 81.6963 508.3C81.8604 508.118 82.1006 508.027 82.417 508.027C82.7334 508.027 82.9736 508.118 83.1377 508.3C83.3018 508.481 83.3838 508.704 83.3838 508.968C83.3838 509.231 83.3018 509.451 83.1377 509.627C82.9736 509.803 82.7334 509.891 82.417 509.891C82.1006 509.891 81.8604 509.803 81.6963 509.627C81.5381 509.451 81.459 509.231 81.459 508.968ZM89.6416 519.849C90.2217 519.849 90.7285 519.673 91.1621 519.321C91.5957 518.97 91.8359 518.53 91.8828 518.003H93.4209C93.3916 518.548 93.2041 519.066 92.8584 519.559C92.5127 520.051 92.0498 520.443 91.4697 520.736C90.8955 521.029 90.2861 521.176 89.6416 521.176C88.3467 521.176 87.3154 520.745 86.5479 519.884C85.7861 519.017 85.4053 517.833 85.4053 516.333V516.061C85.4053 515.135 85.5752 514.312 85.915 513.591C86.2549 512.87 86.7412 512.311 87.374 511.912C88.0127 511.514 88.7656 511.314 89.6328 511.314C90.6992 511.314 91.584 511.634 92.2871 512.272C92.9961 512.911 93.374 513.74 93.4209 514.76H91.8828C91.8359 514.145 91.6016 513.641 91.1797 513.248C90.7637 512.85 90.248 512.65 89.6328 512.65C88.8066 512.65 88.165 512.949 87.708 513.547C87.2568 514.139 87.0312 514.997 87.0312 516.122V516.43C87.0312 517.525 87.2568 518.369 87.708 518.961C88.1592 519.553 88.8037 519.849 89.6416 519.849ZM99.1953 521.176C97.9062 521.176 96.8574 520.754 96.0488 519.91C95.2402 519.061 94.8359 517.927 94.8359 516.509V516.21C94.8359 515.267 95.0146 514.426 95.3721 513.688C95.7354 512.943 96.2393 512.363 96.8838 511.947C97.5342 511.525 98.2373 511.314 98.9932 511.314C100.229 511.314 101.19 511.722 101.876 512.536C102.562 513.351 102.904 514.517 102.904 516.034V516.711H96.4619C96.4854 517.648 96.7578 518.407 97.2793 518.987C97.8066 519.562 98.4746 519.849 99.2832 519.849C99.8574 519.849 100.344 519.731 100.742 519.497C101.141 519.263 101.489 518.952 101.788 518.565L102.781 519.339C101.984 520.563 100.789 521.176 99.1953 521.176ZM98.9932 512.65C98.3369 512.65 97.7861 512.891 97.3408 513.371C96.8955 513.846 96.6201 514.514 96.5146 515.375H101.278V515.252C101.231 514.426 101.009 513.787 100.61 513.336C100.212 512.879 99.6729 512.65 98.9932 512.65ZM112.827 516.351C112.827 517.798 112.496 518.964 111.834 519.849C111.172 520.733 110.275 521.176 109.145 521.176C107.99 521.176 107.082 520.81 106.42 520.077V524.656H104.794V511.49H106.279L106.358 512.545C107.021 511.725 107.94 511.314 109.118 511.314C110.261 511.314 111.163 511.745 111.825 512.606C112.493 513.468 112.827 514.666 112.827 516.201V516.351ZM111.201 516.166C111.201 515.094 110.973 514.247 110.516 513.626C110.059 513.005 109.432 512.694 108.635 512.694C107.65 512.694 106.912 513.131 106.42 514.004V518.548C106.906 519.415 107.65 519.849 108.652 519.849C109.432 519.849 110.05 519.541 110.507 518.926C110.97 518.305 111.201 517.385 111.201 516.166ZM120.438 518.478C120.438 518.038 120.271 517.698 119.938 517.458C119.609 517.212 119.032 517.001 118.206 516.825C117.386 516.649 116.732 516.438 116.246 516.192C115.766 515.946 115.408 515.653 115.174 515.313C114.945 514.974 114.831 514.569 114.831 514.101C114.831 513.321 115.159 512.662 115.815 512.123C116.478 511.584 117.321 511.314 118.347 511.314C119.425 511.314 120.298 511.593 120.966 512.149C121.64 512.706 121.977 513.418 121.977 514.285H120.342C120.342 513.84 120.151 513.456 119.771 513.134C119.396 512.812 118.921 512.65 118.347 512.65C117.755 512.65 117.292 512.779 116.958 513.037C116.624 513.295 116.457 513.632 116.457 514.048C116.457 514.44 116.612 514.736 116.923 514.936C117.233 515.135 117.793 515.325 118.602 515.507C119.416 515.688 120.075 515.905 120.579 516.157C121.083 516.409 121.455 516.714 121.695 517.071C121.941 517.423 122.064 517.854 122.064 518.363C122.064 519.213 121.725 519.896 121.045 520.411C120.365 520.921 119.483 521.176 118.399 521.176C117.638 521.176 116.964 521.041 116.378 520.771C115.792 520.502 115.332 520.127 114.998 519.646C114.67 519.16 114.506 518.636 114.506 518.073H116.132C116.161 518.618 116.378 519.052 116.782 519.374C117.192 519.69 117.731 519.849 118.399 519.849C119.015 519.849 119.507 519.726 119.876 519.479C120.251 519.228 120.438 518.894 120.438 518.478Z" fill="white"/>
<path d="M170.721 508.203V516.904C170.715 518.111 170.334 519.099 169.578 519.866C168.828 520.634 167.809 521.064 166.52 521.158L166.071 521.176C164.671 521.176 163.555 520.798 162.723 520.042C161.891 519.286 161.469 518.246 161.457 516.922V508.203H163.127V516.869C163.127 517.795 163.382 518.516 163.892 519.031C164.401 519.541 165.128 519.796 166.071 519.796C167.026 519.796 167.756 519.541 168.26 519.031C168.77 518.521 169.024 517.804 169.024 516.878V508.203H170.721ZM181.162 516.351C181.162 517.798 180.831 518.964 180.169 519.849C179.507 520.733 178.61 521.176 177.479 521.176C176.325 521.176 175.417 520.81 174.755 520.077V524.656H173.129V511.49H174.614L174.693 512.545C175.355 511.725 176.275 511.314 177.453 511.314C178.596 511.314 179.498 511.745 180.16 512.606C180.828 513.468 181.162 514.666 181.162 516.201V516.351ZM179.536 516.166C179.536 515.094 179.308 514.247 178.851 513.626C178.394 513.005 177.767 512.694 176.97 512.694C175.985 512.694 175.247 513.131 174.755 514.004V518.548C175.241 519.415 175.985 519.849 176.987 519.849C177.767 519.849 178.385 519.541 178.842 518.926C179.305 518.305 179.536 517.385 179.536 516.166ZM191.27 516.351C191.27 517.798 190.938 518.964 190.276 519.849C189.614 520.733 188.718 521.176 187.587 521.176C186.433 521.176 185.524 520.81 184.862 520.077V524.656H183.236V511.49H184.722L184.801 512.545C185.463 511.725 186.383 511.314 187.561 511.314C188.703 511.314 189.605 511.745 190.268 512.606C190.936 513.468 191.27 514.666 191.27 516.201V516.351ZM189.644 516.166C189.644 515.094 189.415 514.247 188.958 513.626C188.501 513.005 187.874 512.694 187.077 512.694C186.093 512.694 185.354 513.131 184.862 514.004V518.548C185.349 519.415 186.093 519.849 187.095 519.849C187.874 519.849 188.492 519.541 188.949 518.926C189.412 518.305 189.644 517.385 189.644 516.166ZM197.29 521.176C196.001 521.176 194.952 520.754 194.144 519.91C193.335 519.061 192.931 517.927 192.931 516.509V516.21C192.931 515.267 193.109 514.426 193.467 513.688C193.83 512.943 194.334 512.363 194.979 511.947C195.629 511.525 196.332 511.314 197.088 511.314C198.324 511.314 199.285 511.722 199.971 512.536C200.656 513.351 200.999 514.517 200.999 516.034V516.711H194.557C194.58 517.648 194.853 518.407 195.374 518.987C195.901 519.562 196.569 519.849 197.378 519.849C197.952 519.849 198.438 519.731 198.837 519.497C199.235 519.263 199.584 518.952 199.883 518.565L200.876 519.339C200.079 520.563 198.884 521.176 197.29 521.176ZM197.088 512.65C196.432 512.65 195.881 512.891 195.436 513.371C194.99 513.846 194.715 514.514 194.609 515.375H199.373V515.252C199.326 514.426 199.104 513.787 198.705 513.336C198.307 512.879 197.768 512.65 197.088 512.65ZM207.485 512.949C207.239 512.908 206.973 512.888 206.686 512.888C205.619 512.888 204.896 513.342 204.515 514.25V521H202.889V511.49H204.471L204.497 512.589C205.03 511.739 205.786 511.314 206.765 511.314C207.081 511.314 207.321 511.355 207.485 511.438V512.949ZM213.708 521V508.203H217.892C219.28 508.203 220.323 508.49 221.021 509.064C221.724 509.639 222.075 510.488 222.075 511.613C222.075 512.211 221.905 512.741 221.565 513.204C221.226 513.661 220.763 514.016 220.177 514.268C220.868 514.461 221.413 514.83 221.812 515.375C222.216 515.914 222.418 516.559 222.418 517.309C222.418 518.457 222.046 519.359 221.302 520.016C220.558 520.672 219.506 521 218.146 521H213.708ZM215.396 515.015V519.62H218.182C218.967 519.62 219.585 519.418 220.036 519.014C220.493 518.604 220.722 518.041 220.722 517.326C220.722 515.785 219.884 515.015 218.208 515.015H215.396ZM215.396 513.661H217.944C218.683 513.661 219.271 513.477 219.711 513.107C220.156 512.738 220.379 512.237 220.379 511.604C220.379 510.901 220.174 510.392 219.764 510.075C219.354 509.753 218.729 509.592 217.892 509.592H215.396V513.661ZM230.539 521C230.445 520.812 230.369 520.479 230.311 519.998C229.555 520.783 228.652 521.176 227.604 521.176C226.666 521.176 225.896 520.912 225.292 520.385C224.694 519.852 224.396 519.178 224.396 518.363C224.396 517.373 224.771 516.605 225.521 516.061C226.276 515.51 227.337 515.234 228.702 515.234H230.284V514.487C230.284 513.919 230.114 513.468 229.774 513.134C229.435 512.794 228.934 512.624 228.271 512.624C227.691 512.624 227.205 512.771 226.812 513.063C226.42 513.356 226.224 513.711 226.224 514.127H224.589C224.589 513.652 224.756 513.195 225.09 512.756C225.43 512.311 225.887 511.959 226.461 511.701C227.041 511.443 227.677 511.314 228.368 511.314C229.464 511.314 230.322 511.59 230.943 512.141C231.564 512.686 231.887 513.438 231.91 514.399V518.776C231.91 519.649 232.021 520.344 232.244 520.859V521H230.539ZM227.841 519.761C228.351 519.761 228.834 519.629 229.291 519.365C229.748 519.102 230.079 518.759 230.284 518.337V516.386H229.01C227.018 516.386 226.021 516.969 226.021 518.135C226.021 518.645 226.191 519.043 226.531 519.33C226.871 519.617 227.308 519.761 227.841 519.761ZM238.273 519.849C238.854 519.849 239.36 519.673 239.794 519.321C240.228 518.97 240.468 518.53 240.515 518.003H242.053C242.023 518.548 241.836 519.066 241.49 519.559C241.145 520.051 240.682 520.443 240.102 520.736C239.527 521.029 238.918 521.176 238.273 521.176C236.979 521.176 235.947 520.745 235.18 519.884C234.418 519.017 234.037 517.833 234.037 516.333V516.061C234.037 515.135 234.207 514.312 234.547 513.591C234.887 512.87 235.373 512.311 236.006 511.912C236.645 511.514 237.397 511.314 238.265 511.314C239.331 511.314 240.216 511.634 240.919 512.272C241.628 512.911 242.006 513.74 242.053 514.76H240.515C240.468 514.145 240.233 513.641 239.812 513.248C239.396 512.85 238.88 512.65 238.265 512.65C237.438 512.65 236.797 512.949 236.34 513.547C235.889 514.139 235.663 514.997 235.663 516.122V516.43C235.663 517.525 235.889 518.369 236.34 518.961C236.791 519.553 237.436 519.849 238.273 519.849ZM246.535 516.597L245.516 517.66V521H243.89V507.5H245.516V515.665L246.386 514.619L249.348 511.49H251.325L247.625 515.463L251.756 521H249.849L246.535 516.597Z" fill="white"/>
<rect y="810" width="414" height="86" fill="url(#paint1_linear)"/>
<path d="M182.156 857.484H175.992L174.82 861H171.082L177.434 843.938H180.691L187.078 861H183.34L182.156 857.484ZM176.941 854.637H181.207L179.062 848.25L176.941 854.637ZM192.188 854.988V861H188.672V843.938H195.328C196.609 843.938 197.734 844.172 198.703 844.641C199.68 845.109 200.43 845.777 200.953 846.645C201.477 847.504 201.738 848.484 201.738 849.586C201.738 851.258 201.164 852.578 200.016 853.547C198.875 854.508 197.293 854.988 195.27 854.988H192.188ZM192.188 852.141H195.328C196.258 852.141 196.965 851.922 197.449 851.484C197.941 851.047 198.188 850.422 198.188 849.609C198.188 848.773 197.941 848.098 197.449 847.582C196.957 847.066 196.277 846.801 195.41 846.785H192.188V852.141ZM207.68 854.988V861H204.164V843.938H210.82C212.102 843.938 213.227 844.172 214.195 844.641C215.172 845.109 215.922 845.777 216.445 846.645C216.969 847.504 217.23 848.484 217.23 849.586C217.23 851.258 216.656 852.578 215.508 853.547C214.367 854.508 212.785 854.988 210.762 854.988H207.68ZM207.68 852.141H210.82C211.75 852.141 212.457 851.922 212.941 851.484C213.434 851.047 213.68 850.422 213.68 849.609C213.68 848.773 213.434 848.098 212.941 847.582C212.449 847.066 211.77 846.801 210.902 846.785H207.68V852.141ZM223.172 858.176H230.637V861H219.656V843.938H223.172V858.176ZM235.266 851.625L238.816 843.938H242.66L237.059 854.812V861H233.484V854.812L227.883 843.938H231.738L235.266 851.625Z" fill="white"/>
<defs>
<linearGradient id="paint0_linear" x1="207" y1="0" x2="207" y2="896" gradientUnits="userSpaceOnUse">
<stop stop-color="#FFC1A7"/>
<stop offset="1" stop-color="#FF0000" stop-opacity="0.28"/>
</linearGradient>
<linearGradient id="paint1_linear" x1="0" y1="896" x2="414" y2="896" gradientUnits="userSpaceOnUse">
<stop stop-color="#FFBCA4"/>
<stop offset="1" stop-color="#FD9D9A"/>
</linearGradient>
</defs>
</svg>
