<svg width="348" height="152" viewBox="0 0 348 152" fill="none" xmlns="http://www.w3.org/2000/svg">
<g filter="url(#filter0_d)">
<rect x="80" y="24.1513" width="68.3571" height="88.2945" rx="10" transform="rotate(-20 80 24.1513)" fill="white"/>
<rect x="80.6409" y="24.4502" width="67.3571" height="87.2945" rx="9.5" transform="rotate(-20 80.6409 24.4502)" stroke="#AAAAAA"/>
</g>
<g clip-path="url(#clip0)">
<path d="M103.966 39.1688L103.496 39.3398L103.667 39.8097L116.298 74.5123L116.469 74.9822L116.939 74.8112L151.642 62.1804L152.111 62.0094L151.94 61.5396L139.31 26.8369L139.139 26.367L138.669 26.5381L103.966 39.1688Z" stroke="#AAAAAA"/>
<path d="M142.606 58.3872L140.671 53.0732L142.37 52.4548C144.625 51.6341 145.789 49.1383 144.968 46.8834C144.148 44.6285 141.652 43.4647 139.397 44.2854L137.698 44.9038L135.764 39.5899C135.091 37.7399 133.029 36.7784 131.179 37.4517L125.865 39.3858L125.246 37.6868C124.426 35.4319 121.93 34.2681 119.675 35.0888C117.42 35.9095 116.256 38.4053 117.077 40.6602L117.695 42.3593L112.381 44.2934C110.528 44.9679 109.585 47.0265 110.258 48.8734L112.257 54.368L112.428 54.8379L112.898 54.6669L115.053 53.8827C116.948 53.193 119.047 54.172 119.737 56.067C120.427 57.9619 119.448 60.0614 117.553 60.7511L115.384 61.5405L114.914 61.7115L115.085 62.1814L117.085 67.676C117.758 69.526 119.82 70.4875 121.67 69.8141L127.165 67.8143L127.635 67.6433L127.464 67.1734L126.674 65.0045C125.984 63.1095 126.963 61.0101 128.858 60.3203C130.753 59.6306 132.853 60.6096 133.543 62.5046L134.332 64.6735L134.503 65.1434L134.973 64.9723L140.467 62.9725C142.317 62.2991 143.279 60.2372 142.606 58.3872Z" fill="url(#paint0_linear)" stroke="#AAAAAA"/>
</g>
<g filter="url(#filter1_d)">
<rect x="202.765" y="0.771912" width="68.3571" height="88.2946" rx="10" transform="rotate(20 202.765 0.771912)" fill="white"/>
<rect x="203.064" y="1.41277" width="67.3571" height="87.2946" rx="9.5" transform="rotate(20 203.064 1.41277)" stroke="#AAAAAA"/>
</g>
<g clip-path="url(#clip1)">
<path d="M210.271 26.538L209.801 26.367L209.63 26.8369L197.067 61.3522L196.896 61.822L197.366 61.993L231.882 74.5556L232.351 74.7266L232.522 74.2567L245.085 39.7414L245.256 39.2716L244.786 39.1006L210.271 26.538Z" stroke="#AAAAAA"/>
<path d="M226.482 35.6956C218.284 32.7117 209.209 36.9434 206.225 45.1414C203.241 53.3394 207.473 62.4142 215.671 65.398C223.869 68.3818 232.944 64.1502 235.927 55.9522C238.911 47.7542 234.68 38.6794 226.482 35.6956ZM215.869 58.918L215.216 60.7121C210.353 57.923 208.059 51.9746 210.041 46.5303C210.241 45.9795 210.482 45.4609 210.756 44.9623L214.651 53.3145L214.198 54.558C213.586 56.2401 214.332 58.0981 215.869 58.918ZM221.678 45.88L222.554 43.4735L224.961 44.3494C226.758 45.0036 228.756 44.1075 229.474 42.3518C232.523 45.484 233.702 50.1935 232.112 54.5633C231.162 57.1734 229.377 59.2342 227.174 60.5687C226.943 59.3919 226.13 58.3686 224.906 57.9233L223.938 57.5708L225.337 53.7263C225.719 52.6758 225.174 51.5062 224.124 51.1238L215.965 48.1542L216.669 46.2176L219.076 47.0935C220.126 47.4758 221.296 46.9304 221.678 45.88Z" fill="url(#paint1_linear)" stroke="#AAAAAA"/>
</g>
<g filter="url(#filter2_d)">
<rect x="141.152" y="19.2852" width="68.3571" height="88.2946" rx="10" transform="rotate(3.64426 141.152 19.2852)" fill="white"/>
<rect x="141.619" y="19.816" width="67.3571" height="87.2946" rx="9.5" transform="rotate(3.64426 141.619 19.816)" stroke="#AAAAAA"/>
</g>
<path d="M161.481 62.2627L161.637 58.3596L171.301 63.9228C171.301 63.9229 171.301 63.9231 171.301 63.9232C172.475 64.6027 173.913 64.66 175.137 64.076C175.137 64.0759 175.137 64.0758 175.137 64.0757L185.213 59.2997L185.058 63.2028C185.016 64.2394 184.384 65.1928 183.399 65.66L174.439 69.9039L174.438 69.9046C173.511 70.3468 172.422 70.3034 171.534 69.7888L171.532 69.788L162.939 64.8441C161.994 64.3 161.44 63.2993 161.481 62.2627ZM171.936 59.6918L171.935 59.691L157.447 51.3609C157.447 51.3608 157.446 51.3606 157.446 51.3605C156.609 50.8742 156.656 49.7012 157.529 49.2832C157.529 49.283 157.53 49.2829 157.53 49.2828L172.633 42.1337C173.561 41.7059 174.653 41.7495 175.544 42.2499C175.545 42.2503 175.546 42.2506 175.546 42.2509L191.9 51.6457C191.901 51.6462 191.902 51.6467 191.902 51.6471C192.304 51.886 192.526 52.2879 192.509 52.7127L192.079 63.4996C192.053 64.1296 191.485 64.661 190.776 64.6328C190.066 64.6045 189.542 64.0294 189.567 63.3995L189.964 53.454L189.996 52.6286L189.25 52.9822L174.842 59.807L174.84 59.8076C173.914 60.2499 172.824 60.2065 171.936 59.6918Z" fill="url(#paint2_linear)" stroke="#AAAAAA"/>
<g filter="url(#filter3_d)">
<path d="M64.12 101.16C64.8133 101.16 65.3467 101.48 65.72 102.12C66.1467 102.76 66.36 103.64 66.36 104.76C66.36 106.893 65.8533 108.547 64.84 109.72C62.5467 112.547 60.04 114.867 57.32 116.68C54.6533 118.493 51.6133 119.4 48.2 119.4C44.5733 119.4 41.6667 118.093 39.48 115.48C37.2933 112.813 35.8 109.213 35 104.68C33.1867 105.16 31.2667 105.4 29.24 105.4C27.48 105.4 25.5333 105.267 23.4 105C24.1467 108.36 24.76 112.12 25.24 116.28C25.72 120.44 25.96 123.853 25.96 126.52C25.96 132.28 25.0267 136.68 23.16 139.72C21.2933 142.76 18.84 144.28 15.8 144.28C11.96 144.28 9.21333 141.56 7.56 136.12C5.96 130.68 5.16 122.467 5.16 111.48C5.16 101.24 6.25333 90.8667 8.44 80.36C10.68 69.8 13.72 61.08 17.56 54.2C21.4533 47.2667 25.72 43.8 30.36 43.8C32.8667 43.8 34.8133 44.92 36.2 47.16C37.64 49.4 38.36 52.4133 38.36 56.2C38.36 68.7333 30.8667 82.3867 15.88 97.16C15.3467 102.387 15.08 106.973 15.08 110.92C15.08 116.413 15.2667 122.04 15.64 127.8C16.0133 133.613 16.6267 136.52 17.48 136.52C19.08 136.52 19.88 133.747 19.88 128.2C19.88 124.04 19.5867 120.013 19 116.12C18.4667 112.227 17.72 108.12 16.76 103.8C16.7067 103.107 16.92 102.227 17.4 101.16C17.9333 100.093 18.5733 99.16 19.32 98.36C20.0667 97.56 20.7333 97.16 21.32 97.16C22.0133 97.16 23.1067 97.2133 24.6 97.32C26.3067 97.4267 27.5867 97.48 28.44 97.48C30.36 97.48 32.3333 97.2133 34.36 96.68V96.44C34.36 89.9333 35.1867 82.52 36.84 74.2C38.5467 65.88 41.0267 58.7333 44.28 52.76C47.5867 46.7867 51.5067 43.8 56.04 43.8C58.6 43.8 60.6 45 62.04 47.4C63.5333 49.7467 64.28 53.1333 64.28 57.56C64.28 61.88 63.48 66.7867 61.88 72.28C60.28 77.7733 57.96 83.0533 54.92 88.12C51.88 93.1333 48.3067 97.16 44.2 100.2C44.4133 103.987 44.9733 106.68 45.88 108.28C46.7867 109.827 48.12 110.6 49.88 110.6C52.0667 110.6 53.9867 109.987 55.64 108.76C57.2933 107.48 59.4 105.32 61.96 102.28C62.6 101.533 63.32 101.16 64.12 101.16ZM28.68 51.72C27.72 51.72 26.52 53.3467 25.08 56.6C23.6933 59.8533 22.3067 64.1733 20.92 69.56C19.5333 74.8933 18.3333 80.5467 17.32 86.52C21.5867 81.6667 24.8667 76.6267 27.16 71.4C29.4533 66.12 30.6267 61.1867 30.68 56.6C30.68 53.3467 30.0133 51.72 28.68 51.72ZM54.28 51.72C53.16 51.72 51.8533 53.72 50.36 57.72C48.92 61.6667 47.6133 66.68 46.44 72.76C45.2667 78.84 44.5467 84.7867 44.28 90.6C46.9467 87.88 49.2133 84.5733 51.08 80.68C52.9467 76.7333 54.3067 72.76 55.16 68.76C56.0667 64.7067 56.52 61.0533 56.52 57.8C56.52 53.7467 55.7733 51.72 54.28 51.72ZM68.9769 119.4C65.6702 119.4 63.0302 118.2 61.0569 115.8C59.0835 113.4 58.0969 110.253 58.0969 106.36C58.0969 102.093 59.0835 98.0667 61.0569 94.28C63.0302 90.44 65.6435 87.3733 68.8969 85.08C72.2035 82.7333 75.6969 81.56 79.3769 81.56C80.5502 81.56 81.3235 81.8 81.6969 82.28C82.1235 82.7067 82.4702 83.5067 82.7369 84.68C83.8569 84.4667 85.0302 84.36 86.2569 84.36C88.8702 84.36 90.1769 85.2933 90.1769 87.16C90.1769 88.28 89.7769 90.9467 88.9769 95.16C87.7502 101.293 87.1369 105.56 87.1369 107.96C87.1369 108.76 87.3235 109.4 87.6969 109.88C88.1235 110.36 88.6569 110.6 89.2969 110.6C90.3102 110.6 91.5369 109.96 92.9769 108.68C94.4169 107.347 96.3635 105.213 98.8169 102.28C99.4569 101.533 100.177 101.16 100.977 101.16C101.67 101.16 102.204 101.48 102.577 102.12C103.004 102.76 103.217 103.64 103.217 104.76C103.217 106.893 102.71 108.547 101.697 109.72C99.5102 112.44 97.1902 114.733 94.7369 116.6C92.2835 118.467 89.9102 119.4 87.6169 119.4C85.8569 119.4 84.2302 118.813 82.7369 117.64C81.2969 116.413 80.2035 114.76 79.4569 112.68C76.6835 117.16 73.1902 119.4 68.9769 119.4ZM71.8569 111.32C73.0302 111.32 74.1502 110.627 75.2169 109.24C76.2835 107.853 77.0569 106.013 77.5369 103.72L80.4969 89C78.2569 89.0533 76.1769 89.9067 74.2569 91.56C72.3902 93.16 70.8969 95.2933 69.7769 97.96C68.6569 100.627 68.0969 103.453 68.0969 106.44C68.0969 108.093 68.4169 109.32 69.0569 110.12C69.7502 110.92 70.6835 111.32 71.8569 111.32ZM111.595 121.16C108.822 121.16 106.688 120.52 105.195 119.24C103.755 117.96 103.035 116.52 103.035 114.92C103.035 113.533 103.542 112.333 104.555 111.32C105.568 110.307 107.062 109.8 109.035 109.8C109.728 109.8 110.528 109.88 111.435 110.04C112.395 110.147 113.115 110.227 113.595 110.28C113.542 108.893 113.222 107.587 112.635 106.36C112.102 105.133 111.408 103.96 110.555 102.84C109.702 101.667 108.902 100.653 108.155 99.8C106.502 102.947 104.848 105.56 103.195 107.64C101.595 109.72 99.835 111.693 97.915 113.56C96.955 114.52 95.9417 115 94.875 115C94.0217 115 93.3283 114.707 92.795 114.12C92.2617 113.48 91.995 112.707 91.995 111.8C91.995 110.733 92.3683 109.747 93.115 108.84L94.155 107.56C97.0883 103.933 99.3017 100.947 100.795 98.6C101.702 97.0533 102.768 95 103.995 92.44C105.222 89.8267 106.422 87.1333 107.595 84.36C108.608 82.0133 110.715 80.84 113.915 80.84C115.408 80.84 116.448 80.9733 117.035 81.24C117.622 81.5067 117.915 81.9333 117.915 82.52C117.915 82.84 117.808 83.3467 117.595 84.04C117.382 84.7333 117.088 85.4267 116.715 86.12C115.755 88.04 115.275 89.6667 115.275 91C115.275 91.8 115.542 92.68 116.075 93.64C116.662 94.6 117.542 95.8 118.715 97.24C120.422 99.48 121.702 101.4 122.555 103C123.462 104.547 123.915 106.253 123.915 108.12C123.915 108.653 123.862 109.4 123.755 110.36C126.368 109.347 129.435 106.653 132.955 102.28C133.595 101.533 134.315 101.16 135.115 101.16C135.808 101.16 136.342 101.48 136.715 102.12C137.142 102.76 137.355 103.64 137.355 104.76C137.355 106.787 136.848 108.44 135.835 109.72C133.168 113.027 130.608 115.293 128.155 116.52C125.755 117.693 122.768 118.333 119.195 118.44C117.062 120.253 114.528 121.16 111.595 121.16ZM175.256 101.16C175.949 101.16 176.482 101.48 176.856 102.12C177.282 102.76 177.496 103.64 177.496 104.76C177.496 106.893 176.989 108.547 175.976 109.72C173.522 112.547 170.989 114.867 168.376 116.68C165.816 118.493 162.882 119.4 159.576 119.4C156.856 119.4 154.802 118.627 153.416 117.08C152.029 115.48 151.336 113.187 151.336 110.2C151.336 108.707 151.709 106.04 152.456 102.2C153.149 98.84 153.496 96.52 153.496 95.24C153.496 94.3867 153.202 93.96 152.616 93.96C151.922 93.96 150.936 94.8667 149.656 96.68C148.376 98.44 147.096 100.787 145.816 103.72C144.536 106.653 143.496 109.747 142.696 113C141.682 117.267 139.176 119.4 135.176 119.4C133.576 119.4 132.509 118.84 131.976 117.72C131.496 116.547 131.256 114.467 131.256 111.48C131.256 109.773 131.282 108.413 131.336 107.4L131.416 101C131.416 92.7867 132.242 84.2267 133.896 75.32C135.602 66.4133 138.082 58.9467 141.336 52.92C144.642 46.84 148.589 43.8 153.176 43.8C155.629 43.8 157.602 44.8667 159.096 47C160.642 49.08 161.416 51.8 161.416 55.16C161.416 60.5467 159.842 66.1467 156.696 71.96C153.549 77.72 148.429 84.4667 141.336 92.2C141.176 94.9733 141.096 97.8267 141.096 100.76C142.856 96.2267 144.802 92.5467 146.936 89.72C149.122 86.84 151.256 84.7867 153.336 83.56C155.469 82.3333 157.416 81.72 159.176 81.72C162.642 81.72 164.376 83.4533 164.376 86.92C164.376 89 163.789 92.76 162.616 98.2C161.602 102.84 161.096 105.907 161.096 107.4C161.096 109.533 161.869 110.6 163.416 110.6C164.482 110.6 165.736 109.96 167.176 108.68C168.669 107.347 170.642 105.213 173.096 102.28C173.736 101.533 174.456 101.16 175.256 101.16ZM151.496 51.72C150.536 51.72 149.469 53.1067 148.296 55.88C147.122 58.6 145.976 62.3067 144.856 67C143.789 71.64 142.909 76.7067 142.216 82.2C145.522 78.3067 148.242 74.0667 150.376 69.48C152.562 64.8933 153.656 60.7333 153.656 57C153.656 55.2933 153.469 53.9867 153.096 53.08C152.722 52.1733 152.189 51.72 151.496 51.72ZM186.292 119.4C181.065 119.4 176.985 117.933 174.052 115C171.172 112.013 169.732 108.093 169.732 103.24C169.732 98.92 170.585 95.1333 172.292 91.88C173.999 88.6267 176.212 86.12 178.932 84.36C181.652 82.6 184.505 81.72 187.492 81.72C190.425 81.72 192.692 82.6 194.292 84.36C195.945 86.0667 196.772 88.28 196.772 91C196.772 93.24 196.265 95.1333 195.252 96.68C194.292 98.2267 193.012 99 191.412 99C190.399 99 189.572 98.76 188.932 98.28C188.345 97.8 188.052 97.1333 188.052 96.28C188.052 95.9067 188.105 95.48 188.212 95C188.319 94.52 188.399 94.1733 188.452 93.96C188.719 93.16 188.852 92.4133 188.852 91.72C188.852 91.0267 188.665 90.4933 188.292 90.12C187.972 89.7467 187.492 89.56 186.852 89.56C185.625 89.56 184.479 90.12 183.412 91.24C182.345 92.3067 181.492 93.7733 180.852 95.64C180.212 97.5067 179.892 99.56 179.892 101.8C179.892 107.987 182.585 111.08 187.972 111.08C190.159 111.08 192.505 110.36 195.012 108.92C197.572 107.427 200.079 105.213 202.532 102.28C203.172 101.533 203.892 101.16 204.692 101.16C205.385 101.16 205.919 101.48 206.292 102.12C206.719 102.76 206.932 103.64 206.932 104.76C206.932 106.787 206.425 108.44 205.412 109.72C202.905 112.813 199.892 115.213 196.372 116.92C192.905 118.573 189.545 119.4 186.292 119.4ZM209.524 119.4C206.217 119.4 203.577 118.2 201.604 115.8C199.63 113.4 198.644 110.253 198.644 106.36C198.644 102.093 199.63 98.0667 201.604 94.28C203.577 90.44 206.19 87.3733 209.444 85.08C212.75 82.7333 216.244 81.56 219.924 81.56C221.097 81.56 221.87 81.8 222.244 82.28C222.67 82.7067 223.017 83.5067 223.284 84.68C224.404 84.4667 225.577 84.36 226.804 84.36C229.417 84.36 230.724 85.2933 230.724 87.16C230.724 88.28 230.324 90.9467 229.524 95.16C228.297 101.293 227.684 105.56 227.684 107.96C227.684 108.76 227.87 109.4 228.244 109.88C228.67 110.36 229.204 110.6 229.844 110.6C230.857 110.6 232.084 109.96 233.524 108.68C234.964 107.347 236.91 105.213 239.364 102.28C240.004 101.533 240.724 101.16 241.524 101.16C242.217 101.16 242.75 101.48 243.124 102.12C243.55 102.76 243.764 103.64 243.764 104.76C243.764 106.893 243.257 108.547 242.244 109.72C240.057 112.44 237.737 114.733 235.284 116.6C232.83 118.467 230.457 119.4 228.164 119.4C226.404 119.4 224.777 118.813 223.284 117.64C221.844 116.413 220.75 114.76 220.004 112.68C217.23 117.16 213.737 119.4 209.524 119.4ZM212.404 111.32C213.577 111.32 214.697 110.627 215.764 109.24C216.83 107.853 217.604 106.013 218.084 103.72L221.044 89C218.804 89.0533 216.724 89.9067 214.804 91.56C212.937 93.16 211.444 95.2933 210.324 97.96C209.204 100.627 208.644 103.453 208.644 106.44C208.644 108.093 208.964 109.32 209.604 110.12C210.297 110.92 211.23 111.32 212.404 111.32ZM242.942 119.4C240.915 119.4 239.475 118.333 238.622 116.2C237.822 114.067 237.422 110.653 237.422 105.96C237.422 99.0267 238.409 92.44 240.382 86.2C240.862 84.6533 241.635 83.5333 242.702 82.84C243.822 82.0933 245.369 81.72 247.342 81.72C248.409 81.72 249.155 81.8533 249.582 82.12C250.009 82.3867 250.222 82.8933 250.222 83.64C250.222 84.4933 249.822 86.4133 249.022 89.4C248.489 91.5333 248.062 93.4 247.742 95C247.422 96.6 247.155 98.5733 246.942 100.92C248.702 96.3333 250.675 92.6 252.862 89.72C255.049 86.84 257.182 84.7867 259.262 83.56C261.395 82.3333 263.342 81.72 265.102 81.72C268.569 81.72 270.302 83.4533 270.302 86.92C270.302 87.6133 270.062 89.2933 269.582 91.96C269.155 94.0933 268.942 95.4267 268.942 95.96C268.942 97.8267 269.609 98.76 270.942 98.76C272.435 98.76 274.355 97.5867 276.702 95.24C277.395 94.5467 278.115 94.2 278.862 94.2C279.555 94.2 280.089 94.52 280.462 95.16C280.889 95.7467 281.102 96.5467 281.102 97.56C281.102 99.5333 280.569 101.08 279.502 102.2C278.009 103.747 276.249 105.08 274.222 106.2C272.249 107.267 270.142 107.8 267.902 107.8C265.075 107.8 262.915 107.08 261.422 105.64C259.982 104.2 259.262 102.253 259.262 99.8C259.262 99 259.342 98.2 259.502 97.4C259.609 96.3333 259.662 95.6133 259.662 95.24C259.662 94.3867 259.369 93.96 258.782 93.96C257.982 93.96 256.915 94.8667 255.582 96.68C254.302 98.44 253.022 100.787 251.742 103.72C250.462 106.653 249.422 109.747 248.622 113C248.035 115.507 247.342 117.213 246.542 118.12C245.795 118.973 244.595 119.4 242.942 119.4ZM319.108 101.16C319.801 101.16 320.335 101.48 320.708 102.12C321.135 102.76 321.348 103.64 321.348 104.76C321.348 106.893 320.841 108.547 319.828 109.72C317.641 112.387 315.241 114.68 312.628 116.6C310.015 118.467 307.428 119.4 304.868 119.4C300.815 119.4 297.721 117.027 295.588 112.28C293.348 115.107 291.375 117 289.668 117.96C288.015 118.92 286.068 119.4 283.828 119.4C280.575 119.4 277.881 118.2 275.748 115.8C273.668 113.347 272.628 110.173 272.628 106.28C272.628 102.013 273.535 98.0667 275.348 94.44C277.161 90.76 279.641 87.7733 282.788 85.48C285.988 83.1333 289.561 81.7467 293.508 81.32C294.521 70.9733 296.441 62.1467 299.268 54.84C302.148 47.48 305.908 43.8 310.548 43.8C312.841 43.8 314.735 44.84 316.228 46.92C317.775 49 318.548 52.1467 318.548 56.36C318.548 62.3333 317.081 69.32 314.148 77.32C311.215 85.32 307.295 93.5333 302.388 101.96C302.601 105.053 303.055 107.267 303.748 108.6C304.495 109.933 305.428 110.6 306.548 110.6C307.988 110.6 309.455 109.96 310.948 108.68C312.441 107.4 314.441 105.267 316.948 102.28C317.588 101.533 318.308 101.16 319.108 101.16ZM309.668 51.64C308.655 51.64 307.641 53.4533 306.628 57.08C305.615 60.6533 304.735 65.3467 303.988 71.16C303.295 76.9733 302.788 83.0533 302.468 89.4C308.441 76.3867 311.428 65.9333 311.428 58.04C311.428 56.0133 311.241 54.44 310.868 53.32C310.548 52.2 310.148 51.64 309.668 51.64ZM286.628 111.32C287.641 111.32 288.655 110.92 289.668 110.12C290.681 109.267 291.961 107.72 293.508 105.48C292.975 102.6 292.708 99.3733 292.708 95.8C292.708 94.52 292.761 92.44 292.868 89.56C289.935 90.4667 287.481 92.44 285.508 95.48C283.588 98.4667 282.628 101.8 282.628 105.48C282.628 109.373 283.961 111.32 286.628 111.32ZM329.72 121.16C326.947 121.16 324.813 120.52 323.32 119.24C321.88 117.96 321.16 116.52 321.16 114.92C321.16 113.533 321.667 112.333 322.68 111.32C323.693 110.307 325.187 109.8 327.16 109.8C327.853 109.8 328.653 109.88 329.56 110.04C330.52 110.147 331.24 110.227 331.72 110.28C331.667 108.893 331.347 107.587 330.76 106.36C330.227 105.133 329.533 103.96 328.68 102.84C327.827 101.667 327.027 100.653 326.28 99.8C324.627 102.947 322.973 105.56 321.32 107.64C319.72 109.72 317.96 111.693 316.04 113.56C315.08 114.52 314.067 115 313 115C312.147 115 311.453 114.707 310.92 114.12C310.387 113.48 310.12 112.707 310.12 111.8C310.12 110.733 310.493 109.747 311.24 108.84L312.28 107.56C315.213 103.933 317.427 100.947 318.92 98.6C319.88 97.0533 320.84 95.2133 321.8 93.08C322.813 90.9467 324.12 88.04 325.72 84.36C326.733 82.0133 328.84 80.84 332.04 80.84C333.533 80.84 334.573 80.9733 335.16 81.24C335.747 81.5067 336.04 81.9333 336.04 82.52C336.04 82.84 335.933 83.3467 335.72 84.04C335.507 84.7333 335.213 85.4267 334.84 86.12C333.88 88.04 333.4 89.6667 333.4 91C333.4 91.8 333.667 92.68 334.2 93.64C334.787 94.6 335.667 95.8 336.84 97.24C338.547 99.48 339.827 101.4 340.68 103C341.587 104.547 342.04 106.253 342.04 108.12C342.04 110.36 341.507 112.493 340.44 114.52C339.427 116.493 337.987 118.093 336.12 119.32C334.253 120.547 332.12 121.16 329.72 121.16Z" fill="#89DAD5"/>
<path d="M65.72 102.12L64.8562 102.624L64.8713 102.65L64.888 102.675L65.72 102.12ZM64.84 109.72L64.0832 109.066L64.0731 109.078L64.0634 109.09L64.84 109.72ZM57.32 116.68L56.7653 115.848L56.7577 115.853L57.32 116.68ZM39.48 115.48L38.7067 116.114L38.7131 116.122L39.48 115.48ZM35 104.68L35.9848 104.506L35.7957 103.435L34.7441 103.713L35 104.68ZM23.4 105L23.524 104.008L22.116 103.832L22.4238 105.217L23.4 105ZM25.24 116.28L26.2334 116.165L25.24 116.28ZM23.16 139.72L22.3078 139.197L23.16 139.72ZM7.56 136.12L6.6006 136.402L6.60321 136.411L7.56 136.12ZM8.44 80.36L7.46176 80.1525L7.46098 80.1562L8.44 80.36ZM17.56 54.2L16.6881 53.7104L16.6868 53.7126L17.56 54.2ZM36.2 47.16L35.3497 47.6863L35.3542 47.6936L35.3588 47.7008L36.2 47.16ZM15.88 97.16L15.178 96.4478L14.9217 96.7005L14.8852 97.0585L15.88 97.16ZM15.64 127.8L16.6379 127.736L16.6379 127.735L15.64 127.8ZM19 116.12L18.0092 116.256L18.0112 116.269L19 116.12ZM16.76 103.8L15.7629 103.877L15.7684 103.948L15.7838 104.017L16.76 103.8ZM17.4 101.16L16.5056 100.713L16.4965 100.731L16.4881 100.75L17.4 101.16ZM19.32 98.36L20.0511 99.0423L19.32 98.36ZM24.6 97.32L24.5288 98.3175L24.5376 98.318L24.6 97.32ZM34.36 96.68L34.6145 97.6471L35.36 97.4509V96.68H34.36ZM36.84 74.2L35.8604 73.9991L35.8592 74.0051L36.84 74.2ZM44.28 52.76L43.4051 52.2757L43.4018 52.2817L44.28 52.76ZM62.04 47.4L61.1825 47.9145L61.1893 47.9258L61.1963 47.9369L62.04 47.4ZM61.88 72.28L62.8401 72.5596L61.88 72.28ZM54.92 88.12L55.7751 88.6385L55.7775 88.6345L54.92 88.12ZM44.2 100.2L43.605 99.3963L43.1712 99.7174L43.2016 100.256L44.2 100.2ZM45.88 108.28L45.01 108.773L45.0136 108.779L45.0173 108.786L45.88 108.28ZM55.64 108.76L56.2358 109.563L56.2441 109.557L56.2522 109.551L55.64 108.76ZM61.96 102.28L61.2007 101.629L61.1951 101.636L61.96 102.28ZM25.08 56.6L24.1655 56.1952L24.1601 56.2079L25.08 56.6ZM20.92 69.56L21.8878 69.8116L21.8884 69.8093L20.92 69.56ZM17.32 86.52L16.3341 86.3527L15.7448 89.8263L18.071 87.1803L17.32 86.52ZM27.16 71.4L28.0757 71.8018L28.0772 71.7984L27.16 71.4ZM30.68 56.6L31.68 56.6116V56.6H30.68ZM50.36 57.72L49.4231 57.3702L49.4206 57.3772L50.36 57.72ZM46.44 72.76L47.4219 72.9495L46.44 72.76ZM44.28 90.6L43.2811 90.5542L43.1611 93.1697L44.9941 91.3001L44.28 90.6ZM51.08 80.68L51.9817 81.1123L51.984 81.1076L51.08 80.68ZM55.16 68.76L54.1841 68.5417L54.182 68.5514L55.16 68.76ZM64.12 102.16C64.4289 102.16 64.6471 102.265 64.8562 102.624L66.5838 101.616C66.0462 100.695 65.1978 100.16 64.12 100.16V102.16ZM64.888 102.675C65.1657 103.091 65.36 103.752 65.36 104.76H67.36C67.36 103.528 67.1276 102.429 66.552 101.565L64.888 102.675ZM65.36 104.76C65.36 106.744 64.8893 108.133 64.0832 109.066L65.5968 110.374C66.8174 108.96 67.36 107.043 67.36 104.76H65.36ZM64.0634 109.09C61.8264 111.847 59.3927 114.096 56.7653 115.848L57.8747 117.512C60.6873 115.637 63.267 113.246 65.6166 110.35L64.0634 109.09ZM56.7577 115.853C54.2668 117.547 51.4252 118.4 48.2 118.4V120.4C51.8015 120.4 55.0399 119.44 57.8823 117.507L56.7577 115.853ZM48.2 118.4C44.8477 118.4 42.2301 117.208 40.2469 114.838L38.7131 116.122C41.1033 118.978 44.299 120.4 48.2 120.4V118.4ZM40.2533 114.846C38.2059 112.349 36.7646 108.925 35.9848 104.506L34.0152 104.854C34.8354 109.502 36.3808 113.278 38.7067 116.114L40.2533 114.846ZM34.7441 103.713C33.0207 104.169 31.1872 104.4 29.24 104.4V106.4C31.3462 106.4 33.3526 106.151 35.2559 105.647L34.7441 103.713ZM29.24 104.4C27.5293 104.4 25.6249 104.27 23.524 104.008L23.276 105.992C25.4418 106.263 27.4307 106.4 29.24 106.4V104.4ZM22.4238 105.217C23.1616 108.537 23.7697 112.262 24.2466 116.395L26.2334 116.165C25.7503 111.978 25.1318 108.183 24.3762 104.783L22.4238 105.217ZM24.2466 116.395C24.7244 120.535 24.96 123.907 24.96 126.52H26.96C26.96 123.8 26.7156 120.345 26.2334 116.165L24.2466 116.395ZM24.96 126.52C24.96 132.198 24.0354 136.383 22.3078 139.197L24.0122 140.243C26.0179 136.977 26.96 132.362 26.96 126.52H24.96ZM22.3078 139.197C20.586 142.001 18.427 143.28 15.8 143.28V145.28C19.253 145.28 22.0007 143.519 24.0122 140.243L22.3078 139.197ZM15.8 143.28C14.1455 143.28 12.7511 142.705 11.5636 141.529C10.3508 140.328 9.31628 138.46 8.51679 135.829L6.60321 136.411C7.45705 139.22 8.62258 141.432 10.1564 142.951C11.7155 144.495 13.6145 145.28 15.8 145.28V143.28ZM8.51937 135.838C6.96098 130.539 6.16 122.443 6.16 111.48H4.16C4.16 122.49 4.95902 130.821 6.60063 136.402L8.51937 135.838ZM6.16 111.48C6.16 101.312 7.24564 91.0066 9.41902 80.5638L7.46098 80.1562C5.26103 90.7267 4.16 101.168 4.16 111.48H6.16ZM9.41823 80.5675C11.6446 70.072 14.6563 61.4542 18.4332 54.6874L16.6868 53.7126C12.7837 60.7057 9.71544 69.528 7.46177 80.1525L9.41823 80.5675ZM18.4319 54.6896C22.2784 47.8398 26.2859 44.8 30.36 44.8V42.8C25.1541 42.8 20.6283 46.6936 16.6881 53.7104L18.4319 54.6896ZM30.36 44.8C32.4995 44.8 34.1341 45.7226 35.3497 47.6863L37.0503 46.6336C35.4926 44.1174 33.2339 42.8 30.36 42.8V44.8ZM35.3588 47.7008C36.6601 49.7249 37.36 52.5279 37.36 56.2H39.36C39.36 52.2988 38.6199 49.0751 37.0412 46.6192L35.3588 47.7008ZM37.36 56.2C37.36 68.3325 30.0963 81.7419 15.178 96.4478L16.582 97.8722C31.6371 83.0314 39.36 69.1342 39.36 56.2H37.36ZM14.8852 97.0585C14.3494 102.309 14.08 106.93 14.08 110.92H16.08C16.08 107.016 16.3439 102.465 16.8748 97.2615L14.8852 97.0585ZM14.08 110.92C14.08 116.436 14.2674 122.084 14.6421 127.865L16.6379 127.735C16.2659 121.996 16.08 116.391 16.08 110.92H14.08ZM14.6421 127.864C14.8295 130.782 15.0796 133.021 15.4015 134.546C15.5606 135.3 15.7502 135.946 15.9922 136.425C16.1919 136.821 16.6395 137.52 17.48 137.52V135.52C17.8938 135.52 17.9447 135.855 17.7778 135.525C17.6531 135.277 17.506 134.833 17.3585 134.134C17.0671 132.753 16.8239 130.631 16.6379 127.736L14.6421 127.864ZM17.48 137.52C18.2143 137.52 18.8271 137.185 19.2862 136.654C19.7197 136.153 20.0213 135.478 20.2408 134.717C20.6808 133.192 20.88 130.998 20.88 128.2H18.88C18.88 130.949 18.6792 132.915 18.3192 134.163C18.1387 134.788 17.9403 135.153 17.7738 135.346C17.6329 135.508 17.5457 135.52 17.48 135.52V137.52ZM20.88 128.2C20.88 123.993 20.5833 119.916 19.9888 115.971L18.0112 116.269C18.59 120.11 18.88 124.087 18.88 128.2H20.88ZM19.9907 115.984C19.4532 112.061 18.7014 107.927 17.7362 103.583L15.7838 104.017C16.7386 108.313 17.4801 112.393 18.0093 116.256L19.9907 115.984ZM17.7571 103.723C17.7225 103.274 17.8594 102.576 18.3119 101.57L16.4881 100.75C15.9806 101.877 15.6908 102.939 15.7629 103.877L17.7571 103.723ZM18.2944 101.607C18.7887 100.619 19.3754 99.7662 20.0511 99.0423L18.5889 97.6777C17.7712 98.5538 17.078 99.568 16.5056 100.713L18.2944 101.607ZM20.0511 99.0423C20.7571 98.2859 21.1712 98.16 21.32 98.16V96.16C20.2954 96.16 19.3763 96.8341 18.5889 97.6777L20.0511 99.0423ZM21.32 98.16C21.9753 98.16 23.0385 98.211 24.5288 98.3175L24.6712 96.3225C23.1748 96.2157 22.0514 96.16 21.32 96.16V98.16ZM24.5376 98.318C26.2488 98.425 27.5543 98.48 28.44 98.48V96.48C27.6191 96.48 26.3645 96.4283 24.6624 96.3219L24.5376 98.318ZM28.44 98.48C30.4533 98.48 32.5123 98.2003 34.6145 97.6471L34.1055 95.7129C32.1544 96.2264 30.2667 96.48 28.44 96.48V98.48ZM35.36 96.68V96.44H33.36V96.68H35.36ZM35.36 96.44C35.36 90.015 36.1766 82.6689 37.8208 74.3949L35.8592 74.0051C34.1967 82.3711 33.36 89.8517 33.36 96.44H35.36ZM37.8196 74.4009C39.5111 66.1549 41.9623 59.1062 45.1582 53.2383L43.4018 52.2817C40.0911 58.3604 37.5822 65.6051 35.8604 73.9991L37.8196 74.4009ZM45.1549 53.2443C48.3829 47.413 52.0349 44.8 56.04 44.8V42.8C50.9784 42.8 46.7904 46.1603 43.4051 52.2757L45.1549 53.2443ZM56.04 44.8C58.2109 44.8 59.9029 45.7818 61.1825 47.9145L62.8975 46.8855C61.2971 44.2182 58.9891 42.8 56.04 42.8V44.8ZM61.1963 47.9369C62.5438 50.0543 63.28 53.2209 63.28 57.56H65.28C65.28 53.0457 64.5229 49.4391 62.8837 46.8631L61.1963 47.9369ZM63.28 57.56C63.28 61.7604 62.5015 66.5703 60.9199 72.0004L62.8401 72.5596C64.4585 67.003 65.28 61.9996 65.28 57.56H63.28ZM60.9199 72.0004C59.3447 77.4087 57.0598 82.61 54.0625 87.6055L55.7775 88.6345C58.8602 83.4967 61.2153 78.138 62.8401 72.5596L60.9199 72.0004ZM54.0649 87.6015C51.0824 92.52 47.593 96.4441 43.605 99.3963L44.795 101.004C49.0203 97.8759 52.6776 93.7467 55.7751 88.6385L54.0649 87.6015ZM43.2016 100.256C43.4163 104.067 43.9824 106.96 45.01 108.773L46.75 107.787C45.9643 106.4 45.4104 103.907 45.1984 100.144L43.2016 100.256ZM45.0173 108.786C46.0993 110.632 47.757 111.6 49.88 111.6V109.6C48.483 109.6 47.474 109.022 46.7427 107.774L45.0173 108.786ZM49.88 111.6C52.2671 111.6 54.3991 110.926 56.2358 109.563L55.0442 107.957C53.5742 109.047 51.8663 109.6 49.88 109.6V111.6ZM56.2522 109.551C57.9911 108.204 60.1523 105.979 62.7249 102.924L61.1951 101.636C58.6477 104.661 56.5956 106.756 55.0278 107.969L56.2522 109.551ZM62.7193 102.931C63.2167 102.35 63.6777 102.16 64.12 102.16V100.16C62.9623 100.16 61.9833 100.716 61.2007 101.629L62.7193 102.931ZM28.68 50.72C28.1501 50.72 27.6878 50.9442 27.3134 51.2262C26.9381 51.5088 26.5873 51.8963 26.2553 52.3463C25.5912 53.2466 24.8965 54.544 24.1656 56.1953L25.9944 57.0047C26.7036 55.4027 27.3289 54.2601 27.8647 53.5336C28.1327 53.1703 28.3519 52.9478 28.5166 52.8238C28.6822 52.6991 28.7299 52.72 28.68 52.72V50.72ZM24.1601 56.2079C22.7458 59.5259 21.3446 63.8995 19.9516 69.3107L21.8884 69.8093C23.2688 64.4472 24.6408 60.1807 25.9999 56.9921L24.1601 56.2079ZM19.9522 69.3084C18.5576 74.6721 17.3518 80.3538 16.3341 86.3527L18.3059 86.6872C19.3149 80.7395 20.5091 75.1145 21.8878 69.8116L19.9522 69.3084ZM18.071 87.1803C22.3967 82.2598 25.7361 77.1341 28.0757 71.8018L26.2443 70.9982C23.9973 76.1193 20.7766 81.0735 16.569 85.8597L18.071 87.1803ZM28.0772 71.7984C30.4105 66.4263 31.6247 61.3607 31.6799 56.6116L29.6801 56.5884C29.6286 61.0126 28.4961 65.8137 26.2428 71.0016L28.0772 71.7984ZM31.68 56.6C31.68 54.9349 31.5137 53.5572 31.1053 52.5608C30.8973 52.0531 30.6043 51.5894 30.186 51.2492C29.7511 50.8955 29.2346 50.72 28.68 50.72V52.72C28.7921 52.72 28.8589 52.7478 28.924 52.8008C29.0057 52.8672 29.1294 53.0135 29.2547 53.3192C29.513 53.9494 29.68 55.0118 29.68 56.6H31.68ZM54.28 50.72C53.6898 50.72 53.1801 50.9845 52.769 51.3233C52.3583 51.6618 51.9792 52.1276 51.6228 52.673C50.9093 53.7652 50.1789 55.346 49.4232 57.3702L51.2968 58.0698C52.0345 56.094 52.704 54.6748 53.2972 53.7669C53.5941 53.3124 53.8451 53.0282 54.041 52.8667C54.2366 52.7055 54.3102 52.72 54.28 52.72V50.72ZM49.4206 57.3772C47.956 61.3911 46.6373 66.4604 45.4581 72.5705L47.4219 72.9495C48.5894 66.8996 49.884 61.9422 51.2994 58.0628L49.4206 57.3772ZM45.4581 72.5705C44.2762 78.6949 43.5501 84.6896 43.2811 90.5542L45.2789 90.6458C45.5433 84.8837 46.2571 78.9851 47.4219 72.9495L45.4581 72.5705ZM44.9941 91.3001C47.7471 88.492 50.0739 85.0916 51.9817 81.1123L50.1783 80.2477C48.3528 84.0551 46.1463 87.268 43.5659 89.8999L44.9941 91.3001ZM51.984 81.1076C53.8815 77.0957 55.2675 73.0491 56.138 68.9686L54.182 68.5514C53.3458 72.4709 52.0118 76.371 50.176 80.2524L51.984 81.1076ZM56.1359 68.9783C57.0544 64.8719 57.52 61.1437 57.52 57.8H55.52C55.52 60.963 55.0789 64.5414 54.1841 68.5417L56.1359 68.9783ZM57.52 57.8C57.52 55.7401 57.334 54.0768 56.8983 52.8943C56.6783 52.297 56.3711 51.7567 55.9309 51.3585C55.4694 50.9409 54.9044 50.72 54.28 50.72V52.72C54.4023 52.72 54.4906 52.7524 54.5891 52.8415C54.7089 52.95 54.8684 53.1697 55.0217 53.5857C55.3327 54.4299 55.52 55.8066 55.52 57.8H57.52ZM61.0569 115.8L61.8293 115.165L61.0569 115.8ZM61.0569 94.28L61.9437 94.7421L61.9463 94.7371L61.0569 94.28ZM68.8969 85.08L69.473 85.8973L69.4756 85.8955L68.8969 85.08ZM81.6969 82.28L80.9075 82.8939L80.9457 82.9431L80.9898 82.9871L81.6969 82.28ZM82.7369 84.68L81.7617 84.9016L81.9757 85.843L82.924 85.6623L82.7369 84.68ZM88.9769 95.16L89.9575 95.3561L89.9593 95.3465L88.9769 95.16ZM87.6969 109.88L86.9075 110.494L86.9277 110.52L86.9495 110.544L87.6969 109.88ZM92.9769 108.68L93.6412 109.427L93.6488 109.421L93.6563 109.414L92.9769 108.68ZM98.8169 102.28L98.0576 101.629L98.0498 101.638L98.8169 102.28ZM102.577 102.12L101.713 102.624L101.728 102.65L101.745 102.675L102.577 102.12ZM101.697 109.72L100.94 109.066L100.929 109.08L100.918 109.093L101.697 109.72ZM94.7369 116.6L95.3424 117.396L94.7369 116.6ZM82.7369 117.64L82.0884 118.401L82.1035 118.414L82.1191 118.426L82.7369 117.64ZM79.4569 112.68L80.3981 112.342L79.6977 110.391L78.6066 112.154L79.4569 112.68ZM75.2169 109.24L74.4243 108.63L75.2169 109.24ZM77.5369 103.72L78.5157 103.925L78.5173 103.917L77.5369 103.72ZM80.4969 89L81.4772 89.1971L81.7239 87.9705L80.4731 88.0003L80.4969 89ZM74.2569 91.56L74.9077 92.3193L74.9094 92.3178L74.2569 91.56ZM69.7769 97.96L70.6989 98.3472L69.7769 97.96ZM69.0569 110.12L68.276 110.745L68.2883 110.76L68.3012 110.775L69.0569 110.12ZM68.9769 118.4C65.9473 118.4 63.5991 117.317 61.8293 115.165L60.2845 116.435C62.4613 119.083 65.3931 120.4 68.9769 120.4V118.4ZM61.8293 115.165C60.0372 112.985 59.0969 110.082 59.0969 106.36H57.0969C57.0969 110.425 58.1298 113.815 60.2845 116.435L61.8293 115.165ZM59.0969 106.36C59.0969 102.254 60.0447 98.3862 61.9437 94.7421L60.1701 93.8179C58.1224 97.7471 57.0969 101.932 57.0969 106.36H59.0969ZM61.9463 94.7371C63.8522 91.0283 66.3627 88.0899 69.473 85.8973L68.3207 84.2627C64.9244 86.6568 62.2082 89.8517 60.1674 93.8229L61.9463 94.7371ZM69.4756 85.8955C72.6312 83.6561 75.9253 82.56 79.3769 82.56V80.56C75.4684 80.56 71.7759 81.8106 68.3181 84.2645L69.4756 85.8955ZM79.3769 82.56C80.5051 82.56 80.8413 82.8089 80.9075 82.8939L82.4862 81.6661C81.8057 80.7911 80.5953 80.56 79.3769 80.56V82.56ZM80.9898 82.9871C81.205 83.2024 81.5027 83.7617 81.7617 84.9016L83.712 84.4584C83.4378 83.2516 83.0421 82.211 82.404 81.5729L80.9898 82.9871ZM82.924 85.6623C83.9779 85.4616 85.0883 85.36 86.2569 85.36V83.36C84.9721 83.36 83.7359 83.4717 82.5498 83.6977L82.924 85.6623ZM86.2569 85.36C87.4747 85.36 88.2085 85.5829 88.6156 85.8737C88.9608 86.1203 89.1769 86.4895 89.1769 87.16H91.1769C91.1769 85.9638 90.7396 84.9331 89.7781 84.2463C88.8786 83.6038 87.6524 83.36 86.2569 83.36V85.36ZM89.1769 87.16C89.1769 88.1653 88.8005 90.728 87.9944 94.9735L89.9593 95.3465C90.7532 91.1653 91.1769 88.3947 91.1769 87.16H89.1769ZM87.9963 94.9639C86.7709 101.091 86.1369 105.448 86.1369 107.96H88.1369C88.1369 105.672 88.7296 101.496 89.9575 95.3561L87.9963 94.9639ZM86.1369 107.96C86.1369 108.912 86.36 109.79 86.9075 110.494L88.4862 109.266C88.2871 109.01 88.1369 108.608 88.1369 107.96H86.1369ZM86.9495 110.544C87.5651 111.237 88.3701 111.6 89.2969 111.6V109.6C88.9436 109.6 88.6819 109.483 88.4443 109.216L86.9495 110.544ZM89.2969 111.6C90.6965 111.6 92.1626 110.742 93.6412 109.427L92.3125 107.933C90.9112 109.178 89.9239 109.6 89.2969 109.6V111.6ZM93.6563 109.414C95.1443 108.036 97.1238 105.863 99.584 102.922L98.0498 101.638C95.6033 104.564 93.6895 106.657 92.2975 107.946L93.6563 109.414ZM99.5761 102.931C100.074 102.35 100.535 102.16 100.977 102.16V100.16C99.8192 100.16 98.8402 100.716 98.0576 101.629L99.5761 102.931ZM100.977 102.16C101.286 102.16 101.504 102.265 101.713 102.624L103.441 101.616C102.903 100.695 102.055 100.16 100.977 100.16V102.16ZM101.745 102.675C102.023 103.091 102.217 103.752 102.217 104.76H104.217C104.217 103.528 103.984 102.429 103.409 101.565L101.745 102.675ZM102.217 104.76C102.217 106.744 101.746 108.133 100.94 109.066L102.454 110.374C103.674 108.96 104.217 107.043 104.217 104.76H102.217ZM100.918 109.093C98.7751 111.758 96.5122 113.993 94.1314 115.804L95.3424 117.396C97.8682 115.474 100.245 113.122 102.476 110.347L100.918 109.093ZM94.1314 115.804C91.7927 117.584 89.627 118.4 87.6169 118.4V120.4C90.1934 120.4 92.7744 119.35 95.3424 117.396L94.1314 115.804ZM87.6169 118.4C86.0991 118.4 84.6867 117.9 83.3547 116.854L82.1191 118.426C83.7737 119.726 85.6146 120.4 87.6169 120.4V118.4ZM83.3853 116.879C82.0991 115.783 81.0958 114.286 80.3981 112.342L78.5157 113.018C79.3113 115.234 80.4947 117.044 82.0884 118.401L83.3853 116.879ZM78.6066 112.154C75.9631 116.424 72.7547 118.4 68.9769 118.4V120.4C73.6257 120.4 77.404 117.896 80.3071 113.206L78.6066 112.154ZM71.8569 112.32C73.4701 112.32 74.8497 111.357 76.0095 109.85L74.4243 108.63C73.4507 109.896 72.5903 110.32 71.8569 110.32V112.32ZM76.0095 109.85C77.1935 108.311 78.0148 106.318 78.5157 103.925L76.5581 103.515C76.0989 105.709 75.3736 107.396 74.4243 108.63L76.0095 109.85ZM78.5173 103.917L81.4772 89.1971L79.5165 88.8029L76.5565 103.523L78.5173 103.917ZM80.4731 88.0003C77.9717 88.0598 75.6753 89.0189 73.6044 90.8022L74.9094 92.3178C76.6784 90.7945 78.5421 90.0468 80.5207 89.9997L80.4731 88.0003ZM73.6061 90.8007C71.6022 92.5184 70.0245 94.7879 68.8549 97.5728L70.6989 98.3472C71.7692 95.7988 73.1782 93.8016 74.9077 92.3193L73.6061 90.8007ZM68.8549 97.5728C67.6817 100.366 67.0969 103.325 67.0969 106.44H69.0969C69.0969 103.582 69.632 100.887 70.6989 98.3472L68.8549 97.5728ZM67.0969 106.44C67.0969 108.191 67.4302 109.687 68.276 110.745L69.8377 109.495C69.4036 108.953 69.0969 107.996 69.0969 106.44H67.0969ZM68.3012 110.775C69.2064 111.819 70.4288 112.32 71.8569 112.32V110.32C70.9383 110.32 70.294 110.021 69.8126 109.465L68.3012 110.775ZM105.195 119.24L104.531 119.987L104.537 119.993L104.544 119.999L105.195 119.24ZM104.555 111.32L105.262 112.027L104.555 111.32ZM111.435 110.04L111.261 111.025L111.293 111.03L111.325 111.034L111.435 110.04ZM113.595 110.28L113.485 111.274L114.639 111.402L114.594 110.242L113.595 110.28ZM112.635 106.36L111.718 106.759L111.725 106.775L111.733 106.791L112.635 106.36ZM110.555 102.84L109.746 103.428L109.753 103.437L109.76 103.446L110.555 102.84ZM108.155 99.8L108.908 99.1415L107.948 98.0445L107.27 99.3349L108.155 99.8ZM103.195 107.64L102.412 107.018L102.407 107.024L102.402 107.03L103.195 107.64ZM97.915 113.56L97.2178 112.843L97.2079 112.853L97.915 113.56ZM92.795 114.12L92.0268 114.76L92.0406 114.777L92.0551 114.793L92.795 114.12ZM93.115 108.84L93.8869 109.476L93.8911 109.471L93.115 108.84ZM94.155 107.56L94.9311 108.191L94.9325 108.189L94.155 107.56ZM100.795 98.6L101.639 99.1369L101.648 99.1215L101.658 99.1057L100.795 98.6ZM103.995 92.44L104.897 92.8721L104.9 92.8649L103.995 92.44ZM107.595 84.36L106.677 83.9636L106.674 83.9704L107.595 84.36ZM117.035 81.24L117.449 80.3296L117.035 81.24ZM117.595 84.04L118.551 84.3341L117.595 84.04ZM116.715 86.12L115.835 85.6459L115.827 85.6592L115.821 85.6728L116.715 86.12ZM116.075 93.64L115.201 94.1256L115.211 94.1438L115.222 94.1615L116.075 93.64ZM118.715 97.24L119.51 96.634L119.501 96.621L119.49 96.6083L118.715 97.24ZM122.555 103L121.673 103.471L121.682 103.488L121.692 103.506L122.555 103ZM123.755 110.36L122.761 110.25L122.579 111.889L124.117 111.292L123.755 110.36ZM132.955 102.28L132.196 101.629L132.186 101.641L132.176 101.653L132.955 102.28ZM136.715 102.12L135.851 102.624L135.866 102.65L135.883 102.675L136.715 102.12ZM135.835 109.72L136.613 110.348L136.619 110.341L135.835 109.72ZM128.155 116.52L128.594 117.418L128.602 117.414L128.155 116.52ZM119.195 118.44L119.165 117.44L118.815 117.451L118.547 117.678L119.195 118.44ZM111.595 120.16C108.963 120.16 107.096 119.552 105.846 118.481L104.544 119.999C106.281 121.488 108.68 122.16 111.595 122.16V120.16ZM105.859 118.493C104.585 117.36 104.035 116.176 104.035 114.92H102.035C102.035 116.864 102.925 118.56 104.531 119.987L105.859 118.493ZM104.035 114.92C104.035 113.808 104.429 112.86 105.262 112.027L103.848 110.613C102.654 111.807 102.035 113.258 102.035 114.92H104.035ZM105.262 112.027C106.026 111.263 107.225 110.8 109.035 110.8V108.8C106.899 108.8 105.11 109.35 103.848 110.613L105.262 112.027ZM109.035 110.8C109.655 110.8 110.395 110.872 111.261 111.025L111.609 109.055C110.662 108.888 109.802 108.8 109.035 108.8V110.8ZM111.325 111.034C112.285 111.141 113.005 111.221 113.485 111.274L113.705 109.286C113.225 109.233 112.505 109.153 111.545 109.046L111.325 111.034ZM114.594 110.242C114.536 108.722 114.184 107.281 113.537 105.929L111.733 106.791C112.259 107.893 112.548 109.065 112.596 110.318L114.594 110.242ZM113.552 105.961C112.985 104.657 112.25 103.415 111.35 102.234L109.76 103.446C110.567 104.505 111.218 105.61 111.718 106.759L113.552 105.961ZM111.364 102.252C110.497 101.061 109.679 100.023 108.908 99.1415L107.402 100.459C108.125 101.284 108.906 102.273 109.746 103.428L111.364 102.252ZM107.27 99.3349C105.636 102.443 104.016 105 102.412 107.018L103.978 108.262C105.681 106.12 107.367 103.45 109.04 100.265L107.27 99.3349ZM102.402 107.03C100.832 109.072 99.1042 111.009 97.2179 112.843L98.6121 114.277C100.566 112.378 102.358 110.368 103.988 108.25L102.402 107.03ZM97.2079 112.853C96.3817 113.679 95.6091 114 94.875 114V116C96.2742 116 97.5283 115.361 98.6221 114.267L97.2079 112.853ZM94.875 114C94.2793 114 93.8631 113.808 93.5349 113.447L92.0551 114.793C92.7936 115.605 93.764 116 94.875 116V114ZM93.5632 113.48C93.1933 113.036 92.995 112.495 92.995 111.8H90.995C90.995 112.918 91.3301 113.924 92.0268 114.76L93.5632 113.48ZM92.995 111.8C92.995 110.989 93.2718 110.223 93.8869 109.476L92.3431 108.204C91.4649 109.271 90.995 110.478 90.995 111.8H92.995ZM93.8911 109.471L94.9311 108.191L93.3789 106.929L92.3389 108.209L93.8911 109.471ZM94.9325 108.189C97.876 104.55 100.116 101.53 101.639 99.1369L99.9513 98.0631C98.4873 100.364 96.3006 103.317 93.3775 106.931L94.9325 108.189ZM101.658 99.1057C102.584 97.5255 103.664 95.4446 104.897 92.8721L103.093 92.0079C101.872 94.5554 100.819 96.5812 99.9323 98.0943L101.658 99.1057ZM104.9 92.8649C106.133 90.2394 107.338 87.5343 108.516 84.7496L106.674 83.9704C105.506 86.7323 104.311 89.4139 103.09 92.0151L104.9 92.8649ZM108.513 84.7564C108.938 83.7724 109.573 83.0664 110.422 82.5936C111.285 82.1126 112.432 81.84 113.915 81.84V79.84C112.198 79.84 110.691 80.1541 109.448 80.8464C108.191 81.5469 107.265 82.601 106.677 83.9636L108.513 84.7564ZM113.915 81.84C115.406 81.84 116.25 81.9816 116.621 82.1504L117.449 80.3296C116.647 79.9651 115.411 79.84 113.915 79.84V81.84ZM116.621 82.1504C116.789 82.2268 116.85 82.2956 116.871 82.3265C116.888 82.3516 116.915 82.4011 116.915 82.52H118.915C118.915 82.0523 118.795 81.5951 118.519 81.1935C118.247 80.7978 117.867 80.5199 117.449 80.3296L116.621 82.1504ZM116.915 82.52C116.915 82.677 116.851 83.0583 116.639 83.7459L118.551 84.3341C118.766 83.635 118.915 83.003 118.915 82.52H116.915ZM116.639 83.7459C116.447 84.3719 116.18 85.0051 115.835 85.6459L117.595 86.5941C117.997 85.8482 118.317 85.0948 118.551 84.3341L116.639 83.7459ZM115.821 85.6728C114.829 87.6563 114.275 89.4448 114.275 91H116.275C116.275 89.8886 116.681 88.4237 117.609 86.5672L115.821 85.6728ZM114.275 91C114.275 92.0216 114.614 93.0699 115.201 94.1256L116.949 93.1544C116.469 92.2901 116.275 91.5784 116.275 91H114.275ZM115.222 94.1615C115.842 95.1765 116.754 96.4161 117.94 97.8717L119.49 96.6083C118.33 95.1839 117.481 94.0235 116.928 93.1185L115.222 94.1615ZM117.92 97.846C119.609 100.064 120.854 101.936 121.673 103.471L123.437 102.529C122.549 100.864 121.234 98.8961 119.51 96.634L117.92 97.846ZM121.692 103.506C122.505 104.893 122.915 106.423 122.915 108.12H124.915C124.915 106.083 124.418 104.201 123.418 102.494L121.692 103.506ZM122.915 108.12C122.915 108.598 122.866 109.302 122.761 110.25L124.749 110.47C124.857 109.498 124.915 108.708 124.915 108.12H122.915ZM124.117 111.292C126.989 110.179 130.194 107.305 133.734 102.907L132.176 101.653C128.676 106.001 125.748 108.515 123.393 109.428L124.117 111.292ZM133.714 102.931C134.212 102.35 134.673 102.16 135.115 102.16V100.16C133.957 100.16 132.978 100.716 132.196 101.629L133.714 102.931ZM135.115 102.16C135.424 102.16 135.642 102.265 135.851 102.624L137.579 101.616C137.041 100.695 136.193 100.16 135.115 100.16V102.16ZM135.883 102.675C136.161 103.091 136.355 103.752 136.355 104.76H138.355C138.355 103.528 138.123 102.429 137.547 101.565L135.883 102.675ZM136.355 104.76C136.355 106.617 135.893 108.035 135.051 109.099L136.619 110.341C137.803 108.845 138.355 106.956 138.355 104.76H136.355ZM135.057 109.092C132.436 112.342 129.982 114.489 127.708 115.626L128.602 117.414C131.235 116.098 133.901 113.711 136.613 110.348L135.057 109.092ZM127.716 115.622C125.479 116.715 122.642 117.337 119.165 117.44L119.225 119.44C122.895 119.33 126.031 118.671 128.594 117.418L127.716 115.622ZM118.547 117.678C116.604 119.33 114.303 120.16 111.595 120.16V122.16C114.753 122.16 117.519 121.177 119.843 119.202L118.547 117.678ZM176.856 102.12L175.992 102.624L176.007 102.65L176.024 102.675L176.856 102.12ZM175.976 109.72L176.731 110.375L176.732 110.374L175.976 109.72ZM168.376 116.68L167.806 115.858L167.798 115.864L168.376 116.68ZM153.416 117.08L152.66 117.735L152.665 117.741L152.671 117.748L153.416 117.08ZM152.456 102.2L151.476 101.998L151.474 102.009L152.456 102.2ZM149.656 96.68L150.464 97.2682L150.473 97.2567L149.656 96.68ZM145.816 103.72L146.732 104.12L145.816 103.72ZM142.696 113L141.725 112.761L141.723 112.769L142.696 113ZM131.976 117.72L131.05 118.099L131.061 118.125L131.073 118.15L131.976 117.72ZM131.336 107.4L132.334 107.453L132.335 107.433L132.336 107.412L131.336 107.4ZM131.416 101L132.416 101.012V101H131.416ZM133.896 75.32L132.913 75.1318L132.912 75.1375L133.896 75.32ZM141.336 52.92L140.457 52.4422L140.456 52.445L141.336 52.92ZM159.096 47L158.276 47.5735L158.285 47.5852L158.293 47.5967L159.096 47ZM156.696 71.96L157.573 72.4394L157.575 72.436L156.696 71.96ZM141.336 92.2L140.599 91.524L140.358 91.7867L140.337 92.1424L141.336 92.2ZM141.096 100.76H140.096L142.028 101.122L141.096 100.76ZM146.936 89.72L146.139 89.1153L146.137 89.1176L146.936 89.72ZM153.336 83.56L152.837 82.693L152.828 82.6986L153.336 83.56ZM162.616 98.2L163.593 98.4134L163.593 98.4108L162.616 98.2ZM167.176 108.68L167.84 109.427L167.842 109.426L167.176 108.68ZM173.096 102.28L172.336 101.629L172.329 101.638L173.096 102.28ZM148.296 55.88L149.214 56.2761L149.217 56.2696L148.296 55.88ZM144.856 67L143.883 66.7679L143.881 66.776L144.856 67ZM142.216 82.2L141.223 82.0748L140.803 85.4083L142.978 82.8473L142.216 82.2ZM150.376 69.48L149.473 69.0496L149.469 69.0583L150.376 69.48ZM153.096 53.08L154.02 52.6992L153.096 53.08ZM175.256 102.16C175.564 102.16 175.783 102.265 175.992 102.624L177.719 101.616C177.182 100.695 176.333 100.16 175.256 100.16V102.16ZM176.024 102.675C176.301 103.091 176.496 103.752 176.496 104.76H178.496C178.496 103.528 178.263 102.429 177.688 101.565L176.024 102.675ZM176.496 104.76C176.496 106.744 176.025 108.133 175.219 109.066L176.732 110.374C177.953 108.96 178.496 107.043 178.496 104.76H176.496ZM175.22 109.065C172.812 111.839 170.34 114.1 167.806 115.858L168.946 117.502C171.638 115.633 174.232 113.254 176.731 110.375L175.22 109.065ZM167.798 115.864C165.416 117.551 162.687 118.4 159.576 118.4V120.4C163.077 120.4 166.215 119.436 168.954 117.496L167.798 115.864ZM159.576 118.4C157.047 118.4 155.303 117.687 154.16 116.412L152.671 117.748C154.302 119.566 156.665 120.4 159.576 120.4V118.4ZM154.171 116.425C152.996 115.069 152.336 113.044 152.336 110.2H150.336C150.336 113.329 151.062 115.891 152.66 117.735L154.171 116.425ZM152.336 110.2C152.336 108.816 152.689 106.237 153.437 102.391L151.474 102.009C150.729 105.843 150.336 108.598 150.336 110.2H152.336ZM153.435 102.402C154.127 99.0507 154.496 96.6361 154.496 95.24H152.496C152.496 96.4039 152.171 98.6293 151.476 101.998L153.435 102.402ZM154.496 95.24C154.496 94.7298 154.414 94.17 154.1 93.7135C153.739 93.1893 153.187 92.96 152.616 92.96V94.96C152.641 94.96 152.615 94.9643 152.564 94.9398C152.509 94.913 152.47 94.874 152.452 94.8465C152.437 94.8256 152.45 94.8346 152.466 94.9034C152.482 94.9721 152.496 95.0808 152.496 95.24H154.496ZM152.616 92.96C151.87 92.96 151.207 93.4187 150.679 93.9037C150.111 94.4261 149.497 95.1711 148.839 96.1033L150.473 97.2567C151.095 96.3756 151.614 95.7606 152.032 95.3763C152.491 94.9546 152.668 94.96 152.616 94.96V92.96ZM148.847 96.0918C147.509 97.9309 146.196 100.348 144.899 103.32L146.732 104.12C147.995 101.225 149.242 98.9491 150.464 97.2682L148.847 96.0918ZM144.899 103.32C143.595 106.308 142.537 109.455 141.725 112.761L143.667 113.239C144.454 110.038 145.476 106.999 146.732 104.12L144.899 103.32ZM141.723 112.769C141.249 114.763 140.453 116.149 139.408 117.038C138.372 117.92 136.991 118.4 135.176 118.4V120.4C137.36 120.4 139.233 119.813 140.704 118.562C142.165 117.318 143.129 115.503 143.669 113.231L141.723 112.769ZM135.176 118.4C133.828 118.4 133.195 117.956 132.878 117.29L131.073 118.15C131.823 119.724 133.323 120.4 135.176 120.4V118.4ZM132.901 117.341C132.503 116.368 132.256 114.466 132.256 111.48H130.256C130.256 114.467 130.488 116.726 131.05 118.099L132.901 117.341ZM132.256 111.48C132.256 109.781 132.282 108.441 132.334 107.453L130.337 107.347C130.282 108.386 130.256 109.766 130.256 111.48H132.256ZM132.336 107.412L132.416 101.012L130.416 100.988L130.336 107.387L132.336 107.412ZM132.416 101C132.416 92.8538 133.236 84.3551 134.879 75.5025L132.912 75.1375C131.249 84.0983 130.416 92.7196 130.416 101H132.416ZM134.878 75.5082C136.571 66.6713 139.024 59.3081 142.216 53.395L140.456 52.445C137.141 58.5852 134.634 66.1553 132.913 75.1318L134.878 75.5082ZM142.214 53.3978C145.443 47.46 149.122 44.8 153.176 44.8V42.8C148.056 42.8 143.841 46.22 140.457 52.4422L142.214 53.3978ZM153.176 44.8C155.28 44.8 156.957 45.6881 158.276 47.5735L159.915 46.4265C158.248 44.0453 155.978 42.8 153.176 42.8V44.8ZM158.293 47.5967C159.678 49.4592 160.416 51.9512 160.416 55.16H162.416C162.416 51.6488 161.606 48.7008 159.898 46.4033L158.293 47.5967ZM160.416 55.16C160.416 60.3467 158.902 65.784 155.816 71.484L157.575 72.436C160.783 66.5093 162.416 60.7466 162.416 55.16H160.416ZM155.818 71.4806C152.726 77.1404 147.666 83.8193 140.599 91.524L142.073 92.876C149.192 85.114 154.372 78.2996 157.573 72.4394L155.818 71.4806ZM140.337 92.1424C140.176 94.9359 140.096 97.8085 140.096 100.76H142.096C142.096 97.8448 142.175 95.0107 142.334 92.2576L140.337 92.1424ZM142.028 101.122C143.766 96.645 145.672 93.0538 147.734 90.3224L146.137 89.1176C143.932 92.0395 141.945 95.8084 140.163 100.398L142.028 101.122ZM147.732 90.3247C149.876 87.5016 151.917 85.5577 153.844 84.4214L152.828 82.6986C150.594 84.0156 148.369 86.1784 146.139 89.1153L147.732 90.3247ZM153.834 84.4269C155.873 83.2544 157.647 82.72 159.176 82.72V80.72C157.185 80.72 155.065 81.4122 152.837 82.6931L153.834 84.4269ZM159.176 82.72C160.755 82.72 161.756 83.1141 162.369 83.7271C162.982 84.3401 163.376 85.3408 163.376 86.92H165.376C165.376 85.0325 164.903 83.4332 163.783 82.3129C162.662 81.1925 161.063 80.72 159.176 80.72V82.72ZM163.376 86.92C163.376 88.8789 162.813 92.5403 161.638 97.9892L163.593 98.4108C164.765 92.9797 165.376 89.1211 165.376 86.92H163.376ZM161.639 97.9866C160.63 102.604 160.096 105.779 160.096 107.4H162.096C162.096 106.034 162.574 103.076 163.593 98.4134L161.639 97.9866ZM160.096 107.4C160.096 108.558 160.3 109.606 160.866 110.387C161.475 111.227 162.385 111.6 163.416 111.6V109.6C162.899 109.6 162.649 109.439 162.485 109.213C162.278 108.927 162.096 108.376 162.096 107.4H160.096ZM163.416 111.6C164.86 111.6 166.349 110.752 167.84 109.427L166.511 107.933C165.122 109.168 164.105 109.6 163.416 109.6V111.6ZM167.842 109.426C169.39 108.043 171.401 105.865 173.863 102.922L172.329 101.638C169.884 104.562 167.948 106.65 166.51 107.934L167.842 109.426ZM173.855 102.931C174.352 102.35 174.813 102.16 175.256 102.16V100.16C174.098 100.16 173.119 100.716 172.336 101.629L173.855 102.931ZM151.496 50.72C150.525 50.72 149.758 51.4024 149.183 52.1503C148.573 52.9426 147.974 54.0729 147.375 55.4904L149.217 56.2696C149.79 54.9138 150.311 53.964 150.768 53.3697C151.26 52.7309 151.507 52.72 151.496 52.72V50.72ZM147.377 55.4839C146.172 58.2793 145.009 62.0486 143.883 66.7679L145.828 67.2321C146.942 62.5647 148.073 58.9207 149.214 56.2761L147.377 55.4839ZM143.881 66.776C142.806 71.4533 141.92 76.5534 141.223 82.0748L143.208 82.3252C143.898 76.8599 144.772 71.8267 145.83 67.224L143.881 66.776ZM142.978 82.8473C146.342 78.8863 149.111 74.5705 151.282 69.9017L149.469 69.0583C147.374 73.5628 144.703 77.727 141.453 81.5527L142.978 82.8473ZM151.278 69.9103C153.507 65.2352 154.656 60.9259 154.656 57H152.656C152.656 60.5408 151.617 64.5515 149.473 69.0497L151.278 69.9103ZM154.656 57C154.656 55.2451 154.467 53.7847 154.02 52.6992L152.171 53.4607C152.471 54.1886 152.656 55.3416 152.656 57H154.656ZM154.02 52.6992C153.568 51.6017 152.762 50.72 151.496 50.72V52.72C151.616 52.72 151.876 52.7449 152.171 53.4607L154.02 52.6992ZM174.052 115L173.332 115.694L173.338 115.701L173.345 115.707L174.052 115ZM172.292 91.88L173.177 92.3446L172.292 91.88ZM178.932 84.36L178.389 83.5204V83.5204L178.932 84.36ZM194.292 84.36L193.552 85.0327L193.563 85.0444L193.574 85.0558L194.292 84.36ZM195.252 96.68L194.415 96.132L194.409 96.1422L194.402 96.1526L195.252 96.68ZM188.932 98.28L188.299 99.054L188.315 99.0673L188.332 99.08L188.932 98.28ZM188.452 93.96L187.503 93.6438L187.491 93.6802L187.482 93.7175L188.452 93.96ZM188.292 90.12L187.533 90.7708L187.558 90.7999L187.585 90.8271L188.292 90.12ZM183.412 91.24L184.119 91.9471L184.128 91.9385L184.136 91.9297L183.412 91.24ZM180.852 95.64L179.906 95.3157L180.852 95.64ZM195.012 108.92L195.51 109.787L195.516 109.784L195.012 108.92ZM202.532 102.28L201.773 101.629L201.765 101.638L202.532 102.28ZM206.292 102.12L205.428 102.624L205.443 102.65L205.46 102.675L206.292 102.12ZM205.412 109.72L206.189 110.35L206.196 110.341L205.412 109.72ZM196.372 116.92L196.802 117.823L196.808 117.82L196.372 116.92ZM186.292 118.4C181.258 118.4 177.459 116.993 174.759 114.293L173.345 115.707C176.511 118.874 180.873 120.4 186.292 120.4V118.4ZM174.772 114.306C172.102 111.537 170.732 107.882 170.732 103.24H168.732C168.732 108.305 170.242 112.49 173.332 115.694L174.772 114.306ZM170.732 103.24C170.732 99.0534 171.558 95.4313 173.177 92.3446L171.406 91.4155C169.612 94.8353 168.732 98.7866 168.732 103.24H170.732ZM173.177 92.3446C174.815 89.2228 176.918 86.8541 179.475 85.1996L178.389 83.5204C175.506 85.3859 173.182 88.0305 171.406 91.4155L173.177 92.3446ZM179.475 85.1996C182.048 83.535 184.714 82.72 187.492 82.72V80.72C184.296 80.72 181.256 81.665 178.389 83.5204L179.475 85.1996ZM187.492 82.72C190.214 82.72 192.184 83.5283 193.552 85.0327L195.032 83.6873C193.199 81.6717 190.636 80.72 187.492 80.72V82.72ZM193.574 85.0558C195.02 86.5487 195.772 88.4991 195.772 91H197.772C197.772 88.0609 196.871 85.5847 195.01 83.6642L193.574 85.0558ZM195.772 91C195.772 93.0869 195.301 94.7798 194.415 96.132L196.088 97.228C197.229 95.4869 197.772 93.3931 197.772 91H195.772ZM194.402 96.1526C193.595 97.4533 192.613 98 191.412 98V100C193.411 100 194.989 99 196.102 97.2074L194.402 96.1526ZM191.412 98C190.557 98 189.957 97.7991 189.532 97.48L188.332 99.08C189.186 99.7209 190.24 100 191.412 100V98ZM189.565 97.506C189.242 97.2414 189.052 96.876 189.052 96.28H187.052C187.052 97.3907 187.449 98.3586 188.299 99.054L189.565 97.506ZM189.052 96.28C189.052 95.9984 189.093 95.6467 189.188 95.2169L187.236 94.7831C187.118 95.3133 187.052 95.8149 187.052 96.28H189.052ZM189.188 95.2169C189.295 94.7377 189.372 94.4021 189.422 94.2025L187.482 93.7175C187.425 93.9446 187.343 94.3023 187.236 94.7831L189.188 95.2169ZM189.401 94.2762C189.694 93.3955 189.852 92.5412 189.852 91.72H187.852C187.852 92.2855 187.743 92.9245 187.503 93.6438L189.401 94.2762ZM189.852 91.72C189.852 90.8477 189.613 90.027 188.999 89.4129L187.585 90.8271C187.717 90.9596 187.852 91.2056 187.852 91.72H189.852ZM189.051 89.4692C188.487 88.8116 187.69 88.56 186.852 88.56V90.56C187.294 90.56 187.456 90.6817 187.533 90.7708L189.051 89.4692ZM186.852 88.56C185.284 88.56 183.891 89.287 182.688 90.5503L184.136 91.9297C185.066 90.953 185.966 90.56 186.852 90.56V88.56ZM182.705 90.5329C181.502 91.7352 180.581 93.3476 179.906 95.3157L181.798 95.9643C182.403 94.1991 183.188 92.8781 184.119 91.9471L182.705 90.5329ZM179.906 95.3157C179.226 97.2998 178.892 99.4644 178.892 101.8H180.892C180.892 99.6556 181.198 97.7135 181.798 95.9643L179.906 95.3157ZM178.892 101.8C178.892 105.016 179.589 107.615 181.158 109.417C182.749 111.245 185.086 112.08 187.972 112.08V110.08C185.471 110.08 183.768 109.368 182.666 108.103C181.541 106.812 180.892 104.771 180.892 101.8H178.892ZM187.972 112.08C190.381 112.08 192.899 111.287 195.51 109.787L194.514 108.053C192.111 109.433 189.936 110.08 187.972 110.08V112.08ZM195.516 109.784C198.2 108.218 200.792 105.919 203.299 102.922L201.765 101.638C199.365 104.507 196.944 106.635 194.508 108.056L195.516 109.784ZM203.291 102.931C203.789 102.35 204.25 102.16 204.692 102.16V100.16C203.534 100.16 202.555 100.716 201.773 101.629L203.291 102.931ZM204.692 102.16C205.001 102.16 205.219 102.265 205.428 102.624L207.156 101.616C206.618 100.695 205.77 100.16 204.692 100.16V102.16ZM205.46 102.675C205.738 103.091 205.932 103.752 205.932 104.76H207.932C207.932 103.528 207.699 102.429 207.124 101.565L205.46 102.675ZM205.932 104.76C205.932 106.617 205.47 108.035 204.628 109.099L206.196 110.341C207.38 108.845 207.932 106.956 207.932 104.76H205.932ZM204.635 109.09C202.219 112.072 199.321 114.379 195.936 116.02L196.808 117.82C200.463 116.048 203.591 113.555 206.189 110.35L204.635 109.09ZM195.941 116.017C192.585 117.618 189.372 118.4 186.292 118.4V120.4C189.719 120.4 193.225 119.529 196.802 117.823L195.941 116.017ZM201.604 115.8L202.376 115.165L201.604 115.8ZM201.604 94.28L202.491 94.7421L202.493 94.7371L201.604 94.28ZM209.444 85.08L210.02 85.8973L210.022 85.8955L209.444 85.08ZM222.244 82.28L221.454 82.8939L221.493 82.9431L221.537 82.9871L222.244 82.28ZM223.284 84.68L222.309 84.9016L222.523 85.843L223.471 85.6623L223.284 84.68ZM229.524 95.16L230.504 95.3561L230.506 95.3465L229.524 95.16ZM228.244 109.88L227.454 110.494L227.475 110.52L227.496 110.544L228.244 109.88ZM233.524 108.68L234.188 109.427L234.196 109.421L234.203 109.414L233.524 108.68ZM239.364 102.28L238.604 101.629L238.597 101.638L239.364 102.28ZM243.124 102.12L242.26 102.624L242.275 102.65L242.292 102.675L243.124 102.12ZM242.244 109.72L241.487 109.066L241.475 109.08L241.464 109.093L242.244 109.72ZM235.284 116.6L235.889 117.396L235.284 116.6ZM223.284 117.64L222.635 118.401L222.65 118.414L222.666 118.426L223.284 117.64ZM220.004 112.68L220.945 112.342L220.245 110.391L219.153 112.154L220.004 112.68ZM215.764 109.24L214.971 108.63L215.764 109.24ZM218.084 103.72L219.063 103.925L219.064 103.917L218.084 103.72ZM221.044 89L222.024 89.1971L222.271 87.9705L221.02 88.0003L221.044 89ZM214.804 91.56L215.455 92.3193L215.456 92.3178L214.804 91.56ZM210.324 97.96L211.246 98.3472L210.324 97.96ZM209.604 110.12L208.823 110.745L208.835 110.76L208.848 110.775L209.604 110.12ZM209.524 118.4C206.494 118.4 204.146 117.317 202.376 115.165L200.831 116.435C203.008 119.083 205.94 120.4 209.524 120.4V118.4ZM202.376 115.165C200.584 112.985 199.644 110.082 199.644 106.36H197.644C197.644 110.425 198.677 113.815 200.831 116.435L202.376 115.165ZM199.644 106.36C199.644 102.254 200.592 98.3862 202.491 94.7421L200.717 93.8179C198.669 97.7471 197.644 101.932 197.644 106.36H199.644ZM202.493 94.7371C204.399 91.0283 206.91 88.0899 210.02 85.8973L208.868 84.2627C205.471 86.6568 202.755 89.8517 200.714 93.8229L202.493 94.7371ZM210.022 85.8955C213.178 83.6561 216.472 82.56 219.924 82.56V80.56C216.015 80.56 212.323 81.8106 208.865 84.2645L210.022 85.8955ZM219.924 82.56C221.052 82.56 221.388 82.8089 221.454 82.8939L223.033 81.6661C222.353 80.7911 221.142 80.56 219.924 80.56V82.56ZM221.537 82.9871C221.752 83.2024 222.05 83.7617 222.309 84.9016L224.259 84.4584C223.985 83.2516 223.589 82.211 222.951 81.5729L221.537 82.9871ZM223.471 85.6623C224.525 85.4616 225.635 85.36 226.804 85.36V83.36C225.519 83.36 224.283 83.4717 223.097 83.6977L223.471 85.6623ZM226.804 85.36C228.022 85.36 228.755 85.5829 229.163 85.8737C229.508 86.1203 229.724 86.4895 229.724 87.16H231.724C231.724 85.9638 231.286 84.9331 230.325 84.2463C229.425 83.6038 228.199 83.36 226.804 83.36V85.36ZM229.724 87.16C229.724 88.1653 229.347 90.728 228.541 94.9735L230.506 95.3465C231.3 91.1653 231.724 88.3947 231.724 87.16H229.724ZM228.543 94.9639C227.318 101.091 226.684 105.448 226.684 107.96H228.684C228.684 105.672 229.276 101.496 230.504 95.3561L228.543 94.9639ZM226.684 107.96C226.684 108.912 226.907 109.79 227.454 110.494L229.033 109.266C228.834 109.01 228.684 108.608 228.684 107.96H226.684ZM227.496 110.544C228.112 111.237 228.917 111.6 229.844 111.6V109.6C229.491 109.6 229.229 109.483 228.991 109.216L227.496 110.544ZM229.844 111.6C231.243 111.6 232.709 110.742 234.188 109.427L232.859 107.933C231.458 109.178 230.471 109.6 229.844 109.6V111.6ZM234.203 109.414C235.691 108.036 237.671 105.863 240.131 102.922L238.597 101.638C236.15 104.564 234.236 106.657 232.844 107.946L234.203 109.414ZM240.123 102.931C240.62 102.35 241.081 102.16 241.524 102.16V100.16C240.366 100.16 239.387 100.716 238.604 101.629L240.123 102.931ZM241.524 102.16C241.833 102.16 242.051 102.265 242.26 102.624L243.988 101.616C243.45 100.695 242.602 100.16 241.524 100.16V102.16ZM242.292 102.675C242.57 103.091 242.764 103.752 242.764 104.76H244.764C244.764 103.528 244.531 102.429 243.956 101.565L242.292 102.675ZM242.764 104.76C242.764 106.744 242.293 108.133 241.487 109.066L243.001 110.374C244.221 108.96 244.764 107.043 244.764 104.76H242.764ZM241.464 109.093C239.322 111.758 237.059 113.993 234.678 115.804L235.889 117.396C238.415 115.474 240.792 113.122 243.023 110.347L241.464 109.093ZM234.678 115.804C232.34 117.584 230.174 118.4 228.164 118.4V120.4C230.74 120.4 233.321 119.35 235.889 117.396L234.678 115.804ZM228.164 118.4C226.646 118.4 225.234 117.9 223.902 116.854L222.666 118.426C224.321 119.726 226.161 120.4 228.164 120.4V118.4ZM223.932 116.879C222.646 115.783 221.643 114.286 220.945 112.342L219.063 113.018C219.858 115.234 221.042 117.044 222.635 118.401L223.932 116.879ZM219.153 112.154C216.51 116.424 213.302 118.4 209.524 118.4V120.4C214.173 120.4 217.951 117.896 220.854 113.206L219.153 112.154ZM212.404 112.32C214.017 112.32 215.397 111.357 216.556 109.85L214.971 108.63C213.998 109.896 213.137 110.32 212.404 110.32V112.32ZM216.556 109.85C217.74 108.311 218.562 106.318 219.063 103.925L217.105 103.515C216.646 105.709 215.92 107.396 214.971 108.63L216.556 109.85ZM219.064 103.917L222.024 89.1971L220.063 88.8029L217.103 103.523L219.064 103.917ZM221.02 88.0003C218.519 88.0598 216.222 89.0189 214.151 90.8022L215.456 92.3178C217.225 90.7945 219.089 90.0468 221.068 89.9997L221.02 88.0003ZM214.153 90.8007C212.149 92.5184 210.571 94.7879 209.402 97.5728L211.246 98.3472C212.316 95.7988 213.725 93.8016 215.455 92.3193L214.153 90.8007ZM209.402 97.5728C208.229 100.366 207.644 103.325 207.644 106.44H209.644C209.644 103.582 210.179 100.887 211.246 98.3472L209.402 97.5728ZM207.644 106.44C207.644 108.191 207.977 109.687 208.823 110.745L210.385 109.495C209.95 108.953 209.644 107.996 209.644 106.44H207.644ZM208.848 110.775C209.753 111.819 210.976 112.32 212.404 112.32V110.32C211.485 110.32 210.841 110.021 210.359 109.465L208.848 110.775ZM238.622 116.2L237.686 116.551L237.689 116.561L237.693 116.571L238.622 116.2ZM240.382 86.2L241.335 86.5015L241.337 86.4964L240.382 86.2ZM242.702 82.84L243.247 83.6785L243.257 83.6721L242.702 82.84ZM249.022 89.4L248.056 89.1413L248.054 89.1493L248.052 89.1575L249.022 89.4ZM246.942 100.92L245.946 100.829L247.876 101.278L246.942 100.92ZM252.862 89.72L252.065 89.1153L252.862 89.72ZM259.262 83.56L258.763 82.693L258.754 82.6986L259.262 83.56ZM269.582 91.96L270.562 92.1561L270.564 92.1467L270.566 92.1372L269.582 91.96ZM276.702 95.24L275.995 94.5329L276.702 95.24ZM280.462 95.16L279.598 95.6639L279.624 95.7074L279.653 95.7482L280.462 95.16ZM279.502 102.2L280.221 102.895L280.226 102.89L279.502 102.2ZM274.222 106.2L274.697 107.08L274.706 107.075L274.222 106.2ZM261.422 105.64L260.715 106.347L260.721 106.354L260.728 106.36L261.422 105.64ZM259.502 97.4L260.482 97.5961L260.492 97.5482L260.497 97.4995L259.502 97.4ZM255.582 96.68L254.776 96.0876L254.773 96.0918L255.582 96.68ZM251.742 103.72L250.825 103.32L251.742 103.72ZM248.622 113L247.651 112.761L247.648 112.772L248.622 113ZM246.542 118.12L245.792 117.458L245.789 117.461L246.542 118.12ZM242.942 118.4C242.114 118.4 241.463 118.186 240.937 117.796C240.403 117.401 239.927 116.771 239.55 115.829L237.693 116.571C238.17 117.762 238.841 118.733 239.747 119.404C240.661 120.081 241.744 120.4 242.942 120.4V118.4ZM239.558 115.849C238.825 113.894 238.422 110.633 238.422 105.96H236.422C236.422 110.674 236.819 114.24 237.686 116.551L239.558 115.849ZM238.422 105.96C238.422 99.1229 239.395 92.6383 241.335 86.5015L239.428 85.8985C237.422 92.2417 236.422 98.9305 236.422 105.96H238.422ZM241.337 86.4964C241.767 85.1105 242.424 84.213 243.247 83.6784L242.157 82.0016C240.846 82.8536 239.957 84.1961 239.427 85.9036L241.337 86.4964ZM243.257 83.6721C244.152 83.0749 245.479 82.72 247.342 82.72V80.72C245.258 80.72 243.491 81.1118 242.147 82.0079L243.257 83.6721ZM247.342 82.72C248.389 82.72 248.883 82.8625 249.052 82.968L250.112 81.272C249.427 80.8442 248.428 80.72 247.342 80.72V82.72ZM249.052 82.968C249.061 82.9736 249.222 83.0585 249.222 83.64H251.222C251.222 82.7281 250.956 81.7997 250.112 81.272L249.052 82.968ZM249.222 83.64C249.222 83.9545 249.142 84.5595 248.943 85.516C248.748 86.4504 248.453 87.657 248.056 89.1413L249.988 89.6587C250.39 88.1563 250.696 86.9096 250.901 85.924C251.102 84.9605 251.222 84.1788 251.222 83.64H249.222ZM248.052 89.1575C247.516 91.3013 247.085 93.1841 246.761 94.8039L248.722 95.1961C249.038 93.6159 249.461 91.7654 249.992 89.6425L248.052 89.1575ZM246.761 94.8039C246.432 96.4503 246.161 98.4614 245.946 100.829L247.938 101.011C248.149 98.6852 248.412 96.7497 248.722 95.1961L246.761 94.8039ZM247.876 101.278C249.613 96.7505 251.545 93.108 253.658 90.3247L252.065 89.1153C249.805 92.092 247.791 95.9162 246.008 100.562L247.876 101.278ZM253.658 90.3247C255.802 87.5016 257.843 85.5577 259.77 84.4214L258.754 82.6986C256.521 84.0156 254.295 86.1784 252.065 89.1153L253.658 90.3247ZM259.76 84.4269C261.799 83.2544 263.573 82.72 265.102 82.72V80.72C263.111 80.72 260.991 81.4122 258.763 82.6931L259.76 84.4269ZM265.102 82.72C266.681 82.72 267.682 83.1141 268.295 83.7271C268.908 84.3401 269.302 85.3408 269.302 86.92H271.302C271.302 85.0325 270.829 83.4332 269.709 82.3129C268.589 81.1925 266.989 80.72 265.102 80.72V82.72ZM269.302 86.92C269.302 87.5042 269.083 89.0844 268.598 91.7828L270.566 92.1372C271.04 89.5022 271.302 87.7225 271.302 86.92H269.302ZM268.601 91.7639C268.387 92.8366 268.224 93.7173 268.114 94.402C268.008 95.0655 267.942 95.6043 267.942 95.96H269.942C269.942 95.7823 269.982 95.3878 270.089 94.718C270.193 94.0693 270.35 93.2167 270.562 92.1561L268.601 91.7639ZM267.942 95.96C267.942 96.9822 268.119 97.9284 268.628 98.6412C269.182 99.4161 270.012 99.76 270.942 99.76V97.76C270.538 97.76 270.369 97.6373 270.256 97.4788C270.098 97.2583 269.942 96.8045 269.942 95.96H267.942ZM270.942 99.76C271.943 99.76 272.98 99.3707 274.023 98.7333C275.074 98.091 276.204 97.1526 277.409 95.9471L275.995 94.5329C274.854 95.6741 273.849 96.4957 272.98 97.0267C272.104 97.5626 271.434 97.76 270.942 97.76V99.76ZM277.409 95.9471C277.976 95.3803 278.456 95.2 278.862 95.2V93.2C277.775 93.2 276.815 93.713 275.995 94.5329L277.409 95.9471ZM278.862 95.2C279.171 95.2 279.389 95.3054 279.598 95.6639L281.326 94.6561C280.788 93.7346 279.94 93.2 278.862 93.2V95.2ZM279.653 95.7482C279.915 96.108 280.102 96.6764 280.102 97.56H282.102C282.102 96.4169 281.862 95.3853 281.271 94.5718L279.653 95.7482ZM280.102 97.56C280.102 99.3503 279.622 100.624 278.778 101.51L280.226 102.89C281.515 101.536 282.102 99.7164 282.102 97.56H280.102ZM278.782 101.505C277.363 102.975 275.684 104.249 273.738 105.325L274.706 107.075C276.813 105.911 278.654 104.518 280.221 102.895L278.782 101.505ZM273.746 105.32C271.919 106.308 269.976 106.8 267.902 106.8V108.8C270.308 108.8 272.578 108.225 274.697 107.08L273.746 105.32ZM267.902 106.8C265.238 106.8 263.364 106.123 262.116 104.92L260.728 106.36C262.467 108.037 264.912 108.8 267.902 108.8V106.8ZM262.129 104.933C260.914 103.718 260.262 102.046 260.262 99.8H258.262C258.262 102.461 259.05 104.682 260.715 106.347L262.129 104.933ZM260.262 99.8C260.262 99.0671 260.335 98.3328 260.482 97.5961L258.521 97.2039C258.349 98.0672 258.262 98.9329 258.262 99.8H260.262ZM260.497 97.4995C260.603 96.4395 260.662 95.671 260.662 95.24H258.662C258.662 95.5557 258.614 96.2271 258.507 97.3005L260.497 97.4995ZM260.662 95.24C260.662 94.7298 260.58 94.17 260.266 93.7135C259.906 93.1893 259.354 92.96 258.782 92.96V94.96C258.807 94.96 258.781 94.9643 258.731 94.9398C258.675 94.913 258.637 94.874 258.618 94.8465C258.603 94.8256 258.616 94.8346 258.632 94.9034C258.648 94.9721 258.662 95.0808 258.662 95.24H260.662ZM258.782 92.96C258.022 92.96 257.326 93.3753 256.734 93.8781C256.117 94.4025 255.465 95.1513 254.776 96.0876L256.388 97.2724C257.032 96.3954 257.58 95.7842 258.03 95.4019C258.505 94.998 258.742 94.96 258.782 94.96V92.96ZM254.773 96.0918C253.436 97.9309 252.122 100.348 250.825 103.32L252.658 104.12C253.922 101.225 255.168 98.9491 256.391 97.2682L254.773 96.0918ZM250.825 103.32C249.522 106.308 248.464 109.455 247.651 112.761L249.593 113.239C250.38 110.038 251.402 106.999 252.658 104.12L250.825 103.32ZM247.648 112.772C247.066 115.261 246.415 116.752 245.792 117.458L247.292 118.782C248.268 117.675 249.005 115.753 249.596 113.228L247.648 112.772ZM245.789 117.461C245.306 118.014 244.442 118.4 242.942 118.4V120.4C244.749 120.4 246.284 119.933 247.294 118.779L245.789 117.461ZM320.708 102.12L319.844 102.624L319.859 102.65L319.876 102.675L320.708 102.12ZM319.828 109.72L319.071 109.066L319.063 109.076L319.055 109.086L319.828 109.72ZM312.628 116.6L313.209 117.414L313.22 117.406L312.628 116.6ZM295.588 112.28L296.5 111.87L295.826 110.37L294.804 111.659L295.588 112.28ZM289.668 117.96L289.178 117.088L289.166 117.095L289.668 117.96ZM275.748 115.8L274.985 116.447L274.993 116.456L275.001 116.464L275.748 115.8ZM275.348 94.44L276.243 94.8872L276.245 94.882L275.348 94.44ZM282.788 85.48L283.377 86.2881L283.379 86.2864L282.788 85.48ZM293.508 81.32L293.616 82.3142L294.424 82.2268L294.503 81.4175L293.508 81.32ZM299.268 54.84L298.337 54.4756L298.335 54.4792L299.268 54.84ZM316.228 46.92L315.416 47.5032L315.421 47.51L315.426 47.5167L316.228 46.92ZM314.148 77.32L313.209 76.9757L314.148 77.32ZM302.388 101.96L301.524 101.457L301.369 101.722L301.391 102.029L302.388 101.96ZM303.748 108.6L302.861 109.061L302.868 109.075L302.876 109.089L303.748 108.6ZM310.948 108.68L310.297 107.921L310.948 108.68ZM316.948 102.28L316.189 101.629L316.182 101.637L316.948 102.28ZM306.628 57.08L307.59 57.3528L307.591 57.3491L306.628 57.08ZM303.988 71.16L302.996 71.0326L302.995 71.0416L303.988 71.16ZM302.468 89.4L301.469 89.3496L303.377 89.8172L302.468 89.4ZM310.868 53.32L309.907 53.5947L309.913 53.6156L309.919 53.6362L310.868 53.32ZM289.668 110.12L290.288 110.905L290.3 110.895L290.312 110.885L289.668 110.12ZM293.508 105.48L294.331 106.048L294.567 105.706L294.491 105.298L293.508 105.48ZM292.868 89.56L293.867 89.597L293.92 88.1883L292.573 88.6046L292.868 89.56ZM285.508 95.48L284.669 94.9355L284.667 94.9392L285.508 95.48ZM319.108 102.16C319.417 102.16 319.635 102.265 319.844 102.624L321.572 101.616C321.034 100.695 320.186 100.16 319.108 100.16V102.16ZM319.876 102.675C320.154 103.091 320.348 103.752 320.348 104.76H322.348C322.348 103.528 322.116 102.429 321.54 101.565L319.876 102.675ZM320.348 104.76C320.348 106.744 319.877 108.133 319.071 109.066L320.585 110.374C321.805 108.96 322.348 107.043 322.348 104.76H320.348ZM319.055 109.086C316.918 111.692 314.578 113.927 312.036 115.794L313.22 117.406C315.905 115.433 318.365 113.081 320.601 110.354L319.055 109.086ZM312.047 115.786C309.56 117.563 307.172 118.4 304.868 118.4V120.4C307.684 120.4 310.47 119.37 313.209 117.414L312.047 115.786ZM304.868 118.4C303.052 118.4 301.482 117.874 300.117 116.827C298.738 115.769 297.521 114.141 296.5 111.87L294.676 112.69C295.789 115.166 297.185 117.098 298.899 118.413C300.628 119.74 302.631 120.4 304.868 120.4V118.4ZM294.804 111.659C292.589 114.455 290.713 116.225 289.178 117.088L290.158 118.832C292.037 117.775 294.108 115.758 296.372 112.901L294.804 111.659ZM289.166 117.095C287.69 117.952 285.922 118.4 283.828 118.4V120.4C286.214 120.4 288.34 119.888 290.17 118.825L289.166 117.095ZM283.828 118.4C280.856 118.4 278.436 117.319 276.496 115.136L275.001 116.464C277.327 119.081 280.293 120.4 283.828 120.4V118.4ZM276.511 115.153C274.615 112.917 273.628 109.988 273.628 106.28H271.628C271.628 110.358 272.722 113.777 274.985 116.447L276.511 115.153ZM273.628 106.28C273.628 102.16 274.502 98.3678 276.243 94.8872L274.454 93.9928C272.567 97.7656 271.628 101.866 271.628 106.28H273.628ZM276.245 94.882C277.991 91.3391 280.368 88.481 283.377 86.2881L282.199 84.6719C278.915 87.0656 276.332 90.1808 274.451 93.998L276.245 94.882ZM283.379 86.2864C286.437 84.0439 289.844 82.722 293.616 82.3142L293.401 80.3258C289.279 80.7714 285.539 82.2228 282.197 84.6736L283.379 86.2864ZM294.503 81.4175C295.511 71.1335 297.415 62.4005 300.201 55.2008L298.335 54.4792C295.467 61.8928 293.532 70.8132 292.513 81.2225L294.503 81.4175ZM300.199 55.2044C303.046 47.931 306.566 44.8 310.548 44.8V42.8C305.251 42.8 301.251 47.029 298.337 54.4756L300.199 55.2044ZM310.548 44.8C312.478 44.8 314.085 45.6495 315.416 47.5032L317.04 46.3368C315.385 44.0305 313.205 42.8 310.548 42.8V44.8ZM315.426 47.5167C316.786 49.3461 317.548 52.2381 317.548 56.36H319.548C319.548 52.0553 318.764 48.6539 317.031 46.3233L315.426 47.5167ZM317.548 56.36C317.548 62.1774 316.118 69.0429 313.209 76.9757L315.087 77.6643C318.045 69.5971 319.548 62.4893 319.548 56.36H317.548ZM313.209 76.9757C310.299 84.9135 306.405 93.0737 301.524 101.457L303.252 102.463C308.184 93.9929 312.131 85.7265 315.087 77.6643L313.209 76.9757ZM301.391 102.029C301.605 105.144 302.067 107.534 302.861 109.061L304.635 108.139C304.043 106.999 303.598 104.962 303.386 101.891L301.391 102.029ZM302.876 109.089C303.726 110.607 304.938 111.6 306.548 111.6V109.6C305.918 109.6 305.264 109.26 304.621 108.111L302.876 109.089ZM306.548 111.6C308.302 111.6 309.991 110.818 311.599 109.439L310.297 107.921C308.919 109.102 307.674 109.6 306.548 109.6V111.6ZM311.599 109.439C313.157 108.104 315.199 105.919 317.714 102.923L316.182 101.637C313.684 104.614 311.726 106.696 310.297 107.921L311.599 109.439ZM317.707 102.931C318.205 102.35 318.666 102.16 319.108 102.16V100.16C317.95 100.16 316.971 100.716 316.189 101.629L317.707 102.931ZM309.668 50.64C309.095 50.64 308.614 50.9009 308.241 51.2348C307.874 51.5634 307.557 52.0077 307.275 52.5122C306.711 53.5224 306.179 54.9723 305.665 56.8109L307.591 57.3491C308.091 55.5611 308.572 54.2909 309.021 53.4878C309.246 53.0857 309.436 52.8499 309.575 52.7252C309.708 52.6058 309.735 52.64 309.668 52.64V50.64ZM305.666 56.8072C304.634 60.4472 303.746 65.1947 302.996 71.0326L304.98 71.2874C305.723 65.4986 306.596 60.8594 307.59 57.3528L305.666 56.8072ZM302.995 71.0416C302.299 76.8793 301.79 82.9821 301.469 89.3496L303.467 89.4504C303.786 83.1245 304.291 77.0673 304.981 71.2784L302.995 71.0416ZM303.377 89.8172C309.369 76.7625 312.428 66.151 312.428 58.04H310.428C310.428 65.7157 307.514 76.0108 301.559 88.9828L303.377 89.8172ZM312.428 58.04C312.428 55.9712 312.24 54.2733 311.817 53.0038L309.919 53.6362C310.243 54.6067 310.428 56.0554 310.428 58.04H312.428ZM311.83 53.0453C311.657 52.4406 311.439 51.8943 311.142 51.4788C310.841 51.0573 310.356 50.64 309.668 50.64V52.64C309.46 52.64 309.415 52.5027 309.514 52.6412C309.618 52.7857 309.759 53.0794 309.907 53.5947L311.83 53.0453ZM286.628 112.32C287.922 112.32 289.147 111.805 290.288 110.905L289.048 109.335C288.163 110.035 287.361 110.32 286.628 110.32V112.32ZM290.312 110.885C291.433 109.941 292.775 108.301 294.331 106.048L292.685 104.912C291.148 107.139 289.93 108.592 289.024 109.355L290.312 110.885ZM294.491 105.298C293.971 102.489 293.708 99.325 293.708 95.8H291.708C291.708 99.4216 291.978 102.711 292.525 105.662L294.491 105.298ZM293.708 95.8C293.708 94.54 293.761 92.476 293.867 89.597L291.869 89.523C291.762 92.404 291.708 94.5 291.708 95.8H293.708ZM292.573 88.6046C289.377 89.5924 286.746 91.7363 284.669 94.9355L286.347 96.0245C288.217 93.1437 290.493 91.3409 293.163 90.5154L292.573 88.6046ZM284.667 94.9392C282.639 98.0933 281.628 101.616 281.628 105.48H283.628C283.628 101.984 284.537 98.84 286.349 96.0208L284.667 94.9392ZM281.628 105.48C281.628 107.51 281.97 109.209 282.803 110.425C283.683 111.709 285.015 112.32 286.628 112.32V110.32C285.575 110.32 284.907 109.957 284.453 109.295C283.953 108.565 283.628 107.344 283.628 105.48H281.628ZM323.32 119.24L322.656 119.987L322.662 119.993L322.669 119.999L323.32 119.24ZM322.68 111.32L323.387 112.027L322.68 111.32ZM329.56 110.04L329.386 111.025L329.418 111.03L329.45 111.034L329.56 110.04ZM331.72 110.28L331.61 111.274L332.764 111.402L332.719 110.242L331.72 110.28ZM330.76 106.36L329.843 106.759L329.85 106.775L329.858 106.791L330.76 106.36ZM328.68 102.84L327.871 103.428L327.878 103.437L327.885 103.446L328.68 102.84ZM326.28 99.8L327.033 99.1415L326.073 98.0445L325.395 99.3349L326.28 99.8ZM321.32 107.64L320.537 107.018L320.532 107.024L320.527 107.03L321.32 107.64ZM316.04 113.56L315.343 112.843L315.333 112.853L316.04 113.56ZM310.92 114.12L310.152 114.76L310.166 114.777L310.18 114.793L310.92 114.12ZM311.24 108.84L312.012 109.476L312.016 109.471L311.24 108.84ZM312.28 107.56L313.056 108.191L313.058 108.189L312.28 107.56ZM318.92 98.6L319.764 99.1369L319.77 99.1274L318.92 98.6ZM321.8 93.08L320.897 92.6509L320.892 92.6602L320.888 92.6696L321.8 93.08ZM325.72 84.36L326.637 84.7587L326.638 84.7564L325.72 84.36ZM335.16 81.24L335.574 80.3296L335.16 81.24ZM335.72 84.04L336.676 84.3341L335.72 84.04ZM334.84 86.12L333.96 85.6459L333.952 85.6592L333.946 85.6728L334.84 86.12ZM334.2 93.64L333.326 94.1256L333.336 94.1438L333.347 94.1615L334.2 93.64ZM336.84 97.24L337.635 96.634L337.626 96.621L337.615 96.6083L336.84 97.24ZM340.68 103L339.798 103.471L339.807 103.488L339.817 103.506L340.68 103ZM340.44 114.52L339.555 114.054L339.55 114.063L340.44 114.52ZM336.12 119.32L336.669 120.156L336.12 119.32ZM329.72 120.16C327.089 120.16 325.221 119.552 323.971 118.481L322.669 119.999C324.406 121.488 326.805 122.16 329.72 122.16V120.16ZM323.984 118.493C322.71 117.36 322.16 116.176 322.16 114.92H320.16C320.16 116.864 321.05 118.56 322.656 119.987L323.984 118.493ZM322.16 114.92C322.16 113.808 322.554 112.86 323.387 112.027L321.973 110.613C320.779 111.807 320.16 113.258 320.16 114.92H322.16ZM323.387 112.027C324.151 111.263 325.35 110.8 327.16 110.8V108.8C325.024 108.8 323.235 109.35 321.973 110.613L323.387 112.027ZM327.16 110.8C327.78 110.8 328.52 110.872 329.386 111.025L329.734 109.055C328.787 108.888 327.927 108.8 327.16 108.8V110.8ZM329.45 111.034C330.41 111.141 331.13 111.221 331.61 111.274L331.83 109.286C331.35 109.233 330.63 109.153 329.67 109.046L329.45 111.034ZM332.719 110.242C332.661 108.722 332.309 107.281 331.662 105.929L329.858 106.791C330.384 107.893 330.673 109.065 330.721 110.318L332.719 110.242ZM331.677 105.961C331.11 104.657 330.375 103.415 329.475 102.234L327.885 103.446C328.692 104.505 329.343 105.61 329.843 106.759L331.677 105.961ZM329.489 102.252C328.622 101.061 327.804 100.023 327.033 99.1415L325.527 100.459C326.25 101.284 327.031 102.273 327.871 103.428L329.489 102.252ZM325.395 99.3349C323.761 102.443 322.141 105 320.537 107.018L322.103 108.262C323.806 106.12 325.492 103.45 327.165 100.265L325.395 99.3349ZM320.527 107.03C318.957 109.072 317.229 111.009 315.343 112.843L316.737 114.277C318.691 112.378 320.483 110.368 322.113 108.25L320.527 107.03ZM315.333 112.853C314.507 113.679 313.734 114 313 114V116C314.399 116 315.653 115.361 316.747 114.267L315.333 112.853ZM313 114C312.404 114 311.988 113.808 311.66 113.447L310.18 114.793C310.919 115.605 311.889 116 313 116V114ZM311.688 113.48C311.318 113.036 311.12 112.495 311.12 111.8H309.12C309.12 112.918 309.455 113.924 310.152 114.76L311.688 113.48ZM311.12 111.8C311.12 110.989 311.397 110.223 312.012 109.476L310.468 108.204C309.59 109.271 309.12 110.478 309.12 111.8H311.12ZM312.016 109.471L313.056 108.191L311.504 106.929L310.464 108.209L312.016 109.471ZM313.058 108.189C316.001 104.55 318.241 101.53 319.764 99.1369L318.076 98.0631C316.612 100.364 314.426 103.317 311.503 106.931L313.058 108.189ZM319.77 99.1274C320.758 97.5343 321.739 95.6533 322.712 93.4904L320.888 92.6696C319.941 94.7734 319.002 96.5724 318.07 98.0726L319.77 99.1274ZM322.703 93.5091C323.724 91.3612 325.035 88.4429 326.637 84.7587L324.803 83.9613C323.205 87.637 321.903 90.5322 320.897 92.6509L322.703 93.5091ZM326.638 84.7564C327.063 83.7724 327.698 83.0664 328.547 82.5936C329.41 82.1126 330.557 81.84 332.04 81.84V79.84C330.323 79.84 328.816 80.1541 327.573 80.8464C326.316 81.5469 325.39 82.601 324.802 83.9636L326.638 84.7564ZM332.04 81.84C333.531 81.84 334.375 81.9816 334.746 82.1504L335.574 80.3296C334.772 79.9651 333.536 79.84 332.04 79.84V81.84ZM334.746 82.1504C334.914 82.2268 334.975 82.2956 334.996 82.3265C335.013 82.3516 335.04 82.4011 335.04 82.52H337.04C337.04 82.0523 336.92 81.5951 336.644 81.1935C336.372 80.7978 335.992 80.5199 335.574 80.3296L334.746 82.1504ZM335.04 82.52C335.04 82.677 334.976 83.0583 334.764 83.7459L336.676 84.3341C336.891 83.635 337.04 83.003 337.04 82.52H335.04ZM334.764 83.7459C334.572 84.3719 334.305 85.0051 333.96 85.6459L335.72 86.5941C336.122 85.8482 336.442 85.0948 336.676 84.3341L334.764 83.7459ZM333.946 85.6728C332.954 87.6563 332.4 89.4448 332.4 91H334.4C334.4 89.8886 334.806 88.4237 335.734 86.5672L333.946 85.6728ZM332.4 91C332.4 92.0216 332.739 93.0699 333.326 94.1256L335.074 93.1544C334.594 92.2901 334.4 91.5784 334.4 91H332.4ZM333.347 94.1615C333.967 95.1765 334.879 96.4161 336.065 97.8717L337.615 96.6083C336.455 95.1839 335.606 94.0235 335.053 93.1185L333.347 94.1615ZM336.045 97.846C337.734 100.064 338.979 101.936 339.798 103.471L341.562 102.529C340.674 100.864 339.359 98.8961 337.635 96.634L336.045 97.846ZM339.817 103.506C340.63 104.893 341.04 106.423 341.04 108.12H343.04C343.04 106.083 342.543 104.201 341.543 102.494L339.817 103.506ZM341.04 108.12C341.04 110.194 340.548 112.168 339.555 114.054L341.325 114.986C342.465 112.819 343.04 110.526 343.04 108.12H341.04ZM339.55 114.063C338.617 115.882 337.294 117.352 335.571 118.484L336.669 120.156C338.679 118.835 340.237 117.105 341.33 114.977L339.55 114.063ZM335.571 118.484C333.88 119.596 331.94 120.16 329.72 120.16V122.16C332.3 122.16 334.627 121.498 336.669 120.156L335.571 118.484Z" fill="#AAAAAA"/>
</g>
<defs>
<filter id="filter0_d" x="76" y="0.771851" width="102.433" height="114.349" filterUnits="userSpaceOnUse" color-interpolation-filters="sRGB">
<feFlood flood-opacity="0" result="BackgroundImageFix"/>
<feColorMatrix in="SourceAlpha" type="matrix" values="0 0 0 0 0 0 0 0 0 0 0 0 0 0 0 0 0 0 127 0"/>
<feOffset dy="4"/>
<feGaussianBlur stdDeviation="2"/>
<feColorMatrix type="matrix" values="0 0 0 0 0 0 0 0 0 0 0 0 0 0 0 0 0 0 0.25 0"/>
<feBlend mode="normal" in2="BackgroundImageFix" result="effect1_dropShadow"/>
<feBlend mode="normal" in="SourceGraphic" in2="effect1_dropShadow" result="shape"/>
</filter>
<filter id="filter1_d" x="168.567" y="0.771912" width="102.433" height="114.349" filterUnits="userSpaceOnUse" color-interpolation-filters="sRGB">
<feFlood flood-opacity="0" result="BackgroundImageFix"/>
<feColorMatrix in="SourceAlpha" type="matrix" values="0 0 0 0 0 0 0 0 0 0 0 0 0 0 0 0 0 0 127 0"/>
<feOffset dy="4"/>
<feGaussianBlur stdDeviation="2"/>
<feColorMatrix type="matrix" values="0 0 0 0 0 0 0 0 0 0 0 0 0 0 0 0 0 0 0.25 0"/>
<feBlend mode="normal" in2="BackgroundImageFix" result="effect1_dropShadow"/>
<feBlend mode="normal" in="SourceGraphic" in2="effect1_dropShadow" result="shape"/>
</filter>
<filter id="filter2_d" x="131.54" y="19.2852" width="81.831" height="100.461" filterUnits="userSpaceOnUse" color-interpolation-filters="sRGB">
<feFlood flood-opacity="0" result="BackgroundImageFix"/>
<feColorMatrix in="SourceAlpha" type="matrix" values="0 0 0 0 0 0 0 0 0 0 0 0 0 0 0 0 0 0 127 0"/>
<feOffset dy="4"/>
<feGaussianBlur stdDeviation="2"/>
<feColorMatrix type="matrix" values="0 0 0 0 0 0 0 0 0 0 0 0 0 0 0 0 0 0 0.25 0"/>
<feBlend mode="normal" in2="BackgroundImageFix" result="effect1_dropShadow"/>
<feBlend mode="normal" in="SourceGraphic" in2="effect1_dropShadow" result="shape"/>
</filter>
<filter id="filter3_d" x="0.160004" y="40.8" width="346.88" height="110.48" filterUnits="userSpaceOnUse" color-interpolation-filters="sRGB">
<feFlood flood-opacity="0" result="BackgroundImageFix"/>
<feColorMatrix in="SourceAlpha" type="matrix" values="0 0 0 0 0 0 0 0 0 0 0 0 0 0 0 0 0 0 127 0"/>
<feOffset dy="2"/>
<feGaussianBlur stdDeviation="2"/>
<feColorMatrix type="matrix" values="0 0 0 0 0 0 0 0 0 0 0 0 0 0 0 0 0 0 0.25 0"/>
<feBlend mode="normal" in2="BackgroundImageFix" result="effect1_dropShadow"/>
<feBlend mode="normal" in="SourceGraphic" in2="effect1_dropShadow" result="shape"/>
</filter>
<linearGradient id="paint0_linear" x1="122.738" y1="34.5061" x2="133.79" y2="64.8709" gradientUnits="userSpaceOnUse">
<stop stop-color="#89DAD5"/>
<stop offset="1" stop-color="#89DAD5" stop-opacity="0"/>
</linearGradient>
<linearGradient id="paint1_linear" x1="226.311" y1="36.1654" x2="215.842" y2="64.9282" gradientUnits="userSpaceOnUse">
<stop stop-color="#89DAD5"/>
<stop offset="1" stop-color="#89DAD5" stop-opacity="0"/>
</linearGradient>
<linearGradient id="paint2_linear" x1="175.081" y1="41.3823" x2="173.91" y2="70.7433" gradientUnits="userSpaceOnUse">
<stop stop-color="#89DAD5"/>
<stop offset="1" stop-color="#89DAD5" stop-opacity="0"/>
</linearGradient>
<clipPath id="clip0">
<rect width="36.9298" height="36.9298" fill="white" transform="translate(104.137 39.6386) rotate(-20)"/>
</clipPath>
<clipPath id="clip1">
<rect width="36.7304" height="36.7304" fill="white" transform="translate(210.1 27.0079) rotate(20)"/>
</clipPath>
</defs>
</svg>
